<?xml version="1.0" standalone="no"?>
<!DOCTYPE svg PUBLIC "-//W3C//DTD SVG 1.1//EN" "http://www.w3.org/Graphics/SVG/1.1/DTD/svg11.dtd" >
<!--
2013-9-30: Created.
-->
<svg>
<metadata>
Created by iconfont
</metadata>
<defs>

<font id="iconfont" horiz-adv-x="1024" >
  <font-face
    font-family="iconfont"
    font-weight="500"
    font-stretch="normal"
    units-per-em="1024"
    ascent="896"
    descent="-128"
  />
    <missing-glyph />
    
    <glyph glyph-name="x" unicode="x" horiz-adv-x="1001"
d="M281 543q-27 -1 -53 -1h-83q-18 0 -36.5 -6t-32.5 -18.5t-23 -32t-9 -45.5v-76h912v41q0 16 -0.5 30t-0.5 18q0 13 -5 29t-17 29.5t-31.5 22.5t-49.5 9h-133v-97h-438v97zM955 310v-52q0 -23 0.5 -52t0.5 -58t-10.5 -47.5t-26 -30t-33 -16t-31.5 -4.5q-14 -1 -29.5 -0.5
t-29.5 0.5h-32l-45 128h-439l-44 -128h-29h-34q-20 0 -45 1q-25 0 -41 9.5t-25.5 23t-13.5 29.5t-4 30v167h911zM163 247q-12 0 -21 -8.5t-9 -21.5t9 -21.5t21 -8.5q13 0 22 8.5t9 21.5t-9 21.5t-22 8.5zM316 123q-8 -26 -14 -48q-5 -19 -10.5 -37t-7.5 -25t-3 -15t1 -14.5
t9.5 -10.5t21.5 -4h37h67h81h80h64h36q23 0 34 12t2 38q-5 13 -9.5 30.5t-9.5 34.5q-5 19 -11 39h-368zM336 498v228q0 11 2.5 23t10 21.5t20.5 15.5t34 6h188q31 0 51.5 -14.5t20.5 -52.5v-227h-327z" />
    

    
    <glyph glyph-name="gongzuo10" unicode="&#59012;" d="M847.674109 821.271018l0-73.624834c0-46.323025-37.595246-83.918271-83.918271-83.918271-46.323025 0-83.918271 37.595246-83.918271 83.918271L679.837566 831.565479 344.162434 831.565479l0-83.918271c0-46.323025-37.595246-83.918271-83.918271-83.918271s-83.918271 37.595246-83.918271 83.918271L176.325891 821.271018C111.261013 798.165788 64.434521 736.681458 64.434521 663.7279120000001l0-559.456848c0-92.702332 75.135234-167.836543 167.836543-167.836543l559.456848 0c92.702332 0 167.836543 75.135234 167.836543 167.836543L959.564455 663.7279120000001C959.564455 736.681458 912.682705 798.165788 847.674109 821.271018zM847.674109 104.27208800000005c0-30.882358-25.063839-55.946196-55.945173-55.946196L232.272088 48.325890999999956c-30.882358 0-55.945173 25.063839-55.945173 55.946196L176.326914 551.8375659999999l671.347195 0L847.674109 104.27208800000005zM623.89137 272.10862999999995l111.89137 0 0-111.89137-111.89137 0 0 111.89137ZM623.89137 439.946196l111.89137 0 0-111.89137-111.89137 0 0 111.89137ZM456.053804 272.10862999999995l111.89137 0 0-111.89137-111.89137 0 0 111.89137ZM456.053804 439.946196l111.89137 0 0-111.89137-111.89137 0 0 111.89137ZM288.217261 272.10862999999995l111.89137 0 0-111.89137-111.89137 0 0 111.89137ZM288.217261 439.946196l111.89137 0 0-111.89137-111.89137 0 0 111.89137ZM763.754814 719.674109c-15.440667 0-27.973098 12.531408-27.973098 27.973098L735.781716 831.565479l55.945173 0 0-83.918271C791.727912 732.205517 779.196505 719.674109 763.754814 719.674109zM260.244162 719.674109c-15.440667 0-27.973098 12.531408-27.973098 27.973098L232.271064 831.565479l55.945173 0 0-83.918271C288.217261 732.205517 275.685853 719.674109 260.244162 719.674109z"  horiz-adv-x="1024" />

    
    <glyph glyph-name="tool37" unicode="&#59042;" d="M206.08 826.24c338.88-148.352 261.76-414.592 261.76-414.592L364.16 411.648l180.608-118.976 175.104 118.976L621.76 411.648c0 0 43.136 372.096-374.016 420.032C237.312 832.896 196.48 830.4639999999999 206.08 826.24zM781.44 255.29600000000005c-3.904 11.84-19.968 21.44-35.968 21.44L559.168 276.736 544.96 267.072 530.304 276.736 164.8 276.736c-15.936 0-25.792-9.6-22.016-21.44l96.96-297.92C243.584-54.464000000000055 259.648-64 275.648-64l580.736 0c16.064 0 25.856 9.536 22.016 21.376L781.44 255.29600000000005zM837.184 462.08l-152.128 0c-16.128 0.96-28.928-11.328-38.912-29.12l143.168 0L601.856 305.664l143.616 0c13.824-0.064 26.368-3.904 37.376-10.368 10.816-6.592 20.928-15.936 26.112-31.04l73.088-224.512 0 357.12C882.048 396.864 879.104 462.08 837.184 462.08zM243.392 338.624l0-32.896 242.88 0L392.32 367.552 272.384 367.552C256.32 367.552 243.392 354.55999999999995 243.392 338.624z"  horiz-adv-x="1024" />

    
    <glyph glyph-name="tool36" unicode="&#59043;" d="M751.104 582.0160000000001l0-103.104 118.016 179.2L751.104 832l0-97.856c0 0-368 42.816-416.064-369.728l25.344 0C509.824 651.968 751.104 582.0160000000001 751.104 582.0160000000001zM779.072 253.37599999999998c-3.52 11.328-20.032 20.928-35.84 20.928L168.064 274.304c-15.744 0-26.24-9.6-21.888-20.928l96.192-295.488C245.888-54.39999999999998 261.568-64 277.312-64l576 0c15.744 0 25.344 9.6 21.888 21.888L779.072 253.37599999999998zM834.112 457.856l-150.336 0c-33.28 1.728-52.416-51.584-62.08-93.504L360.384 364.352C353.408 351.23199999999997 347.264 337.28 340.288 322.36800000000005 335.936 312.832 334.144 353.024 335.04 363.52L335.04 364.352 274.688 364.352c-15.744 0-28.8-13.12-28.8-28.864l0-32.32 497.344 0c14.016 0 26.176-4.352 36.672-10.496 11.392-6.976 20.992-15.744 26.24-30.656l72.576-222.848L878.72 393.216C878.72 393.216 876.096 457.856 834.112 457.856z"  horiz-adv-x="1024" />

    
    <glyph glyph-name="xiaoxi2" unicode="&#58928;" d="M562.052464-5.92980399999999c0-96.596012-74.087369-46.729278-74.087369-46.729278L167.130973 217.26862800000004 117.581464 217.26862800000004c-30.697139 0-55.56348 25.320689-55.56348 56.56632L62.017984 500.064412c0 31.246655 24.867364 56.561204 55.56348 56.561204l59.268872 0L487.965096 820.555727c0 0 74.090439 50.27401 74.090439-47.12632l0-779.35921L562.052464-5.92980399999999zM728.722438 236.13430100000005c92.612281 75.403341 86.429465 218.377636 0 282.789645-33.938973 20.417005-55.54813-47.137577-55.54813-47.137577s86.419232-108.403942 0-188.525748C656.188448 261.262608 688.600649 215.69989899999996 728.722438 236.13430100000005L728.722438 236.13430100000005zM775.030114 679.160393c-12.343119 11.008728-72.526827-29.846772-37.036521-65.974597 183.65174-155.542542 186.728822-301.649178 0-461.890742-27.791973-26.711362 9.244548-76.995605 37.036521-65.98176C1029.662465 203.14802599999996 1018.875794 569.192839 775.030114 679.160393L775.030114 679.160393zM775.030114 679.160393"  horiz-adv-x="1024" />

    
    <glyph glyph-name="tool35" unicode="&#58935;" d="M832.004212-64.51410799999996l-640.000256 0c-105.878385 0-192.003966 86.157305-192.003966 192.074577L-0.00001 511.718833c0 35.390696 28.623247 64.026223 63.993476 64.026223 35.380462 0 64.00678-28.635528 64.00678-64.026223l0-384.158364c0-35.264823 28.688742-64.02213 64.00371-64.02213l640.000256 0c35.314968 0 64.001663 28.757307 64.001663 64.02213L896.005875 511.718833c0 35.390696 28.622224 64.026223 64.00371 64.026223 35.370229 0 63.990406-28.635528 63.990406-64.026223l0-384.158364C1023.99999 21.643196999999986 937.878503-64.51410799999996 832.004212-64.51410799999996zM489.376675 278.24953500000004c12.438884-12.442977 32.812864-12.442977 45.251747 0l210.750811 210.833703c12.436837 12.446047 8.246197 22.634572-9.374958 22.634572l-64.005756 0c-17.618085 0-31.998273 14.382235-31.998273 32.016693L640.000246 671.784904c0 17.629342-14.367908 32.00953-31.999296 32.00953l-192.001919 0c-17.620131 0-31.999296-14.381212-31.999296-32.00953l0-128.049377c0-17.634458-14.377118-32.016693-32.00032-32.016693l-64.00371 0c-17.619108 0-21.810771-10.188525-9.368818-22.634572L489.376675 278.24953500000004zM384.000758 799.838374c0 17.626271 14.314694 32.00953 31.999296 32.00953 17.69279 0 32.002367-14.384282 32.002367-32.00953 0-17.760331-14.309577-32.017717-32.002367-32.017717C398.316475 767.819634 384.000758 782.0770190000001 384.000758 799.838374zM576.004723 799.838374c0 17.626271 14.315717 32.00953 31.99725 32.00953 17.690743 0 31.999296-14.384282 31.999296-32.00953 0-17.760331-14.30753-32.017717-31.999296-32.017717C590.321464 767.819634 576.004723 782.0770190000001 576.004723 799.838374zM416.000054 831.847904l192.001919 0 0-64.027247-192.001919 0 0 64.027247Z"  horiz-adv-x="1025" />

    
    <glyph glyph-name="gongzuo9" unicode="&#58897;" d="M954.181818-11.636363999999958l-46.545455 0L907.636364 430.545455c0 25.693091-20.852364 46.545455-46.545455 46.545455l-232.727273 0 0-46.545455L837.818182 430.545455c12.846545 0 23.272727-10.426182 23.272727-23.272727L861.090909 11.636363999999958c0-12.846545-10.426182-23.272727-23.272727-23.272727l-279.272727 0 0 791.272727c0 25.693091-20.852364 46.545455-46.545455 46.545455L162.909091 826.181818c-25.693091 0-46.545455-20.852364-46.545455-46.545455l0-791.272727-46.545455 0C56.971636-11.636363999999958 46.545455-22.062545 46.545455-34.90909099999999c0-12.846545 10.426182-23.272727 23.272727-23.272727l884.363636 0c12.846545 0 23.272727 10.426182 23.272727 23.272727C977.454545-22.062545 967.028364-11.636363999999958 954.181818-11.636363999999958zM512-11.636363999999958L162.909091-11.636363999999958 162.909091 756.363636c0 12.846545 10.426182 23.272727 23.272727 23.272727l302.545455 0C501.573818 779.636364 512 769.210182 512 756.363636L512-11.636363999999958zM232.727273 477.090909l69.818182 0L302.545455 546.909091 232.727273 546.909091 232.727273 477.090909zM232.727273 616.727273l69.818182 0L302.545455 686.545455 232.727273 686.545455 232.727273 616.727273zM372.363636 477.090909l69.818182 0L442.181818 546.909091 372.363636 546.909091 372.363636 477.090909zM372.363636 616.727273l69.818182 0L442.181818 686.545455 372.363636 686.545455 372.363636 616.727273z"  horiz-adv-x="1024" />

    
    <glyph glyph-name="tongji3" unicode="&#58906;" d="M957.254342 384.978281c0 246.990301-199.567221 447.206298-445.728644 447.206298l0 0L511.525698 482.223069c53.508681 0 96.871281-43.533492 96.871281-97.243765L957.254342 384.979304zM589.511863 281.15056400000003c-5.934153 6.291287-1.401929 6.828522-1.401929 6.828522s211.04667-162.7722 218.649835-167.413917c42.644239 64.376193 67.49523 141.643997 67.49523 224.737484L561.946041 345.30265299999996c-2.137687-49.65184-44.007283-90.38352-93.947695-90.38352-51.269687 0-94.051049 42.921555-94.051049 94.359065 0 51.435463 42.782386 94.355995 94.051049 94.355995 0.352017 0 0.697895-0.023536 1.048889-0.027629l0.007163 308.23006c-223.779669 0-405.219022-182.009334-405.219022-406.532947 0-224.52873 181.439352-406.53704 405.219022-406.53704 139.135874 0 261.881452 70.354348 334.839091 177.534416C797.560246 120.25408400000003 594.90878 275.827325 589.511863 281.15056400000003z"  horiz-adv-x="1024" />

    
    <glyph glyph-name="tongxunlu2" unicode="&#58898;" d="M254.549975 120.76471400000003c0 15.520485-12.582573 28.102035-28.103058 28.102035L128.950396 148.86674800000003c-15.520485 0-28.102035-12.58155-28.102035-28.102035 0-15.521508 12.58155-28.103058 28.102035-28.103058l97.496521 0C241.967402 92.661655 254.549975 105.24320499999999 254.549975 120.76471400000003zM128.950396 372.24732800000004l97.496521 0c15.520485 0 28.103058 12.58155 28.103058 28.102035s-12.582573 28.103058-28.103058 28.103058L128.950396 428.452421c-15.520485 0-28.102035-12.582573-28.102035-28.103058S113.429911 372.24732800000004 128.950396 372.24732800000004zM128.950396 634.7755099999999l97.496521 0c15.520485 0 28.103058 12.58155 28.103058 28.103058 0 15.520485-12.582573 28.102035-28.103058 28.102035L128.950396 690.980603c-15.520485 0-28.102035-12.58155-28.102035-28.102035C100.848361 647.35706 113.429911 634.7755099999999 128.950396 634.7755099999999zM833.193815 832.224488L237.227448 832.224488c-49.680493 0-89.955778-36.863582-89.955778-82.340333l0-35.116799 74.02904 0c9.42772 5.921873 20.573571 9.360182 32.528857 9.360182 33.82641 0 61.248969-27.423583 61.248969-61.248969 0-33.827433-27.423583-61.248969-61.248969-61.248969-11.955286 0-23.101137 3.437286-32.528857 9.360182l-74.02904 0 0-158.752654 74.02904 0c9.42772 5.922896 20.573571 9.360182 32.528857 9.360182 33.82641 0 61.248969-27.42256 61.248969-61.248969 0-33.82641-27.423583-61.248969-61.248969-61.248969-11.955286 0-23.101137 3.437286-32.528857 9.359158l-74.02904 0 0-175.807075 74.02904 0c9.42772 5.921873 20.573571 9.359158 32.528857 9.359158 33.82641 0 61.248969-27.42256 61.248969-61.248969 0-33.827433-27.423583-61.248969-61.248969-61.248969-11.955286 0-23.101137 3.437286-32.528857 9.359158l-74.02904 0 0-50.759057c0-45.475727 40.275285-82.340333 89.955778-82.340333l595.966367 0c49.680493 0 89.956801 36.863582 89.956801 82.340333L923.150616 749.885178C923.150616 795.360905 882.874307 832.224488 833.193815 832.224488zM831.594387 428.813648C786.192338 288.79568500000005 676.169525 175.87589200000002 537.259802 126.74082199999998c-11.214413-3.974521-22.951735-5.977132-34.844599-5.977132-27.820626 0-54.940286 11.30651-74.4312 31.036877l-25.645077 25.936719c-13.249769 13.404288-20.543895 31.116695-20.543895 49.892317 0 26.738991 14.829753 50.948369 38.693254 63.192228l73.684186 37.860283c18.047028 9.295714 41.365106 6.124488 56.311517-7.621585l8.610098-7.877411c8.345062-7.668657 21.344121-9.447163 31.460526-4.225231 25.127284 12.928451 45.213761 33.032324 58.166771 58.112536 5.306866 10.285251 3.614317 22.909779-4.241604 31.42778l-7.884574 8.591679c-8.452509 9.199523-13.108552 21.131273-13.108552 33.592073 0 7.854898 1.899256 15.69547 5.500271 22.694885l37.892005 73.628928c12.258185 23.813359 36.502355 38.620599 63.231113 38.620599 15.725146 0 30.627555-5.03569 43.071981-14.542204l22.407336-17.09126C830.764486 517.184325 845.228919 470.894046 831.594387 428.813648zM769.715061 510.125559l-22.419616 17.098423c-4.956895 3.77907-10.895141 5.79089-17.183358 5.79089-10.69355 0-20.387329-5.939269-25.305339-15.500019l-37.881772-73.628928c-0.515746-0.998747-0.779759-2.074242-0.779759-3.203972 0-2.266623 1.030469-3.855818 1.885953-4.78498l7.869225-8.579399c19.880793-21.601994 24.181749-53.6632 10.724249-79.770811-17.004279-33.002648-43.499723-59.443857-76.54535-76.470649-25.650193-13.218046-58.608839-8.767688-79.830163 10.707876l-8.613168 7.900947c-1.384533 1.279133-5.007037 2.619664-7.976672 1.099031l-73.683163-37.858236c-9.578146-4.909823-15.524578-14.611789-15.524578-25.295106 0-7.488555 2.929726-14.564717 8.237615-19.950378l25.63996-25.942859c16.46602-16.660448 42.527582-22.676465 64.705698-14.821567 126.462227 44.729737 226.651067 147.550521 267.983427 275.030937C799.087019 466.850963 790.538319 494.25101 769.715061 510.125559z"  horiz-adv-x="1024" />

    
    <glyph glyph-name="bangong1" unicode="&#58907;" d="M920.584164 753.801371l-810.724569 0c-36.633339 0-66.233494-25.975605-66.233494-58.738799L43.626102 211.036693c0-32.81743 29.600155-60.400648 66.233494-60.400648l810.724569 0c36.524868 0 66.180282 27.583219 66.180282 60.400648L986.764446 695.061548C986.764446 727.8257659999999 957.110055 753.801371 920.584164 753.801371zM913.824203 261.18995299999995c0-26.165939-25.730011-47.099714-56.583716-47.099714L173.039543 214.090239c-30.800493 0-56.419987 20.933775-56.419987 47.099714L116.619556 644.608459c0 26.004257 25.620517 47.26549 56.419987 47.26549l684.200944 0c30.853705 0 56.583716-21.261233 56.583716-47.26549L913.824203 261.18995299999995zM43.626102 85.546607c0-39.793308 29.600155-72.502267 66.233494-72.502267l810.724569 0c36.524868 0 66.180282 32.708959 66.180282 72.502267l0 41.759079L43.626102 127.30568700000003 43.626102 85.546607zM583.47231 60.90744099999995c0-9.267061-7.794523-17.551748-16.899902-17.551748L460.160843 43.355692999999974c-9.157567 0-17.170055 8.28571-17.170055 17.551748l0 21.36868c0 9.051143 8.012488 16.137539 17.170055 16.137539l106.411565 0c9.104355 0 16.899902-7.086395 16.899902-16.137539L583.47231 60.90744099999995zM583.47231 60.90744099999995c0-9.267061-7.794523-17.551748-16.899902-17.551748L460.160843 43.355692999999974c-9.157567 0-17.170055 8.28571-17.170055 17.551748l0 21.36868c0 9.051143 8.012488 16.137539 17.170055 16.137539l106.411565 0c9.104355 0 16.899902-7.086395 16.899902-16.137539L583.47231 60.90744099999995z"  horiz-adv-x="1024" />

    
    <glyph glyph-name="shangye6" unicode="&#59189;" d="M952.786158 543.199059c0 0.516042-0.172014 0.860071-0.172014 1.376113-0.344028 1.892155-0.860071 3.612296-1.548127 5.332437L875.895851 736.714934c-12.901058 38.531161-48.852007 62.613136-93.919704 62.613136L255.440954 799.32807c-44.207626 0-78.610449-23.565933-90.995464-60.720981L83.770872 548.015454c-0.344028-1.204099-0.860071-2.752226-1.204099-4.472367-5.84848-18.061482-8.77272-36.466991-8.77272-55.044515 0-65.193348 35.778935-124.71023 93.231648-155.328742 23.565933-12.729044 51.432219-19.093566 82.738787-19.093566 0 0 0 0 0.172014 0 52.464304 0.172014 101.144297 23.221905 134.34302 62.613136 33.026709-39.219217 81.19066-62.097094 133.654964-62.441122 51.948261 0.344028 100.112212 23.393919 132.966907 62.613136 33.198723-39.563245 81.878717-62.441122 134.687049-62.441122 31.994625 0.172014 60.204939 6.880564 84.1149 19.953637 56.592642 30.96254 91.683521 90.135394 91.683521 154.640685C961.386864 507.764153 958.29061 526.341676 952.786158 543.199059zM766.322862 512.064505L254.408869 512.064505c-17.717453 0-31.994625 14.277171-31.994625 31.994625s14.277171 31.994625 31.994625 31.994625l512.086007 0c17.717453 0 31.994625-14.277171 31.994625-31.994625S784.040316 512.064505 766.322862 512.064505zM894.989417 256.10750900000005c0 17.717453-14.277171 31.994625-31.994625 31.994625-3.268268 0-6.192508-0.860071-9.288762-1.892155l0 0c-23.737947-9.460776-54.012431-14.449185-76.890307-13.245087-50.400134 2.752226-88.931295 12.729044-125.914329 44.207626-36.466991-31.134554-83.082815-48.852007-132.622879-49.36805-50.22812 0.344028-97.187972 12.901058-133.826978 44.207626-36.983034-31.478582-84.1149-46.787838-134.34302-46.787838l-0.172014 0c-30.618512 0-47.991937 5.84848-75.858223 16.169326-0.688056 0.344028-1.548127 0.516042-2.408198 0.860071-1.376113 0.516042-2.408198 0.860071-3.78431 1.376113 0 0-4.644381 0.860071-7.052579 0.860071 0 0 0 0 0 0-17.717453 0-31.994625-14.449185-31.994625-31.994625l0.172014-171.498068c0-45.067697 36.81102-81.878717 82.050731-81.878717l602.221401 0.344028c45.067697 0.172014 81.878717 36.983034 81.878717 82.050731L894.989417 256.10750900000005z"  horiz-adv-x="1024" />

    
    <glyph glyph-name="shouye1" unicode="&#59216;" d="M982.028557 491.594826L573.32303 812.057114c-34.918864 27.694272-89.619352 27.694272-124.538216 0L43.175542 491.422812c-13.933143-11.008903-16.169326-31.134554-5.332437-44.895683s31.134554-16.169326 44.895683-5.332437l13.073072 10.320847 0-387.547791c0-54.872501 56.936671-95.983874 107.852847-95.983874l639.892491 0c50.22812 0 84.1149 38.531161 84.1149 95.983874L927.672098 452.547623l14.449185-11.352931c5.84848-4.644381 12.729044-6.880564 19.781623-6.880564 9.460776 0 18.921552 4.128339 25.286074 12.213002C998.369898 460.460272 995.789686 480.585923 982.028557 491.594826zM607.897867 98.88661200000001l0-66.741475-63.989249 0-63.989249 0-63.989249 0 0 66.741475 0 112.325214c0 37.155048 30.102469 77.234336 95.983874 77.234336 66.053418 0 95.983874-40.079288 95.983874-77.234336L607.897867 98.88661200000001 607.897867 98.88661200000001z"  horiz-adv-x="1024" />

    
    <glyph glyph-name="xiaoxi1" unicode="&#59224;" d="M889.828994 146.36250600000005c-1.204099 1.720141-119.205779 165.821603-119.205779 287.435579 0 168.401814-76.202251 254.752898-162.725349 286.919536L607.897867 736.026877c0 52.980346-43.175542 95.983874-95.983874 95.983874S415.930119 788.835209 415.930119 736.026877l0-15.309256c-86.523098-32.166639-162.725349-118.517722-162.725349-286.919536 0-121.269948-118.00168-285.199395-119.205779-286.919536-5.332437-7.568621-7.396607-16.857383-5.332437-25.974131 2.064169-8.944734 7.912649-16.685369 15.997312-20.985721 5.676466-3.096254 107.336805-57.280699 233.423148-84.458928 21.32975-66.397447 73.966068-111.29313 133.654964-111.29313s112.325214 44.895683 133.654964 111.29313c126.086343 27.178229 227.746682 81.018646 233.423148 83.942886 8.256677 4.472367 13.933143 12.040988 16.169326 20.985721C897.225601 129.33310900000004 895.333445 138.79388500000005 889.828994 146.36250600000005zM479.919368 736.026877c0 17.545439 14.449185 31.994625 31.994625 31.994625 17.545439 0 31.994625-14.449185 31.994625-31.994625l0-0.860071c-7.224593 0.516042-14.277171 0.860071-21.32975 0.860071l-21.32975 0c-7.052579 0-14.105157-0.344028-21.32975-0.860071L479.919368 736.026877 479.919368 736.026877zM511.913993-32.016125999999986c-22.361834 0-43.175542 13.417101-57.968755 35.262893 19.26558-2.064169 38.531161-3.268268 57.968755-3.268268s38.875189 1.376113 57.968755 3.268268C555.089535-18.59902599999998 534.275827-32.016125999999986 511.913993-32.016125999999986z"  horiz-adv-x="1024" />

    
    <glyph glyph-name="user4" unicode="&#59229;" d="M877.443978 23.54443100000003c0 0-162.897363 82.738787-237.723501 88.071225l0 23.737947c119.721821 50.916177 195.064001 174.93835 195.064001 319.946246 0 190.075592-145.867966 344.544263-325.106669 344.544263s-325.106669-154.640685-325.106669-344.544263c0-146.728036 77.40635-271.954309 199.536368-321.666387l0-22.017806-1.548127 0c-69.493701-3.440282-235.315303-87.727196-235.315303-87.727196S125.570301 5.65496399999995 127.978498-8.106165000000033c2.408198-13.761129 14.793214-23.909961 29.070385-23.909961L423.154712-32.016125999999986l177.346548 0 265.933815 0c14.277171 0 26.318159 9.804804 29.070385 23.393919C898.257685 4.966906999999992 877.443978 23.54443100000003 877.443978 23.54443100000003z"  horiz-adv-x="1024" />

    
    <glyph glyph-name="user3" unicode="&#59271;" d="M631.119772 276.577188l0.344028 16.685369c79.298505 55.388544 117.829666 153.092558 117.829666 297.756425 0 139.503444-87.211154 222.758273-233.423148 222.758273l-7.912649 0c-146.03998 0-233.423148-83.254829-233.423148-222.758273 0-143.975811 38.875189-241.679825 118.86175-297.412397l0-16.857383c-133.138922-17.889467-266.621871-70.869814-266.621871-151.88846 0-113.357299 129.526625-170.810012 385.139593-170.810012s385.139593 57.452713 385.139593 170.810012C897.053586 205.70737399999996 763.914665 258.68772 631.119772 276.577188z"  horiz-adv-x="1024" />

    
    <glyph glyph-name="caiwu2" unicode="&#59139;" d="M480 832C215.04 832 0 616.96 0 352 0 87.04 215.04-128 480-128c264.96 0 480 215.04 480 480C960 616.96 744.96 832 480 832zM672 384C689.92 384 704 369.92 704 352 704 334.08 689.92 320 672 320L512 320l0-128 160 0c17.92 0 32-14.08 32-32 0-17.92-14.08-32-32-32L512 128l0-96C512 14.08 497.92 0 480 0 462.08 0 448 14.08 448 32L448 128 288 128C270.08 128 256 142.08 256 160 256 177.92 270.08 192 288 192L448 192 448 320 288 320C270.08 320 256 334.08 256 352 256 369.92 270.08 384 288 384L448 384 448 405.12 264.96 588.16c-12.16 12.16-12.16 31.36 0 42.88 12.16 12.16 31.36 12.16 42.88 0l171.52-171.52 173.44 173.44c12.16 12.16 32 12.16 44.16 0 12.16-12.16 12.16-32 0-44.16L512 403.84 512 384 672 384z"  horiz-adv-x="1024" />

    
    <glyph glyph-name="gongzuo8" unicode="&#59000;" d="M5.625-2.548000000000002c5.742-18.44 104.507-48.91 238.944-50.46 96.335-1.15 208.817 14.525 241.107 47.83 0 0 3.715 12.09-16.145 22.225-29.185 12.225-98.025 36.07-140.587 48.705-3.715 1.155-4.188 1.42-4.188 16.415 0 12.5 5.068 25.135 10.067 35.745 5.47 11.545 11.89 31.005 14.187 48.43 6.552 7.5 15.335 22.365 21.007 50.535 4.932 24.79 2.638 33.91-0.675 42.425-0.402 0.945-0.675 1.76-0.945 2.635-1.35 5.88 0.405 36.14 4.595 59.655 3.04 16.075-0.675 50.395-22.902 78.767-13.985 17.902-40.802 39.925-89.85 43.032l-26.82-0.067c-48.167-3.04-74.987-25.062-89.04-42.965-22.157-28.372-25.872-62.692-22.9-78.767 4.257-23.515 5.945-53.775 4.66-59.45-0.202-1.08-0.54-1.895-0.945-2.84-3.242-8.515-5.537-17.635-0.675-42.425 5.675-28.17 14.457-43.035 21.007-50.535 2.3-17.425 8.782-36.885 14.187-48.43 3.987-8.445 5.812-20 5.812-36.28 0-15.2-0.607-15.34-3.985-16.355-43.98-13.035-114.24-38.37-140.317-49.85C21.227 15.427000000000021 1.775 10.086999999999989 5.625-2.548000000000002zM546.069-2.548000000000002c5.745-18.44 104.51-48.91 238.949-50.46 96.335-1.15 208.814 14.525 241.104 47.83 0 0 3.715 12.09-16.145 22.225-29.185 12.225-98.025 36.07-140.585 48.705-3.715 1.155-4.185 1.42-4.185 16.415 0 12.5 5.065 25.135 10.065 35.745 5.475 11.545 11.89 31.005 14.185 48.43 6.55 7.5 15.335 22.365 21.01 50.535 4.93 24.79 2.635 33.91-0.675 42.425-0.405 0.945-0.675 1.76-0.95 2.635-1.35 5.88 0.41 36.14 4.6 59.655 3.04 16.075-0.675 50.395-22.9 78.767-13.99 17.902-40.81 39.925-89.85 43.032l-26.825-0.067c-48.165-3.04-74.985-25.062-89.035-42.965-22.16-28.372-25.875-62.692-22.905-78.767 4.26-23.515 5.945-53.775 4.665-59.45-0.275-1.08-0.61-1.895-1.015-2.84-3.245-8.515-5.54-17.635-0.675-42.425 5.675-28.17 14.455-43.035 21.005-50.535 2.305-17.425 8.785-36.885 14.19-48.43 3.99-8.445 5.81-20 5.81-36.28 0-15.2-0.61-15.34-3.985-16.355-43.98-13.035-114.24-38.37-140.315-49.85C561.674 15.427000000000021 542.224 10.086999999999989 546.069-2.548000000000002zM775.558 614.308c1.96-6.01 1.55-12.7-1.42-18.577-2.835-5.607-7.835-10.065-14.05-12.227l-185.78-61.88c-12.16-4.055-26.55 2.97-30.605 15.332-4.185 12.567 2.64 26.417 15.34 30.67l130.38 43.507-29.52 14.727c-207.194 122.075-376.559 63.975-443.841-15.942 7.43 13.847 19.317 27.36 44.79 52.962 41.68 41.885 185.912 131.535 420.396 6.417l29.39-14.387-43.03 129.842c-4.26 12.767 2.565 26.482 15.2 30.737 12.29 4.12 26.615-2.972 30.67-15.335L775.558 614.308z"  horiz-adv-x="1027" />

    
    <glyph glyph-name="caiwu5" unicode="&#58886;" d="M925.61883 152.31631400000003L520.433578 152.31631400000003c11.860119 20.552082 20.971637 42.718941 27.048029 66.242703l378.137223 0c18.289552 0 33.089629-14.863523 33.089629-33.089629C958.70846 167.17983600000002 943.908382 152.31631400000003 925.61883 152.31631400000003zM925.61883 251.63227300000005L553.846572 251.63227300000005c1.356904 10.824533 2.294252 21.845541 2.294252 33.089629 0 11.212366-0.937348 22.200628-2.294252 33.057907l371.772258 0c18.289552 0 33.089629-14.800078 33.089629-33.057907C958.70846 266.43235100000004 943.908382 251.63227300000005 925.61883 251.63227300000005zM925.61883 350.901161L547.481607 350.901161c-6.076392 23.460318-15.187911 45.693692-27.048029 66.179258l405.185252 0c18.289552 0 33.089629-14.800078 33.089629-33.121352C958.70846 365.701239 943.908382 350.901161 925.61883 350.901161zM925.61883 450.170049L497.878886 450.170049c-21.553898 26.78811-48.115857 49.344848-78.394465 66.179258l506.134409 0c18.289552 0 33.089629-14.8318 33.089629-33.089629C958.70846 464.970126 943.908382 450.170049 925.61883 450.170049zM925.61883 549.4072140000001L396.217509 549.4072140000001c-18.289552 0-33.121352 14.8318-33.121352 33.121352 0 18.257829 14.8318 33.057907 33.121352 33.057907l529.401322 0c18.289552 0 33.089629-14.800078 33.089629-33.057907C958.70846 564.239014 943.908382 549.4072140000001 925.61883 549.4072140000001zM925.61883 648.707824L396.217509 648.707824c-18.289552 0-33.121352 14.800078-33.121352 33.091676 0 18.289552 14.8318 33.088606 33.121352 33.088606l529.401322 0c18.289552 0 33.089629-14.800078 33.089629-33.088606C958.70846 663.5079020000001 943.908382 648.707824 925.61883 648.707824zM528.576025 284.721903c0-127.947044-103.69571-231.611032-231.659127-231.611032-127.898949 0-231.627405 103.663988-231.627405 231.611032 0 127.899972 103.727433 231.627405 231.627405 231.627405C424.880315 516.349307 528.576025 412.621874 528.576025 284.721903zM378.929774 259.516848c-3.327792 7.916297-7.656377 14.800078-13.053294 20.682042-5.364171 5.848195-11.504008 10.856255-18.387789 15.089673-6.883781 4.200672-13.926174 7.949043-21.069875 11.246135-7.173376 3.327792-14.184047 6.429433-21.099551 9.402137-6.883781 2.973728-13.05534 6.108115-18.48398 9.501398-5.462408 3.359514-9.790994 7.236821-13.05534 11.568477-3.231601 4.363378-4.846378 9.499351-4.846378 15.381315 0 4.007267 0.741897 7.786337 2.196015 11.374048 1.421372 3.553942 3.619434 6.592139 6.591115 9.146311 2.973728 2.552126 6.65763 4.523013 11.05273 5.944386 4.426823 1.486864 9.56382 2.198062 15.509229 2.198062 7.594979 0 14.542204-0.969071 20.875446-2.780323 6.333242-1.840928 11.923564-3.90903 16.738219-6.137791 4.846378-2.294252 8.918114-4.330632 12.214183-6.302543 3.298116-1.906419 5.688559-2.843768 7.238868-2.843768 1.518586 0 2.713808 0.387833 3.619434 1.260713 0.905626 0.807389 1.583055 2.13257 2.068102 3.941775 0.484024 1.77646 0.839111 4.03899 1.033539 6.817266 0.193405 2.780323 0.289596 6.139837 0.289596 10.147104 0 3.587712-0.064468 6.591115-0.193405 8.983605-0.159636 2.455935-0.387833 4.458545-0.741897 6.0416-0.323365 1.551332-0.743944 2.843768-1.228991 3.845585-0.484024 0.905626-1.421372 2.100848-2.778276 3.489474-1.388627 1.358951-4.200672 3.069919-8.465812 5.13802-4.26514 2.036379-9.178033 3.877307-14.672164 5.494131-5.556553 1.679245-11.470239 2.971681-17.803481 3.90903-1.293459 0.193405-2.585895 0.161682-3.90903 0.291642l0 34.218336-32.508391 0 0-34.218336 0 0c-5.978155-0.775666-11.795651-1.972934-17.417695-3.587712-10.954493-3.134387-20.453844-7.982812-28.532847-14.380522s-14.477736-14.443967-19.2269-24.169469c-4.751211-9.695826-7.141654-20.974707-7.141654-33.80185 0-11.148921 1.679245-20.713764 4.976338-28.728298 3.296069-7.980765 7.624654-14.896268 12.925381-20.74344 5.298679-5.881964 11.310603-10.891048 18.096147-15.09172 6.721075-4.233418 13.701047-7.949043 20.8734-11.276834 7.141654-3.263323 14.090926-6.431479 20.875446-9.403161 6.721075-2.942005 12.730952-6.108115 18.063401-9.501398 5.298679-3.391237 9.597589-7.205099 12.893658-11.568477 3.327792-4.328585 4.976338-9.531074 4.976338-15.591093 0-5.234211-0.969071-10.017144-2.908236-14.282285-1.906419-4.330632-4.718465-7.884574-8.337899-10.79281-3.683902-2.908236-8.110725-5.170766-13.344936-6.721075-5.234211-1.616824-11.148921-2.39249-17.773805-2.39249-10.048867 0-18.903535 1.163499-26.593681 3.426029-7.624654 2.26253-14.21884 4.718465-19.710924 7.496741-5.525853 2.780323-10.017144 5.300726-13.540388 7.561209-3.521197 2.26253-6.236028 3.426029-8.17417 3.426029-1.388627 0-2.585895-0.387833-3.619434-1.163499s-1.874697-2.068102-2.455935-3.877307c-0.645706-1.744737-1.096984-4.13518-1.356904-7.045463-0.257873-2.841721-0.419556-6.461155-0.419556-10.726296 0-6.399757 0.356111-11.246135 1.130753-14.605649 0.775666-3.426029 2.034333-6.009877 3.813862-7.756661 1.809205-1.809205 4.716418-3.811816 8.788154-6.137791 4.072759-2.328022 9.113565-4.588505 15.187911-6.65763 6.076392-2.13257 13.087063-3.943822 21.005406-5.428639 7.916297-1.486864 16.479323-2.26253 25.720801-2.26253 0.419556 0 0.807389 0.064468 1.228991 0.064468l0-31.860638 32.508391 0 0 36.125779c1.551332 0.453325 3.229554 0.581238 4.749164 1.035586 11.990079 3.619434 22.458501 8.918114 31.410384 16.027022 8.949836 7.108908 16.058744 15.963577 21.293979 26.561959s7.852852 22.942525 7.852852 37.017078C383.874389 242.26083500000004 382.226866 251.600551 378.929774 259.516848zM497.878886 119.29012899999998l427.739944 0c18.289552 0 33.089629-14.800078 33.089629-33.153074 0-18.226107-14.800078-33.025161-33.089629-33.025161L419.484422 53.11189400000001C449.764052 69.85011399999996 476.326011 92.40480600000001 497.878886 119.29012899999998z"  horiz-adv-x="1024" />

    
    <glyph glyph-name="shangye1" unicode="&#59064;" d="M932.274414 670.643416l-416.362826-169.595606-417.314501 169.595606L514.948657 831.667809 932.274414 670.643416zM64.29484 600.135572L479.707015 426.739407l0-469.719034c-33.028231 14.594393-67.318198 29.870308-102.899578 45.738717-30.480198 13.320377-64.948221 28.242228-103.374392 44.762483-38.430264 16.522302-77.007885 33.041534-115.761514 49.566906-13.970176 6.345522-26.680663 14.756075-38.115086 25.229614-11.43647 10.469446-21.282722 21.919219-29.529547 34.290991-8.261151 12.398378-14.609743 25.581632-19.059078 39.553854-4.448312 13.9712-6.674003 27.616988-6.674003 40.964994L64.293817 600.135572 64.29484 600.135572zM957.994192 600.135572l0-361.108385c0-16.494673-3.173273-32.55444-9.522887-48.100508-6.360871-15.572674-14.459317-30.166043-24.306592-43.812855-9.834996-13.673417-20.797675-25.746384-32.868595-36.217876-12.05864-10.500145-23.816428-18.582217-35.252899-24.308639-33.667797-13.970176-68.908416-28.565593-105.750509-43.810808-36.84107-15.248286-70.819952-29.220508-101.94995-41.942251-36.205597-15.22168-71.76958-29.843702-106.711394-43.813878L541.631366 426.739407 957.994192 600.135572zM957.994192 600.135572"  horiz-adv-x="1024" />

    
    <glyph glyph-name="xitong3" unicode="&#60010;" d="M512-128c0 0-435.2 151.488-435.2 419.2L76.8 741.312 512 896l435.2-154.688L947.2 291.20000000000005C947.2 23.488000000000056 512-128 512-128L512-128zM512 716.8c-173.888 0-315.712-141.888-315.712-315.712 0-173.888 141.888-315.712 315.712-315.712s315.712 141.888 315.712 315.712C827.712 574.912 685.888 716.8 512 716.8L512 716.8zM690.112 418.112C681.6 503.488 614.4 571.712 529.088 579.2l0 102.4c141.888-8.512 256-121.6 263.488-263.488L690.112 418.112 690.112 418.112zM368 418.112C375.488 484.288 428.8 537.6 494.912 545.088l0-126.912L368 418.176 368 418.112zM333.888 418.112l-102.4 0c8.512 141.888 121.6 256 263.488 263.488l0-102.4C409.6 571.712 341.312 503.488 333.888 418.112L333.888 418.112zM333.888 384C342.4 298.688 409.6 230.39999999999998 494.912 222.91200000000003l0-102.4C353.088 128 238.912 242.11199999999997 231.488 384L333.888 384 333.888 384zM368 384l126.912 0 0-126.912C428.8 264.51199999999994 375.488 317.88800000000003 368 384L368 384zM656 384C648.512 317.88800000000003 595.2 264.51199999999994 529.088 257.08799999999997L529.088 384 656 384 656 384zM656 418.112L529.088 418.112 529.088 545.088C595.2 537.6 648.512 484.288 656 418.112L656 418.112zM690.112 384l102.4 0c-8.512-141.888-121.6-256-263.488-263.488l0 102.4C614.4 230.39999999999998 682.688 298.688 690.112 384L690.112 384zM690.112 384"  horiz-adv-x="1024" />

    
    <glyph glyph-name="caiwu4" unicode="&#58960;" d="M0-97.27999999999997c0-16.896 17.93024-30.72 39.83872-30.72l132.80256 0c21.90848 0 39.83872 13.824 39.83872 30.72L212.48 455.68c0 16.896-17.93024 30.72-39.83872 30.72L39.83872 486.4C17.93024 486.4 0 472.576 0 455.68L0-97.27999999999997zM405.76-97.27999999999997c0-16.896 17.92512-30.72 39.83872-30.72l132.80256 0c21.90848 0 39.83872 13.824 39.83872 30.72l0 368.64c0 16.896-17.93024 30.72-39.83872 30.72L445.59872 302.08000000000004c-21.90848 0-39.83872-13.824-39.83872-30.72L405.76-97.27999999999997zM851.35872 486.4c-21.90848 0-39.83872-13.824-39.83872-30.72l0-552.96c0-16.896 17.93024-30.72 39.83872-30.72l132.80256 0c21.90848 0 39.83872 13.824 39.83872 30.72L1024 455.68c0 16.896-17.93024 30.72-39.83872 30.72L851.35872 486.4zM509.44 890.88C345.90208 890.88 213.32992 758.3078399999999 213.32992 594.76992s132.57216-296.11008 296.11008-296.11008 296.11008 132.57216 296.11008 296.11008S672.97792 890.88 509.44 890.88zM526.71488 416.69632l0-34.14016-37.01248 0 0 35.11296c-61.69088 7.1168-98.85696 42.28096-110.71488 105.55904l54.33344 15.26784c4.5056-49.78688 32.23552-74.09664 83.13856-72.95488 44.11392 0 66.16576 17.52576 66.16576 52.59776 5.64224 24.86272-19.8144 43.53024-76.3648 55.99232-81.44384 16.96768-119.93088 50.31936-115.39456 100.10624 3.12832 58.40896 34.67776 90.81856 98.83648 97.29536l0 32.97792 37.01248 0 0-32.80896c56.7552-5.69856 92.51328-37.62176 103.7568-95.77472l-54.6304-15.26784c-7.92064 41.84064-30.53056 62.19776-67.8656 61.0816-40.71936-1.14688-61.66016-16.96768-62.7712-47.50848-2.2784-20.36224 20.9152-36.21376 69.56544-47.50848 84.83328-16.96768 126.4384-53.74464 124.1856-110.29504C634.5728 454.24128 595.80416 421.0176 526.71488 416.69632z"  horiz-adv-x="1024" />

    
    <glyph glyph-name="shangye3" unicode="&#58963;" d="M377.177338 896L78.010057 896C36.644988 896 2.660409 864.418371 2.660409 820.650352l0-299.167281c0-41.365069 31.581629-75.349648 75.349648-75.349648l299.167281 0c41.365069 0 75.349648 31.581629 75.349648 75.349648L452.526986 820.650352C452.698626 862.0154210000001 418.542407 896 377.177338 896zM625.367751 445.961783L924.535032 445.961783c41.365069 0 75.349648 31.581629 75.349648 75.349648L999.88468 820.650352C1000.056319 862.0154210000001 968.303051 896 924.535032 896L625.367751 896c-41.365069 0-75.349648-31.581629-75.349648-75.349648l0-299.167281C552.421053 479.946363 584.002682 445.961783 625.367751 445.961783zM377.177338 321.866577L78.010057 321.866577c-41.365069 0-75.349648-31.581629-75.349648-75.349648l0-299.167281c0-41.365069 31.581629-75.349648 75.349648-75.349648l299.167281 0c41.365069 0 75.349648 31.581629 75.349648 75.349648L452.526986 246.516929C452.698626 290.284948 418.542407 321.866577 377.177338 321.866577zM1019.451559-84.40362100000004l-80.327187 80.327187c21.969829 31.581629 33.984579 72.946698 33.984579 114.311767 0 116.714717-94.916527 211.631244-211.631244 211.631244s-211.631244-94.916527-211.631244-211.631244S644.76299-101.39590999999996 761.649346-101.39590999999996c55.954408 0 104.528327 21.969829 141.087496 55.954408l75.349648-75.349648c4.8059-4.8059 12.18639-4.8059 19.39524 0l19.39524 19.39524C1024.257459-96.59001 1024.257459-89.209521 1019.451559-84.40362100000004zM883.169963 3.132417000000032l-2.40295-4.8059c-29.178679-29.178679-70.543748-48.573919-116.714717-48.573919-89.938988 0-163.057325 72.946698-163.057325 163.057325s72.946698 163.057325 163.057325 163.057325 163.057325-72.946698 163.057325-163.057325C924.535032 68.87026500000002 909.945692 29.908145999999988 883.169963 3.132417000000032z"  horiz-adv-x="1024" />

    
    <glyph glyph-name="kehu3" unicode="&#58972;" d="M185.6 768l0-768 448 0L633.6 768 185.6 768zM313.6 147.20000000000005l-64 0 0 64 64 0L313.6 147.20000000000005zM313.6 275.20000000000005l-64 0 0 64 64 0L313.6 275.20000000000005zM313.6 403.2l-64 0 0 64 64 0L313.6 403.2zM313.6 531.2l-64 0 0 64 64 0L313.6 531.2zM313.6 659.2l-64 0 0 64 64 0L313.6 659.2zM441.6 147.20000000000005l-64 0 0 64 64 0L441.6 147.20000000000005zM441.6 275.20000000000005l-64 0 0 64 64 0L441.6 275.20000000000005zM441.6 403.2l-64 0 0 64 64 0L441.6 403.2zM441.6 531.2l-64 0 0 64 64 0L441.6 531.2zM441.6 659.2l-64 0 0 64 64 0L441.6 659.2zM569.6 147.20000000000005l-64 0 0 64 64 0L569.6 147.20000000000005zM569.6 275.20000000000005l-64 0 0 64 64 0L569.6 275.20000000000005zM569.6 403.2l-64 0 0 64 64 0L569.6 403.2zM569.6 531.2l-64 0 0 64 64 0L569.6 531.2zM569.6 659.2l-64 0 0 64 64 0L569.6 659.2zM684.8 704L684.8 665.6 742.4 665.6 742.4 601.6 684.8 601.6 684.8 544 742.4 544 742.4 486.4 684.8 486.4 684.8 428.8 742.4 428.8 742.4 371.20000000000005 684.8 371.20000000000005 684.8 313.6 742.4 313.6 742.4 249.60000000000002 684.8 249.60000000000002 684.8 192 742.4 192 742.4 134.39999999999998 684.8 134.39999999999998 684.8 0 806.4 0 806.4 704Z"  horiz-adv-x="1024" />

    
    <glyph glyph-name="shouye2" unicode="&#58958;" d="M512.546 809.95c0 0-12.561 0.546-24.03-7.1-12.015-8.192-462.029-380.109-462.029-380.109s-32.768-25.668 2.731-70.997 74.82-3.823 74.82-3.823l407.962 359.356 414.515-364.817c0 0 36.591-30.583 70.451 11.469 33.86 42.598-3.277 72.09-3.277 72.09l-121.242 99.942v175.309h-164.932v-39.868l-168.209 139.81c0 0-10.923 9.83-26.761 8.738zM512.546 654.848l-410.146-357.171v-300.919l333.141-0.546v246.306l152.917-1.638v-244.122l333.141-0.546v300.919z"  horiz-adv-x="1024" />

    
    <glyph glyph-name="gongzuo7" unicode="&#58908;" d="M300.8 691.2l0-697.6 268.8 249.6 268.8-249.6L838.4 691.2 300.8 691.2zM723.2 793.6L192 793.6l0-697.6 51.2 51.2L243.2 742.4l480 0L723.2 793.6z"  horiz-adv-x="1024" />

    
    <glyph glyph-name="xitong2" unicode="&#59234;" d="M670.172 353.08799999999997l-47.611-48.115-34.674 30.877-42.097 40.831 75.506 80.794c84.788-36.95 172.749-21.963 231.949 29.332 58.127 50.449 58.127 149.636 58.127 149.636l-46.543 18.166-89.456-90.553-130.454 129.331 90.075 91.141-18.39 46.428c0 0-90.127 0-150.225-59.646-55.849-55.401-73.536-146.542-34.196-228.938l-78.349-76.435-112.766 109.421-6.692 76.633-105.569 68.054-29.78-29.808-29.726-29.835-29.808-29.808 67.941-105.764 71.851-6.273 115.61-110.153-295.419-288.19c0 0-8.521-52.955 25.985-87.515 27.813-27.839 78.291-22.133 78.291-22.133l286.727 306.806 41.563-39.625 30.877-30.736-59.194-60.797c84.927-85.012 169.827-170.08 254.752-255.148 87.457 23.567 137.882 84.281 166.535 166.82-85.011 85.123-169.939 170.191-254.839 255.201v0M210.609 73.33100000000002c-13.609-13.694-35.743-13.861-49.523-0.253-13.724 13.637-13.837 35.855-0.253 49.664 13.582 13.809 35.771 13.947 49.55 0.253 13.695-13.668 13.894-35.827 0.225-49.664v0M765.923-3.437000000000012l-193.167 193.477 28.628 28.657 200.028-200.452-35.488-21.681M833.98 50.92100000000005l-200.028 200.366 28.655 28.741 193.139-193.477-21.766-35.63M833.98 50.92100000000005v0z"  horiz-adv-x="1024" />

    
    <glyph glyph-name="gongzuo11" unicode="&#58918;" d="M867.027899 770.02589L670.695349 770.02589 670.695349 806.156786c0 16.954137-13.745049 30.699186-30.699186 30.699186s-30.699186-13.745049-30.699186-30.699186l0-36.130895L415.738609 770.02589 415.738609 806.156786c0 16.954137-13.745049 30.699186-30.699186 30.699186s-30.699186-13.745049-30.699186-30.699186l0-36.130895L160.478971 770.02589c-16.954137 0-30.699186-13.745049-30.699186-30.699186L129.779785-34.433997999999974c0-16.954137 13.745049-30.699186 30.699186-30.699186l706.549951 0c16.954137 0 30.699186 13.745049 30.699186 30.699186L897.728108 739.3267040000001C897.727085 756.281865 883.983059 770.02589 867.027899 770.02589zM354.340237 708.627519l0-35.905768c0-16.954137 13.745049-30.699186 30.699186-30.699186s30.699186 13.745049 30.699186 30.699186l0 35.905768 193.557344 0 0-35.905768c0-16.954137 13.745049-30.699186 30.699186-30.699186s30.699186 13.745049 30.699186 30.699186l0 35.905768 165.633365 0 0-108.648512L191.178157 599.979006 191.178157 708.627519 354.340237 708.627519zM191.178157-3.7348120000000335L191.178157 538.5806339999999l645.151579 0L836.329736-3.7348120000000335 191.178157-3.7348120000000335zM367.464139 427.525306l-99.414197 0c-8.010441 0-14.503319-6.493901-14.503319-14.503319l0-75.953879c0-8.010441 6.493901-14.503319 14.503319-14.503319l99.414197 0c8.010441 0 14.503319 6.493901 14.503319 14.503319l0 75.953879C381.967458 421.032428 375.47458 427.525306 367.464139 427.525306zM561.364291 427.525306l-99.414197 0c-8.010441 0-14.503319-6.493901-14.503319-14.503319l0-75.953879c0-8.010441 6.492878-14.503319 14.503319-14.503319l99.414197 0c8.010441 0 14.503319 6.493901 14.503319 14.503319l0 75.953879C575.86761 421.032428 569.374732 427.525306 561.364291 427.525306zM755.264443 427.525306l-99.414197 0c-8.010441 0-14.503319-6.493901-14.503319-14.503319l0-75.953879c0-8.010441 6.493901-14.503319 14.503319-14.503319l99.414197 0c8.010441 0 14.503319 6.493901 14.503319 14.503319l0 75.953879C769.768785 421.032428 763.274884 427.525306 755.264443 427.525306zM367.464139 237.22002899999995l-99.414197 0c-8.010441 0-14.503319-6.493901-14.503319-14.503319l0-75.953879c0-8.010441 6.493901-14.503319 14.503319-14.503319l99.414197 0c8.010441 0 14.503319 6.493901 14.503319 14.503319l0 75.953879C381.967458 230.72715100000005 375.47458 237.22002899999995 367.464139 237.22002899999995zM561.364291 237.22002899999995l-99.414197 0c-8.010441 0-14.503319-6.493901-14.503319-14.503319l0-75.953879c0-8.010441 6.492878-14.503319 14.503319-14.503319l99.414197 0c8.010441 0 14.503319 6.493901 14.503319 14.503319l0 75.953879C575.86761 230.72715100000005 569.374732 237.22002899999995 561.364291 237.22002899999995zM755.264443 237.22002899999995l-99.414197 0c-8.010441 0-14.503319-6.493901-14.503319-14.503319l0-75.953879c0-8.010441 6.493901-14.503319 14.503319-14.503319l99.414197 0c8.010441 0 14.503319 6.493901 14.503319 14.503319l0 75.953879C769.768785 230.72715100000005 763.274884 237.22002899999995 755.264443 237.22002899999995z"  horiz-adv-x="1024" />

    
    <glyph glyph-name="tongji2" unicode="&#58881;" d="M203.932063 835.05792l-82.014831 0 0-335.928437 82.014831 0 0 335.928437z m0-820.106008l0-82.007909 820.067552 0 0 82.007909-820.067552 0z m492.039762 738.096176l-164.012357 0 0-656.09019 164.012357 0 0 656.09019z m246.02911-328.056631l-164.030046 0 0-328.033558 164.030046 0 0 328.033558z m-592.588907-237.017489c33.770353-36.369165 58.487092-91.016069 58.487092-91.016069l42.046286 0 0 492.051299-164.01428 0 0-128.477327c0 0 45.821446-26.902847 45.821446-93.579502 0-70.185203-45.821446-97.093165-45.821446-97.093165l0-37.433262c0 0 33.067967-11.698111 63.480901-44.450129zM207.271908 234.08575099999996c-114.475357 0-207.271908-127.783593-207.271908-285.413134 0-5.230963 0.110624-10.474231 0.331874-15.682352l413.879309 0c0.221249 5.20812 0.319582 10.451389 0.319582 15.682352 0 157.629542-92.784245 285.413134-207.259603 285.413134z m1.921005 29.361181c57.774131 0 104.638485 46.081404 104.638485 102.901842 0 56.810055-46.864354 102.884537-104.640407 102.884537-57.77067 0-104.615796-46.074097-104.615796-102.884537 0.001756-56.820823 46.845126-102.901842 104.617719-102.901842z"  horiz-adv-x="1024" />

    
    <glyph glyph-name="wendang3" unicode="&#58884;" d="M947.55321 73.24602600000003c-1.85948 1.469476-4.075875 2.968549-6.684032 4.436291-11.088958 4.075875-20.055569 10.859147-26.936311 20.283644-6.816341 9.455829-10.241062 20.482123-10.241062 33.101368 0.001741 12.944951 4.077612 24.556261 12.229363 34.731024 8.153488 10.174891 17.9384 17.316841 29.415632 21.392716 2.999888 1.10907 5.869204 3.45779 8.67584 6.946912 2.738725 3.523961 3.748561 8.447733 2.998148 14.740017-1.467735 10.730312-4.335314 21.394453-8.607932 31.961092-4.272618 10.564902-9.163321 18.458983-14.708685 23.642194-2.999888 2.937211-6.555197 4.599932-10.826078 4.99168-4.272618 0.390004-7.892344-0.358662-10.827815-2.218142-11.120323-5.184948-23.186013-7.305591-36.16413-6.391524-12.948458 0.945409-23.903338 5.837872-32.808957 14.740017-8.834269 8.903914-14.249029 19.30688-16.106759 31.144527-1.828138 11.870717-0.360406 23.154681 4.465886 33.916196 0.750407 1.465992 1.467735 3.976636 2.216402 7.500596 0.750407 3.522224 0.198484 6.75017-1.662737 9.717005-2.999888 4.828039-6.946912 9.262561-11.966482 13.338436-4.956874 4.077612-10.436067 7.4379-16.435843 10.012987-5.870941 2.608143-11.902049 4.664366-18.034166 6.132085-6.132085 1.499074-11.806283 2.216402-16.958162 2.216402-3.39162 0-6.621335-1.563494-9.750074-4.72703-3.130469-3.13221-5.479193-6.196518-6.946912-9.165058-4.075875-11.120323-11.120323-20.283644-21.13154-27.524801-10.01125-7.237683-21.491956-10.859147-34.471746-10.859147-12.586305 0-23.544691 3.816469-32.807348 11.414536-9.259086 7.631168-15.946592 16.404511-20.022468 26.415728-1.10907 3.325481-3.03297 6.588266-5.803033 9.750074-2.806629 3.165292-6.619598 4.730536-11.414536 4.730536-3.684128 0-8.707172-0.654648-15.001193-1.96046-6.294021-1.335413-12.783047-3.259311-19.468816-5.836103-6.684032-2.608143-12.88055-5.869204-18.620887-9.750074-5.771701-3.88087-9.750074-8.412927-11.966482-13.601349-1.075991-2.216402-1.370233-4.824532-0.816568-7.793104 0.555405-2.966809 1.206572-5.574959 1.955239-7.793104 0.358662-2.216402 0.84791-5.902273 1.370233-11.12206 0.586747-5.184948 0.586747-10.925317 0-17.217601-0.522326-6.294021-1.857736-12.685545-3.88087-19.20764-2.054479-6.457694-5.282451-11.936887-9.717005-16.406248-9.262561-8.869076-19.924965-14.151527-31.959355-15.81602-12.067459-1.662737-23.642194-0.292502-34.762549 4.175115-3.327218 1.10907-6.391524 1.85948-9.163321 2.216402-2.771807 0.358662-5.674199-0.356922-8.641001-2.216402-3.685865-2.218142-7.110586-5.674199-10.272394-10.274131-3.13221-4.662629-5.935342-9.750074-8.35023-15.293701-2.411401-5.576696-4.370121-11.317065-5.837872-17.252407-1.464251-5.935342-2.216402-11.315296-2.216402-16.141598 0-4.40319 1.140411-8.771573 3.360288-13.04596 2.218142-4.272618 4.988206-6.946912 8.249253-7.991584 11.088958-4.464149 21.098471-11.477232 30.002385-21.129803 8.902177-9.654308 13.338436-20.969636 13.338436-33.916196 0-12.621111-4.436291-24.002577-13.338436-34.210538-8.903914-10.206223-18.882063-17.511814-30.002385-21.979437-6.325353-2.218142-10.01125-7.403094-11.120323-15.556582-0.748667-4.467623-0.358662-10.108753 1.10907-16.958162 1.499074-6.880774 3.617989-13.533441 6.393261-20.024205 2.803145-6.457694 5.933605-12.424369 9.455829-17.806059 3.553556-5.346884 7.336923-8.771573 11.412799-10.239324 5.218017-2.218142 10.402966-2.609887 15.589683-1.140411 8.150014 2.608143 16.106759 4.108945 23.903338 4.467623 6.684032 0.358662 13.695378-0.261163 21.129803-1.956979 7.401357-1.664478 13.698852-5.251119 18.8838-10.827815 8.543499-9.260824 13.272298-19.371313 14.186365-30.296598 0.912327-10.956649-0.651164-20.673654-4.728799-29.220627-2.968549-6.292284-4.371858-11.216056-4.175115-14.740017 0.196742-3.489122 1.206572-6.555197 3.066049-9.165058 2.608143-3.685865 6.489026-7.401357 11.673974-11.085484 5.186685-3.718966 11.02282-6.980014 17.513583-9.751811 6.490763-2.773547 12.97979-5.087445 19.467079-6.946912 6.490763-1.892559 12.328635-2.804886 17.513583-2.804886 4.46936 0 8.545236 1.01157 12.196294 3.03297 3.718966 2.054479 6.490763 5.282451 8.348493 9.751811 4.077612 11.120323 11.219562 20.839032 21.425786 29.187558 10.174891 8.346756 21.589459 12.521871 34.175796 12.521871 13.011122 0 24.392588-4.175115 34.210538-12.521871 9.812738-8.348493 16.759683-18.230908 20.835558-29.74121l0.555405 0c1.175234-2.937211 3.19489-5.740369 6.130348-8.35023 2.999888-2.576805 6.099016-3.88087 9.424497-3.88087 4.861108 0 10.404735 0.748667 16.696986 2.18506 6.32709 1.499074 12.393037 3.522224 18.098567 6.130348 5.707268 2.609887 11.02282 5.479193 15.84909 8.642738 4.761868 3.130469 8.348493 6.194781 10.564902 9.165058 4.794937 7.436163 5.350359 14.806187 1.664478 22.240613-4.826302 10.763381-6.489026 22.043871-5.023044 33.916196 1.469476 11.870717 6.720575 22.435619 15.622752 31.698179 4.011474 4.436291 8.99968 7.631168 14.706948 9.457566 5.707268 1.824657 11.4459 3.03471 17.186237 3.586625 5.771701 0.522326 11.381466 0.358662 16.989494-0.553665 5.545364-0.947149 10.207992-1.956979 13.893857-3.066049 4.075875-1.500814 7.760003-2.218142 11.085484-2.218142 3.360288 0 7.241158 1.10907 11.707044 3.35855 4.404959 2.218142 8.545236 5.90401 12.231133 11.120323 3.684128 5.184948 6.814603 11.024557 9.424497 17.511814 2.608143 6.459431 4.465886 12.884024 5.543627 19.178045 1.175234 6.294021 1.335413 11.642642 0.586747 16.112003-1.469476 5.183211-4.276092 9.455829-8.35023 12.78131z m-138.400714 11.414536c-6.294021-14.642514-14.905427-27.491732-25.862077-38.643355-10.956649-11.123797-23.838936-19.829199-38.678097-26.12499-14.771349-6.292284-30.556037-9.457566-47.220115-9.457566-16.66218 0-32.316136 3.165292-46.958907 9.457566-14.609445 6.32709-27.425561 15.001193-38.347405 26.12499-10.927054 11.151655-19.569793 24.032205-25.862077 38.643355-6.295758 14.642514-9.457566 30.296598-9.457566 46.962124 0 16.663917 3.161811 32.349269 9.457566 46.958907 6.292284 14.642514 14.935022 27.462137 25.862077 38.384077 10.888742 10.925317 23.706595 19.568056 38.316201 25.863814 14.640777 6.292284 30.327963 9.455829 46.991719 9.455829 16.630848 0 32.44867-3.163552 47.220115-9.455829 14.870589-6.295758 27.719806-14.938496 38.678097-25.863814 10.956649-10.92358 19.564581-23.741434 25.86034-38.384077 6.294021-14.609445 9.424497-30.261792 9.424497-46.958907-0.001741-16.632585-3.13221-32.321604-9.424497-46.962124zM439.429512 119.13758299999995c0.701656 1.128223 1.424208 2.254705 2.016176 3.442124 0.177591 0.518842 0.374332 1.034204 0.534512 1.561754 0.442236 1.540861 0.882729 3.085202 1.182195 4.664366 0.041786 0.226341 0.08009 0.414378 0.114912 0.588487 0.107947 1.472956 0.20893 2.947656 0.196742 4.422362-0.012188 1.613986-0.022634 3.227979-0.168885 4.834987 0 0.005223 0 0.006964 0 0.012188-0.593711 2.817074-1.347599 5.585414-2.374838 8.278848-0.012188 0.027857-0.020893 0.052233-0.03134 0.08009-0.109688 0.231564-0.20893 0.46661-0.320359 0.698175-0.621566 1.286662-1.250099 2.56984-1.920417 3.832135-1.365012 2.573324-2.783996 5.113566-4.262163 7.618976-3.003372 5.0979-6.14952 10.115701-9.03796 15.283246-7.441406 13.317559-13.470777 27.685-13.960028 43.151124-0.48228 15.271054 4.493744 32.298765 13.310578 44.831284 16.951214 24.094869 43.273043 37.74135 72.067051 42.167412 5.900536 0.907106 11.771477 0.308172 16.76142-1.908228 2.010952 1.044652 3.983616 2.151981 5.88487 3.349833 0.475315 0.302949 0.954114 0.604156 1.427689 0.914071 0.019152 0.017411 0.040045 0.036563 0.060938 0.053974 0.748667 0.694691 1.485145 1.405055 2.197249 2.145017 0.720809 1.096884 2.122383 3.151363 2.625556 4.148994 0.085313 0.165403 0.165403 0.332548 0.247234 0.499692 0.008705 0.017411 0.013929 0.03308 0.019152 0.050491 1.25184 3.7033 2.178096 7.500596 2.820558 11.358852 0.081831 0.497949 0.186296 1.211796 0.280315 1.864701 0.20893 1.864701 0.407414 3.732895 0.593711 5.60108 0.480539 4.782746 1.055097 9.544614 1.687111 14.306482-0.219377 6.269637 0.200225 12.55671 1.471216 18.793278 3.304572 16.209505 14.219434 30.569966 28.5503 38.714769 0.020893 0.012188 0.043527 0.022634 0.06442 0.03308 2.95288 5.510525 7.843577 9.851051 14.160244 10.893953 6.530813 1.079471 13.115605 2.096266 19.702102 2.677788 1.192643 0.60938 2.439259 1.143892 3.739843 1.584388 17.482219 5.931868 37.072889 1.627915 49.516302-12.330372 3.985353-4.467623 7.481456-9.330468 10.791239-14.311726 6.186064-3.884344 11.679186-8.44947 16.982546-13.24444 1.511262-0.844426 3.045155-1.650549 4.610387-2.400956 0.732997-0.358662 1.47818-0.698175 2.219883-1.039428 1.436394-0.524066 2.874531-1.053357 4.344-1.479921 1.584388-0.461386 6.885985-1.250099 6.645719-1.371976 1.079471-0.038304 2.158946-0.03134 3.236664 0.029598 1.096884 0.247234 2.193765 0.504913 3.264522 0.84965 0.644203 0.205448 1.739343 0.668577 2.559395 1.027239 0.388261 0.198484 0.780005 0.395225 1.163045 0.611121 2.42533 1.365012 4.796675 2.822299 7.06185 4.441502 0.473575 0.337769 1.467735 1.102105 2.073632 1.566975 0.539736 0.440496 1.088179 0.8688 1.617467 1.319741 2.604663 2.209438 5.19714 4.444977 7.690358 6.781534 9.328731 8.743715 20.106041 16.973828 31.938446 22.035153 15.201409 6.504692 29.896165 9.920696 46.459009 7.246401 6.746696-1.088179 12.817854-3.551819 18.309239-6.952156l0 210.753099-301.124017 272.782619-357.578417 0c-51.9714 0-94.100532-38.164688-94.100532-85.245192l0-716.054335c0-47.078896 42.129131-85.243583 94.098601-85.243583l249.814323 0c-3.734632 12.777836-6.112945 26.04489-6.105996 39.247479 0.010447 16.653463 3.262785 36.014225 13.451605 49.706096 4.636508 6.234831 9.518525 10.674596 15.518301 15.455605 2.044034 1.629655 4.117662 3.290643 5.872678 5.240664 0.010447 0.012188 0.017411 0.019152 0.027857 0.029598z m18.638322 716.659102c19.420049 0 35.161116-15.742901 35.161116-35.164655 0.001741-19.420049-15.741132-35.163046-35.161116-35.163046-19.420049 0-35.163046 15.742901-35.163046 35.163046 0 19.421786 15.741132 35.164655 35.163046 35.164655z m-291.689001-70.327701c-19.420049 0-35.163046 15.742901-35.163046 35.163046 0 19.421786 15.742901 35.164655 35.163046 35.164655 19.420049 0 35.163046-15.742901 35.163046-35.164655 0-19.420049-15.742901-35.163046-35.163046-35.163046z m145.843536 0c-19.420049 0-35.161116 15.742901-35.161116 35.163046 0 19.421786 15.741132 35.164655 35.161116 35.164655 19.421786 0 35.163046-15.742901 35.163046-35.164655 0-19.420049-15.741132-35.163046-35.163046-35.163046z"  horiz-adv-x="1024" />

    
    <glyph glyph-name="xitong1" unicode="&#58885;" d="M1018.79225 431.145341l-0.601905 0c-2.04052 20.052986-17.901662 36.053054-37.895118 38.09863l-23.384938 0 0 0.206698c-24.858284 0-46.649074 14.548198-57.040203 35.647914-2.430764 5.106251-4.489473 10.658997-5.529565 16.603605-4.663094 13.099665-9.944634 25.995961-15.856194 38.301781-3.039282 4.506015-5.32783 9.198892-7.118671 14.354733-2.478718 6.749917-3.67426 13.900004-3.67426 21.296482 0 17.595776 7.153388 33.595808 18.493663 45.246976l13.038502 13.149291c0.200083 0.210005 0.446466 0.208351 0.646551 0.400166 0.196776 0.19843 0.196776 0.400166 0.391898 0.596942 15.08397 15.599899 15.867766 39.952013 2.452262 56.549015l0.190162 0.203391c-9.951237 11.892554-20.334095 23.34692-31.128658 34.449075-11.250962 11.254263-22.830991 21.901688-35.022865 32.155546l-0.238116-0.203391c-14.885536 12.304296-36.259723 12.706134-51.733995 1.441923l-9.342729-9.446916-8.760668-8.596987-0.439853 0.398512c-18.508537-18.652411-45.604302-23.353522-68.631732-14.151366-3.032669 1.243493-6.07194 2.696992-8.955801 4.550672-14.62924 7.145117-29.747927 13.289828-45.217229 18.59288-2.835892 0.653164-5.513059 1.650276-8.099233 2.703605-7.368364 2.850773-14.482065 7.550256-20.59536 13.709841-10.391093 10.450623-16.314225 23.591643-18.103397 37.29655-0.648205 5.303053-0.648205 10.654027 0 15.998399l0 11.055829c0 20.896313-15.118687 38.50348-34.869087 42.000927l-7.303864 0.593637c-14.278661 1.046717-28.355623 1.648621-42.574826 1.648621-14.232372 0-28.352322-0.596942-42.376392-1.847052-2.430764-0.203391-4.869799-0.395207-7.556858-0.603559-19.692503-3.502286-34.81616-20.902915-34.81616-41.995848l0-19.054213c0-27.449464-17.102992-50.851017-41.326178-60.052992-1.438615-0.603559-3.026055-1.255069-4.669732-1.650276-16.906226-5.703186-33.374229-12.704465-49.283496-20.453155l-0.208351 0c-1.23688-0.653164-2.485331-1.250106-3.877664-1.848706-8.153793-3.699074-16.907859-5.751144-26.465565-5.751144-17.501493 0-33.417217 7.151755-44.853372 18.655712l-0.201737 0-13.428732 13.499834c-14.625939 14.749933-37.445285 16.400237-53.959577 4.949173-1.838784-1.648621-3.829706-3.102121-5.721397-4.752407l-0.195123-0.190162c-10.741672-9.208795-21.17909-18.852477-31.133628-28.902967-9.992592-10.002532-19.598256-20.454788-28.74422-31.305617-1.594054-1.842089-3.241021-3.89914-4.876401-5.74621-11.591601-16.603605-9.956207-39.556958 4.876401-54.503729l13.470087-13.554394c19.156731-19.449412 23.634631-48.147307 12.990544-71.697485-0.595288-1.400582-1.392315-2.847468-2.189342-4.29434-7.766865-15.760278-14.726788-32.357281-20.391956-49.361129-0.400166-1.847052-1.203806-3.497324-1.797443-5.344372-3.080623-8.000016-7.958697-15.748706-14.516782-22.105092-12.388639-12.496127-28.701232-18.640838-44.962565-18.640838l0-0.210005-18.999652 0c-20.732595 0-38.233943-15.19309-41.671896-35.044341-0.210005-2.448953-0.453083-4.894612-0.649859-7.598214-1.040103-13.696599-1.640354-28.643334-1.640354-42.599494l0-0.800335c0-14.152998 0.595288-28.100959 1.640354-42.000927l0.649859-7.391509c3.43118-19.861154 20.730963-35.060883 41.468383-35.060883l19.002953 0c27.059198 0 50.087027-16.990534 59.239666-40.937653 0.648205-1.666811 1.241839-3.30551 1.640354-4.709383 0.203391 0 0.203391-0.186855 0.203391-0.186855 5.666837-17.063305 12.625091-33.600778 20.391956-49.605634 0.196776 0 0.196776-0.203391 0.196776-0.203391 0.601905-1.238534 1.195539-2.452262 1.795789-3.89914 3.682531-8.20839 5.721397-17.20054 5.721397-26.640854 0-17.613951-7.118671-33.60738-18.554826-45.266928l-12.833465-12.902899c-0.196776-0.196776-0.398512-0.196776-0.398512-0.44812-0.203391-0.185201-0.393553-0.395207-0.393553-0.60521-14.024034-14.539926-15.671001-37.104646-4.686238-53.438642l5.478306-6.797875c8.955801-10.850793 18.554826-21.098048 28.550756-31.10058 9.951237-10.058725 20.19189-19.714015 30.933562-28.706165 2.288559-1.852011 4.281135-3.687501 6.564724-5.547776 14.6193-10.057092 34.214255-9.597393 48.636681 1.051679l9.354302 9.392356 8.760668 8.808626 0.391898-0.395207c19.394852 19.239406 47.892643 23.783475 71.320569 12.902899 1.188925-0.406783 2.430764-1.016951 3.477484-1.615548 0 0 0.203391 0 0.203391-0.24473 15.861164-7.957028 32.572258-14.941765 49.688345-20.649921 1.445232-0.454733 2.837547-1.05333 4.276165-1.441923 8.348926-3.115347 16.062899-8.000016 22.830991-14.754903 12.388639-12.509332 18.500266-28.902967 18.500266-45.296675l0.203391 0 0-18.606085c0-21.949646 16.712762-40.20849 38.093552-42.457289l0-0.208351c15.467597-1.38901 30.935194-2.230683 46.647623-2.230683 15.666031 0 31.330394 0.590329 46.657418 2.230683l0 0.208351c21.374187 2.248872 38.085208 20.507715 38.085208 42.457289l0 19.041008c0 25.613967 15.022807 47.705818 36.605477 57.948212 4.472931 2.050441 8.955801 3.712278 13.881829 4.71272 13.873558 4.94257 27.499055 10.688744 40.72616 17.038492 3.882598 2.445648 7.961998 4.509316 12.244765 6.14638 6.905363 2.649038 14.415932 4.052918 22.164622 4.052918 16.124062 0 30.743399-6.157952 42.189566-16.153845 1.99422-1.650276 3.682531-3.497324 5.471704-5.560981l10.796232-10.83922c14.872331-14.953337 38.291986-16.388665 54.748597-4.496075 0.001654 0 0.24473 0 0.24473 0.196776 1.438615 1.238534 2.639116 2.235642 4.0794 3.44441 11.198071 9.458489 21.777658 19.305575 31.983594 29.744625 10.139767 10.26046 20.143932 21.117891 29.534619 32.363884 1.188925 1.441923 2.39604 2.893768 3.694104 4.496075 11.525469 16.005002 10.543238 38.343136-2.897077 53.511558l-3.07566 3.04259-11.791704 11.899156c-18.948393 19.049243-23.421324 47.100721-13.465117 70.436141 1.040103 2.308399 2.080207 4.29434 3.269132 6.36132 7.553557 15.403097 14.076926 31.348605 19.78675 47.742095 0.601905 2.253831 1.200501 4.29931 2.200918 6.349748 3.07566 8.000016 7.950425 15.401464 14.28033 21.947977 12.429958 12.520904 28.687991 18.655712 44.989048 18.655712l18.323344 0 0 0.201737c22.624322 0 41.183973 17.799144 42.374578 40.352509l0.600251 0c1.231917 14.761541 1.885084 29.691698 1.885084 44.645143-0.211658 15.623043-1.069868 31.371749-2.50187 46.970124z m-506.812416-331.591075c-156.263443 0-282.946051 127.352278-282.946051 284.447548 0.001654 157.095271 126.682608 284.452264 282.946051 284.452264 156.269973 0 282.946051-127.350464 282.946051-284.452264 0-157.1018-126.676078-284.447548-282.946051-284.447548z m0 448.533723c-93.744716 0-163.268132-69.839024-163.268132-164.085086 0-94.246062 69.516524-164.073478 163.268132-164.073478 93.751609 0 163.208638 69.827416 163.208638 164.073478 0.001654 94.246062-69.462108 164.083272-163.208638 164.085086z"  horiz-adv-x="1025" />

    
    <glyph glyph-name="zuzhi1" unicode="&#58888;" d="M149.32589 405.064173l341.356945 0 0-205.591196c0-11.790855 9.509599-21.341723 21.26248-21.341723l0.001651 0c11.747923 0 21.298791 9.550868 21.298791 21.341723l0 205.591196 341.396982 0 0-226.932858c0-11.747923 9.542614-21.336765 21.298791-21.336765l0 0c11.752882 0 21.371412 9.587178 21.371412 21.336765l0.001651 234.458307c0 19.393915-15.757431 35.187748-35.10521 35.187748l-348.964008 0 0 93.096901c0 11.790855-9.552531 21.34006-21.300454 21.34006l0.001651 0c-11.754545 0-21.264143-9.549205-21.264143-21.34006l0-93.096901-348.893173 0c-19.421971 0-35.180973-15.793772-35.180973-35.187748l0-234.458307c0-11.747923 9.588842-21.336765 21.374738-21.336765l0 0c11.747923 0 21.338428 9.587178 21.338428 21.336765l0 226.932858 0.001651 0z m85.312442-282.678155l-213.298352 0c-11.830461 0-21.338428-9.547572-21.338428-21.302086l0-206.804631c0-11.785897 9.507936-21.406091 21.338428-21.406091l213.298352 0c11.78756 0 21.338428 9.620194 21.338428 21.406091l0 206.804631c-0.001651 11.784234-9.550868 21.302086-21.34006 21.302086l0.001651 0z m384.030413 0l-213.334694 0c-11.790855 0-21.338428-9.547572-21.338428-21.302086l0-206.804631c0-11.785897 9.549205-21.406091 21.338428-21.406091l213.334694 0c11.718203 0 21.300454 9.620194 21.300454 21.406091l0 206.804631c-0.037966 11.784234-9.58222 21.302086-21.300454 21.302086l0 0z m383.996535 0l-213.407376 0c-11.68026 0-21.26248-9.547572-21.26248-21.302086l0-206.804631c0-11.785897 9.58222-21.406091 21.260817-21.406091l213.408916 0c11.716571 0 21.336765 9.620194 21.336765 21.406091l0 206.804631c0 11.784234-9.620194 21.302086-21.336765 21.302086l0 0z m-661.343278 474.677654l341.319988 0c11.751219 0 21.34006 9.549205 21.34006 21.34006l0 255.385737c0 11.792488-9.588842 21.34006-21.34006 21.34006l-341.319988 0.001651c-11.790855 0-21.331806-9.550868-21.331806-21.341723l0-255.351244c-0.001651-11.825503 9.540951-21.374738 21.331806-21.374738l0 0z"  horiz-adv-x="1025" />

    
    <glyph glyph-name="tongji1" unicode="&#58937;" d="M935.696631 36.98480500000005c0 13.025272-9.395991 23.570858-20.968528 23.570858l-293.465985 0c-11.572537 0-20.963414-10.545586-20.963414-23.570858l0-94.279989-209.6274 0 0-70.704067 754.631097 0 0 70.704067-209.605196 0 0 94.279989z m303.719532 859.015195l-942.837315 0c-39.062271 0-70.709056-31.624832-70.709056-70.687102l0-659.971651c0-39.035077 31.647035-70.710803 70.709056-70.710803l942.837315 0c39.062271 0 70.710803 31.675975 70.710803 70.710803l0 659.971651c0 39.064017-31.650279 70.687102-70.712549 70.687102l0.001703 0z m0-707.043164c0-13.001447-10.569411-23.564047-23.572554-23.564047l-895.688464 0c-13.02869 0-23.567465 10.5626-23.567465 23.564047l0 612.807831c0 13.032108 10.538775 23.570858 23.567465 23.570858l895.690959 0c13.003144 0 23.569162-10.537053 23.569162-23.570858l0.001703-612.807831z m-241.465036 45.092903l127.519443 0 0 371.260717-127.519443 0 0-371.260717z m-204.031109 0l127.517697 0 0 485.494208-127.517697 0 0-485.494208z m-382.562071 0l127.519443 0 0 142.792737-127.519443 0 0-142.792737z m178.528717 0l127.521189 0 0 257.054668-127.521189 0 0-257.054668z"  horiz-adv-x="1536" />

    
    <glyph glyph-name="caiwu3" unicode="&#58967;" d="M896.004269 127.98883599999999c70.727522 0 127.992316 57.288436 127.992316 127.997045l0 511.998687c0 70.727522-57.264795 128.016221-127.992316 128.016221l-767.992776 0c-70.727522 0-128.011493-57.288436-128.011493-128.016221l0-511.998687c0-70.708608 57.283708-127.997045 128.011493-127.997045l320.000493 0 0-127.992316-384.006896 0c-35.335391 0-64.005615-28.675215-64.005615-64.005615 0-35.316215 28.670487-63.99143 64.005615-63.99143l896.002955 0c35.316215 0 63.986701 28.675215 63.986701 63.99143 0 35.330662-28.670487 64.005615-63.986701 64.005615l-384.006896 0 0 127.992316 320.000493 0z m-704.004761 127.997045c-35.311486 0-63.986701 28.675215-63.986701 64.005615l0 384.006896c0 35.316215 28.675215 63.986701 63.986701 63.986701l640.019373 0c35.311486 0 63.986701-28.670487 63.986701-63.986701l0-384.006896c0-35.330662-28.675215-64.005615-63.986701-64.005615l-640.019373 0z m451.044711 248.112418l0 0c0-12.531133-10.463205-22.78516-22.97532-22.78516l-85.2079 0 0-20.313167 85.2079 0c12.626199 0 22.97532-10.249273 22.97532-22.880227l0 0c0-12.626199-10.463205-22.880227-22.97532-22.880227l-85.2079 0 0-35.102387c0-12.626199-10.254028-22.880227-22.880227-22.880227l0 0c-12.531133 0-22.880227 10.254028-22.880227 22.880227l0 35.102387-85.2079 0c-12.512114 0-22.880227 10.254028-22.880227 22.880227l0 0c0 12.630954 10.273046 22.880227 22.880227 22.880227l85.2079 0 0 20.313167-85.2079 0c-12.512114 0-22.880227 10.254028-22.880227 22.78516l0 0c0 12.607181 10.273046 22.97532 22.880227 22.97532l75.552826 0-94.088046 94.168954c-8.865909 8.880173-8.865909 23.479207 0 32.340492l0 0c8.880173 8.884927 23.479207 8.884927 32.340492 0l94.28296-94.263784 94.28296 94.263784c8.861154 8.884927 23.460214 8.884927 32.340492 0l0 0c8.979994-8.861154 8.979994-23.460214 0-32.340492l-94.06887-94.168954 75.53365 0c12.626199 0 22.97532-10.368139 22.97532-22.97532z"  horiz-adv-x="1024" />

    
    <glyph glyph-name="suo1" unicode="&#58975;" d="M852.933758 546.2869559999999l-91.22064 0c0 146.513881-111.984295 258.493454-254.700026 258.493454-142.920327 0-254.704747-111.979573-254.704747-258.493454l-91.420253 0c0 175.853012 155.094079 349.713044 345.920141 349.713044 190.826587 0 346.124737-173.861082 346.124737-349.713044l0 0z m115.772739-149.908083c0 50.302136-40.923225 91.215919-91.225361 91.215919l-730.968042 0.004754c-50.302136 0-91.22064-40.918504-91.22064-91.22064l0-433.156921c0-50.302136 40.918504-91.22064 91.22064-91.22064l730.768692 0c50.302136 0 91.225361 40.918504 91.225361 91.22064l0 433.156921 0.199649 0z m-384.447227-338.743527c0-37.724176-30.536807-68.465318-68.465318-68.465318l-9.782806 0c-37.724176 0-68.465318 30.541529-68.465318 68.465318l0 185.640591c0 37.724176 30.541529 68.465318 68.465318 68.465318l9.782806 0c37.728897 0 68.465318-30.541529 68.465318-68.465318l0-185.640591z"  horiz-adv-x="1024" />

    
    <glyph glyph-name="suo2" unicode="&#58976;" d="M546.42476 745.795358c-35.622207 21.053931-77.484758 33.035139-122.563197 33.035139-134.10275 0-239.011124-105.100054-239.011124-242.539326l-85.808176 0c0 164.992154 145.57545 328.155821 324.628113 328.155821 66.828365 0 128.995467-22.757864 180.693417-59.829687-22.004019-16.771762-41.550237-36.567781-57.93854-58.8217z m-41.487824-264.610199l-419.32118 0c-47.224174 0-85.616249-38.392075-85.616249-85.553836l0-406.522753c0-47.15732 38.392075-85.553836 85.616249-85.553836l685.692766 0c47.224174 0 85.616249 38.396762 85.616249 85.553836l0 304.831008c-24.524259-6.744386-50.310795-10.339615-76.913664-10.339615-127.857967 0-236.428496 82.779281-275.074911 197.585713z m-8.573219-403.431691c0-35.434721-28.685943-64.245737-64.30815-64.245737l-9.139725 0c-35.434721 0-64.245737 28.62353-64.245737 64.245737l0 174.19898c0 35.367867 28.62353 64.241296 64.245737 64.241296l9.139725 0c35.434721 0 64.30815-28.685943 64.30815-64.241296l0-174.19898z m283.647489 739.977537c134.72713 0 243.98914-109.261763 243.98914-243.99358 0-134.72713-109.261763-243.98914-243.98914-243.98914-134.731817 0-243.99358 109.261763-243.99358 243.98914 0 134.731817 109.261763 243.99358 243.99358 243.99358z m-150.116326-213.162149c0 0 0.062448 0 0.124896 0l86.374583 0.883195c9.269066 0.062448 16.709324 7.690034 16.646861 17.021563-0.129357 9.269066-7.061091 16.51752-16.9591 16.51752l-44.953613-0.312239c23.137006 39.841889 65.503624 64.557803 111.781977 64.557803 71.431654 0 129.432607-58.067807 129.432607-129.499461 0-9.264626 7.502696-16.829759 16.771762-16.829759 9.269066 0 16.896662 7.565134 16.896662 16.829759 0 89.844812-73.197975 163.101007-163.101007 163.101007-55.610006 0-106.674694-28.369189-136.560552-74.580936l-0.504045 45.582679c-0.124896 9.264626-7.627596 16.642421-16.771762 16.642421-0.062448 0-0.187344 0-0.187344 0-9.206628-0.062448-16.709324-7.627596-16.642421-16.9591 0 0 0.945643-86.245316 0.945643-86.31217 0.062448-9.139725 7.627596-16.642421 16.704859-16.642421l0 0z m317.123715-78.367918c-0.249791 9.835572-8.006739 15.763676-17.021563 16.646861l-86.374583-0.820747c-9.269066-0.124896-16.771762-7.690034-16.642421-17.021563 0.124896-9.269066 7.627596-16.709324 16.829759-16.709324 0.066909 0 0.129357 0 0.129357 0l44.949172 0.504045c-23.137006-39.84633-65.503624-64.557803-111.781977-64.557803-71.431654 0-129.495021 58.063366-129.495021 129.495021 0 9.269066-7.440233 16.834224-16.771762 16.834224-9.331529 0-16.834224-7.565134-16.834224-16.834224 0-89.965445 73.197975-163.101007 163.101007-163.101007 55.610006 0 106.679135 28.43629 136.622965 74.585376l0.441598-45.645093c0.124896-9.206628 7.627596-16.646861 16.771762-16.646861 0.062448 0 0.062448 0 0.187344 0 9.393967 0.066909 16.709324 7.694499 16.646861 17.026028 0 0-0.758297 86.245316-0.758297 86.245316l0 0z"  horiz-adv-x="1024" />

    
    <glyph glyph-name="user2" unicode="&#59074;" d="M711.602525 508.208906l215.391628 0c16.918321 0 29.658484-8.594749 29.658484-26.744107 0-18.154475-14.712073-26.749224-31.629371-26.749224L711.602525 454.715575c-16.925485 0-30.656207 8.594749-30.656207 26.749224C680.946318 499.615181 694.677041 508.208906 711.602525 508.208906zM956.088796 358.900346c0-18.151405-12.748349-26.752294-29.661553-26.752294L757.275751 332.148052c-16.925485 0-30.65723 8.597819-30.65723 26.752294 0 18.149359 13.731746 26.743084 30.65723 26.743084l170.132842 0C944.324868 385.64343 956.088796 377.049704 956.088796 358.900346zM800.847106 81.61404200000004c0-39.784098-32.308847-64.12446-72.02643-64.12446L466.867592 17.48958200000004l-84.297918 0-245.941412 0c-39.711444 0-72.024383 24.337291-72.024383 64.12446l0 17.287735c0 36.45426 26.839275 68.769246 61.099566 81.065294l146.643871 65.364707c0 0 39.749306 12.218276 50.631144 24.411993 7.239891 8.121981 9.473769 34.901905 0.296759 52.481282-9.174963 17.577331-83.47825 114.289999-83.47825 195.409528 0 130.822534 85.99149 236.876965 192.06127 236.876965 106.073874 0 192.058201-106.054431 192.058201-236.876965 0-84.695984-83.380012-177.934528-90.234117-200.878077-6.859221-22.943548-7.41283-40.902572 0.333598-48.523133 12.050454-11.843746 43.062771-23.88806 43.062771-23.88806l162.670893-63.391772c34.262338-12.301164 61.10059-45.601594 61.10059-82.055854L800.847106 81.61404200000004 800.847106 81.61404200000004zM926.918429 216.700693L813.853327 216.700693c-16.921391 0-30.653137 8.594749-30.653137 26.752294 0 18.147312 13.731746 26.743084 30.653137 26.743084l114.049522 0c16.921391 0 29.647227-8.594749 29.647227-26.743084C957.549054 225.29851199999996 943.837774 216.700693 926.918429 216.700693z"  horiz-adv-x="1024" />

    
    <glyph glyph-name="wendang2" unicode="&#58904;" d="M959.358976 41.774080000000026c0-12.484608-2.132992-24.1408-6.404096-34.980864-4.271104-10.83904-10.346496-20.363264-18.2272-28.575744-7.883776-8.214528-17.084416-14.618624-27.594752-19.213312-10.50624-4.599808-22.003712-6.897664-34.48832-6.897664L157.264896-47.89350400000001c-12.479488 0-24.305664 2.297856-35.474432 6.897664-11.164672 4.594688-21.0176 10.998784-29.558784 19.213312-8.542208 8.213504-15.276032 17.737728-20.199424 28.575744-4.929536 10.840064-7.391232 22.49728-7.391232 34.980864L64.641024 533.477376c0 24.958976 8.700928 46.144512 26.109952 63.553536 17.409024 17.408 38.59456 26.115072 63.558656 26.115072l715.380736 0c24.964096 0 46.149632-8.707072 63.558656-26.115072 17.409024-17.409024 26.109952-38.59456 26.109952-63.553536l0-134.013952L735.680512 399.463424c-24.964096 0-46.149632-8.538112-63.558656-25.617408-17.409024-17.08032-26.109952-38.100992-26.109952-63.065088 0.658432-17.079296 4.271104-32.190464 10.840064-45.328384 5.25312-11.168768 13.959168-21.3504 26.109952-30.544896 12.15488-9.19552 29.728768-13.795328 52.718592-13.795328l223.678464 0L959.358976 41.774080000000026 959.358976 41.774080000000026zM825.34912 668.473344L377.988096 668.473344c35.474432 18.390016 68.97664 36.127744 100.507648 53.20704 27.590656 14.45376 54.856704 28.906496 81.789952 43.359232 26.932224 14.44864 47.95392 25.617408 63.064064 33.502208 22.990848 12.479488 43.518976 18.230272 61.586432 17.24416 18.061312-0.986112 33.33632-4.10624 45.815808-9.35936 14.45376-7.226368 26.937344-16.750592 37.448704-28.577792L825.34912 668.473344zM691.340288 310.780928c0 12.479488 4.27008 22.989824 12.808192 31.533056 8.543232 8.538112 19.053568 12.808192 31.533056 12.808192 12.479488 0 22.989824-4.27008 31.533056-12.808192 8.538112-8.542208 12.808192-19.053568 12.808192-31.533056s-4.27008-23.154688-12.808192-32.0256c-8.543232-8.865792-19.053568-13.302784-31.533056-13.302784-12.479488 0-22.989824 4.435968-31.533056 13.302784C695.610368 287.62624000000005 691.340288 298.30143999999996 691.340288 310.780928L691.340288 310.780928zM691.340288 310.780928"  horiz-adv-x="1024" />

    
    <glyph glyph-name="user1" unicode="&#58894;" d="M66.83136 67.51232000000005v31.79008c0 52.6592 42.69056 95.36 95.34976 95.36h699.28448c52.66944 0 95.36512-42.7008 95.36512-95.36v-31.79008H66.83136z m317.8496 190.72H257.536v63.56992h173.35296a124.69248 124.69248 0 0 1 17.36704 63.57504c0 46.93504-25.73312 87.48544-63.57504 109.50656v3.55328c-38.73792 34.91328-63.5648 84.95616-63.5648 141.21984 0 105.33888 85.38112 190.72 190.70976 190.72 105.33376 0 190.72-85.38112 190.72-190.72 0-56.26368-24.82176-106.30656-63.57504-141.21984v-3.55328c-37.8368-22.02112-63.5648-62.57152-63.5648-109.50656 0-23.26528 6.37952-44.928 17.37216-63.57504h173.34272v-63.56992h-381.44z m413.21984-317.86496H225.75616c-41.46176 0-76.38528 26.624-89.51808 63.58016h751.1808c-13.13792-36.95616-48.05632-63.58016-89.51808-63.58016z"  horiz-adv-x="1024" />

    
    <glyph glyph-name="gongzuo6" unicode="&#58999;" d="M366.08 536.576c-9.728 75.264-10.752 144.896-0.512 207.36 136.192 92.672 200.704-16.384 304.64 0 8.192-65.024 5.12-152.576-4.608-204.288-6.144-34.304-20.48-65.024-40.448-89.6-28.16-34.304-66.56-55.808-109.568-55.808-43.008 0-81.92 21.504-109.568 55.808-19.456 23.552-33.28 53.248-39.936 86.528z m-68.608-588.8h449.536l-26.624-38.912H319.488l-22.016 38.912z m473.6 334.848l49.664-188.416c17.408-66.048 9.216-113.152-67.072-113.152h-16.896v259.072h-201.728l57.856 133.12 20.992 16.384 113.664-28.16 5.632-1.536 3.584-4.608c16.896-22.016 27.648-46.592 33.28-73.216l1.024 0.512z m-460.288-301.568h-30.72c-75.776 0-83.968 47.104-67.072 113.152l49.664 188.416c6.656 31.232 20.992 55.808 41.472 74.752l3.072 2.56 4.096 1.024L420.864 389.12l21.504-16.384 62.976-133.12h-194.56v-258.56z"  horiz-adv-x="1024" />

    
    <glyph glyph-name="gongzuo5" unicode="&#58882;" d="M984.354386 2.3088000000000193H693.797795c-26.350033 0-52.665747 2.797834-52.665747 29.276108V172.30927299999996h250.511802c16.395054 0 29.829714 20.55839 29.829715 45.671162 0 25.177796-13.43466 45.769601-29.829715 45.769601H641.132048v75.046613H653.851446h237.791501c16.395054 0 29.829714 20.574646 29.829715 45.737089 0 25.146187-13.43466 45.704577-29.829715 45.704577H641.132048v92.270721h250.511802c16.395054 0 29.829714 20.559293 29.829715 45.753346 0 25.112772-13.43466 45.704577-29.829715 45.704577H641.132048V736.017724c0 26.544201 21.50214 48.273924 47.721221 48.273924h284.049686c26.284106 0 47.753733-21.729723 47.753733-48.273924v-704.432816c0-26.479177-10.084123-29.276108-36.302302-29.276108z m-458.963075-107.99928L52.408361-9.011679999999956c-25.747658 5.204621-46.859655 31.261143-46.923776 57.837856L3.564574 728.746787c-0.097536 26.545104 20.981948 52.161812 46.859655 56.992546l474.837034 88.431602c25.796426 4.830734 59.497772-9.840284 59.497773-36.400741V-70.36353699999995c-0.000903-26.544201-33.604713-40.629101-59.367725-35.326943zM247.797957 449.202716c-19.030328 25.617611-45.298178 38.434544-78.738525 38.434544-33.537883 0-59.805733-12.816933-78.803549-38.434544-17.142829-22.933569-25.715146-51.754509-25.715146-86.448372 0-34.627936 8.571414-63.513901 25.715146-86.415861 18.997816-25.893059 45.265666-38.84004 78.803549-38.840041 33.440347 0 59.708197 12.946981 78.738525 38.840041 17.142829 22.901057 25.731402 51.787924 25.731403 86.415861 0 34.69296-8.58767 63.514804-25.731403 86.448372z m213.05352-80.218722h-2.081668v1.089151h1.610245l-47.44487 115.529409h-34.823008l-100.109714-244.883622h37.978474l27.276623 67.206717h104.925095l27.309135-67.206717h37.99473l-52.635042 128.265062z m-65.302961 66.2142l38.384873-93.669638h-76.395859l38.010986 93.669638zM169.059432 271.91505099999995c-22.445889 0-39.751278 9.759004-51.835789 29.211988-10.86441 16.557614-16.281262 37.084395-16.281262 61.627305 0 24.803909 5.302157 45.346946 15.825192 61.66072 12.18295 18.915633 29.553363 28.398286 52.291859 28.398285 22.673473 0 40.109812-9.482652 52.226836-28.398285 10.279195-16.313774 15.451304-36.856811 15.451305-61.66072 0-24.803909-5.30306-45.492346-15.858607-62.018352-12.11612-19.191985-29.422412-28.820941-51.819534-28.820941z"  horiz-adv-x="1024" />

    
    <glyph glyph-name="tool34" unicode="&#58939;" d="M597.333333-128H56.888889c-31.288889 0-56.888889 25.6-56.888889 56.888889V839.111111C0 870.4 25.6 896 56.888889 896h625.777778c48.355556 0 85.333333-36.977778 85.333333-85.333333s-36.977778-85.333333-85.333333-85.333334H227.555556c-31.288889 0-56.888889-25.6-56.888889-56.888889v-568.888888c0-31.288889 25.6-56.888889 56.888889-56.888889h455.111111c48.355556 0 85.333333-36.977778 85.333333-85.333334s-36.977778-85.333333-85.333333-85.333333h-85.333334zM230.4 611.555556H483.555556v-56.888889H230.4v56.888889z m0-113.777778H483.555556v-56.888889H230.4v56.888889z m0-113.777778H483.555556v-227.555556H230.4v227.555556zM1001.244444 435.2L853.333333 568.8888890000001c-19.911111 19.911111-54.044444 17.066667-71.111111-2.844445-19.911111-19.911111-17.066667-51.2 2.844445-71.111111l71.111111-62.577777h-261.688889c-28.444444 0-51.2-22.755556-51.2-48.355556 0-28.444444 22.755556-48.355556 51.2-48.355556H853.333333L785.066667 270.222222c-19.911111-19.911111-22.755556-51.2-2.844445-71.111111 11.377778-11.377778 22.755556-17.066667 36.977778-17.066667 11.377778 0 25.6 5.688889 34.133333 14.222223l147.911111 133.688889c14.222222 14.222222 22.755556 31.288889 22.755556 51.2 0 22.755556-8.533333 39.822222-22.755556 54.044444z"  horiz-adv-x="1024" />

    
    <glyph glyph-name="tongxunlu1" unicode="&#58944;" d="M838.4 832H172.8c-32 0-64-32-64-64v-140.8h121.6v-89.6H108.8v-115.2h121.6v-89.6H108.8v-115.2h121.6V128H108.8v-128c0-32 32-64 64-64h665.6c32 0 64 32 64 64V768c0 32-32 64-64 64zM576 595.2c51.2 0 96-44.8 96-96s-44.8-96-96-96-96 44.8-96 96 38.4 96 96 96z m-224-448c0 128 96 224 224 224s224-102.4 224-224H352z"  horiz-adv-x="1024" />

    
    <glyph glyph-name="kehu2" unicode="&#58883;" d="M510.86154 67.92040999999995c2.704592-13.100619 7.277086-26.831422 13.517633-41.801275 6.445723-14.972517 15.596039-30.159537 27.450947-45.338562 12.064081-15.386866 27.450947-30.568556 46.164595-45.54507 19.134658-14.971185 42.428794-28.903167 70.503262-41.794613-18.92815-4.78966-40.556896-8.526794-65.094077-11.235384-21.209068-2.701928-46.792114-4.990839-77.36067-7.069245-30.36338-2.082403-65.713602-3.122938-105.540392-3.122938-20.38037 0-43.67184 0.623522-69.875743 1.869233-26.305159 1.456217-53.653518 3.537287-82.039749 6.244544-28.390227 2.909768-56.362108 5.818205-84.123483 9.144987a2364.876978 2364.876978 0 0 0-76.114959 10.401356c-23.18755 3.328114-42.631305 6.862737-58.333929 10.6052-15.802547 3.74646-25.785558 7.278418-30.048954 10.6052-6.966657 5.410517-12.375842 22.254932-16.220893 50.120228-3.85038 27.869293-2.290244 63.426024 4.781666 107.104525 4.159477 25.162036 14.662089 44.083524 31.503839 56.982965 16.848412 12.896776 36.289502 23.288806 58.333929 31.197407 22.043095 7.899275 45.129389 14.969853 69.360139 21.416909 24.120168 6.447056 45.646326 15.594707 64.570479 27.032601 14.766009 8.941143 25.996063 17.258764 33.690162 25.576385 7.692767 8.11511 13.101952 16.22489 16.324813 24.542511 3.117609 8.10978 4.68041 16.636574 4.680411 25.368544 0 8.739964-0.311761 18.300631-1.041868 28.701988-1.453552 16.219561-6.85874 28.700655-16.324813 37.641798-9.462077 8.942475-20.171197 18.091459-32.023441 27.662784-5.615693 4.572493-10.502612 11.227389-14.766008 19.754184-4.159477 8.524129-8.007192 17.258764-11.541815 25.99473a3790.511621 3790.511621 0 0 0-10.502612 31.610424c-4.885586 1.249708-9.772505 3.74646-14.662089 7.073242-4.260732 3.53329-8.630714 8.316289-13.20454 14.350328-4.575158 6.133962-8.522797 14.972517-12.062748 26.514332-3.432035 11.541815-4.679078 21.939174-3.638543 31.194742 1.039203 9.150316 2.913765 17.469269 5.718281 24.952863 2.80718 8.213701 7.073242 15.596039 12.684938 22.460108 0 25.785558 1.352296 51.676368 4.159477 77.465923 2.805848 21.839251 7.694099 45.128057 14.662088 69.874412 7.070577 24.85294 17.88495 47.103875 32.65096 66.864719 13.309792 18.403219 27.971881 33.480989 44.087521 45.437153 16.119637 11.854908 32.650959 21.214397 49.495374 27.971881 16.740495 6.864069 33.79275 11.54448 50.950258 14.350328C388.788494 892.802452 405.009387 894.156081 420.504171 894.156081c20.275117 0 39.826789-2.390167 58.333928-7.177162 18.50714-4.781666 35.560728-10.915629 51.364608-18.297967 15.805212-7.487591 29.949031-16.014385 42.635301-25.473797 12.684938-9.571326 22.670613-19.131994 30.567224-28.596735 17.469269-21.837919 30.569888-45.752911 39.511031-71.958147 8.737299-26.202571 14.768674-50.843673 18.297967-73.927303 3.328114-27.244439 4.78966-54.38096 4.166138-81.628064 4.988174-3.428038 8.73197-7.798019 11.643071-13.205872 2.699263-4.784331 4.990839-10.915629 6.654896-18.403219 1.866568-7.486259 2.079738-16.636574 0.62219-27.554868-1.458881-14.972517-4.364653-26.72617-8.941143-35.149043-4.577822-8.525462-9.568662-15.183022-15.392195-19.962024-6.23655-5.409185-12.891447-9.148983-19.963357-11.231386-3.326782-10.814373-6.861404-21.420905-10.401356-31.610424-3.530626-8.737299-7.480929-17.467937-11.645735-25.994731-4.154147-8.526794-9.142322-15.183022-14.555504-19.754183-6.23655-5.621022-11.227389-10.819702-14.763344-15.810541-3.534623-5.194683-6.445723-10.397359-8.524129-15.799883-2.082403-5.618358-4.159477-11.645735-6.654896-17.887615-2.49542-6.653564-6.240547-13.517633-11.231387-21.005223-16.014385-24.537182-28.700655-47.619479-37.850971-69.25089-8.941143-22.047091-15.389531-42.843142-18.716312-62.807831-3.531958-19.964689-4.575158-39.515028-3.328115-58.230009 1.461546-18.708319 4.163474-37.220788 8.529459-55.518754z m496.405959-128.313593c9.981678-11.645735 15.39486-21.209068 16.223558-29.528021 1.249708-8.113777-2.077074-16.014385-9.979014-23.501975-4.159477-4.781666-9.572658-7.282415-16.226222-7.6941-6.652232-0.206508-13.724141 0.831362-21.001227 3.743796-7.282415 2.701928-14.350328 6.02871-21.006556 9.981678-6.654896 4.163474-12.477098 8.316289-17.467937 12.479762l-73.413031 65.300586c-19.755516-11.645735-40.552899-19.963356-62.591996-24.954195-22.047091-5.19868-44.094183-7.069245-66.135945-5.823534-22.041762 1.454884-43.669176 6.654896-64.6744 15.805212-21.009221 9.150316-39.932042 22.457443-56.775124 39.515028-19.551672 18.922821-34.315016 40.339729-44.088854 64.466559-9.981678 24.122833-14.763344 49.079693-14.763344 74.033888 0 25.369876 4.781666 49.911055 14.763344 74.032556 9.773838 24.122833 24.537182 45.754243 44.088854 64.883572 18.922821 18.922821 40.760739 33.277146 65.297921 42.837813 24.333338 9.355492 49.288866 14.145152 74.453566 14.145152 25.368544 0 50.120228-4.78966 74.65741-14.145152 24.542511-9.564665 46.584273-23.914992 66.343786-42.837813 16.636574-17.056252 29.949031-36.182917 39.301859-57.189473 9.358156-21.005224 15.183022-42.632637 16.848411-64.260051 1.664057-21.837919 0-43.67184-5.411849-65.30325-4.988174-21.833922-13.724141-42.006451-25.782893-60.308415l40.133221-38.678336c10.400024-10.189519 20.173861-19.963356 29.324177-29.119001 9.150316-9.146319 14.972517-14.973849 17.882285-17.882286z m-251.219333 76.53064c16.432731 0 32.02877 3.117609 46.379097 9.148983 14.350328 6.24188 27.032601 14.560833 37.643131 25.369877 10.809044 10.609197 19.339834 23.086294 25.577717 37.437954 6.445723 14.555504 9.564665 29.949031 9.564665 46.375101 0 16.428734-3.118941 31.823594-9.564665 45.956754-6.24188 13.937311-14.768674 26.205236-25.577717 37.019609-10.610529 10.813041-23.288806 19.131994-37.643131 25.373873-14.350328 6.026045-29.946367 9.144986-46.379097 9.144987-16.219561 0-31.614421-3.118941-46.165927-9.144987-14.554171-6.24188-27.036598-14.560833-37.845642-25.373873-10.817037-10.814373-19.134658-23.082298-25.373873-37.019609-6.445723-14.133161-9.564665-29.528021-9.564665-45.956754 0-16.427401 3.118941-31.819597 9.564665-46.375101 6.239215-14.350328 14.556836-26.828758 25.373873-37.437954 10.809044-10.809044 23.29147-19.127997 37.845642-25.369877 14.555504-6.031374 29.950364-9.148983 46.165927-9.148983z"  horiz-adv-x="1024" />

    
    <glyph glyph-name="shangye2" unicode="&#59329;" d="M530.022 296.25V-128h424.011V296.25H530.022zM0-128h424.012V296.25H0V-128zM0 826.5v-424.25h424.012V826.5H0zM724.021 896l-300.01-299.625 300.01-300.125L1024 596.375 724.021 896z"  horiz-adv-x="1024" />

    
    <glyph glyph-name="tool32" unicode="&#58996;" d="M725.312 287.23199999999997V462.848c0 74.112-326.784-24.192-384-263.424 0 0-75.584-88-85.312 0 0 0 109.696 482.944 469.312 482.944V814.08s42.688 61.824 128-43.968L1024 594.56l-298.688-307.328zM128 462.848a43.392 43.392 0 0 1-42.688-43.968v-351.232c0-24.256 19.072-43.904 42.688-43.904h725.312a43.328 43.328 0 0 1 42.688 43.904v43.904c0 24.256 19.072 43.968 42.688 43.968 23.616 0 42.688-19.712 42.688-43.968v-87.808C981.312-24.76800000000003 943.104-64 896-64H85.312C38.208-64 0-24.76800000000003 0 23.744000000000028V462.848c0 48.512 38.208 87.808 85.312 87.808H128c23.552 0 42.688-19.648 42.688-43.904A43.328 43.328 0 0 0 128 462.848z"  horiz-adv-x="1024" />

    
    <glyph glyph-name="kehu4" unicode="&#58995;" d="M433.001412 419.207529c71.393882 28.687059 121.991529 98.499765 121.991529 180.028236 0 107.008-87.055059 194.063059-194.048 194.063059s-194.063059-87.070118-194.063059-194.063059c0-81.528471 50.612706-151.341176 122.006589-180.028236C129.686588 385.867294 9.758118 244.43482400000005 9.758118 75.48988199999997c0-41.321412 28.912941-54.964706 52.163764-65.942588l1.355294-0.572235c93.500235-33.008941 228.743529-41.818353 293.903059-41.818353 71.077647 0 210.176 11.52 302.592 43.444706 34.725647 13.327059 52.344471 35.162353 52.344471 64.873412 0.015059 168.96-119.928471 310.392471-279.115294 343.732705zM971.550118 785.5736469999999H699.301647c-31.969882 0-41.728-33.927529-41.728-63.533176v-57.675295c0-20.284235-11.881412-43.730824-16.444235-50.341647-3.343059-4.803765-28.024471-24.003765-46.667294-38.881882-4.502588-3.599059-7.695059-9.487059-6.204236-15.058823 1.475765-5.541647 5.466353-9.712941 11.158589-10.586353 16.097882-2.484706 34.575059-5.857882 45.101176-8.282353 0.165647-32.993882 31.322353-32.993882 43.113412-32.993883l281.344 0.090353c31.051294 0 50.010353 20.720941 50.010353 50.386824V722.025412c0 29.741176-15.902118 63.548235-47.435294 63.548235z m-118.211765-210.823529h-120.470588c-8.282353 0-15.058824 6.776471-15.058824 15.058823s6.776471 15.058824 15.058824 15.058824h120.470588c8.282353 0 15.058824-6.776471 15.058823-15.058824s-6.791529-15.058824-15.058823-15.058823z m60.235294 60.235294h-180.705882c-8.282353 0-15.058824 6.776471-15.058824 15.058823s6.776471 15.058824 15.058824 15.058824h180.705882c8.282353 0 15.058824-6.776471 15.058824-15.058824s-6.791529-15.058824-15.058824-15.058823z m45.176471 60.235294h-225.882353c-8.282353 0-15.058824 6.776471-15.058824 15.058823s6.776471 15.058824 15.058824 15.058824h225.882353c8.282353 0 15.058824-6.776471 15.058823-15.058824s-6.791529-15.058824-15.058823-15.058823z"  horiz-adv-x="1024" />

    
    <glyph glyph-name="caiwu1" unicode="&#58938;" d="M849.984 336.256a27.328 27.328 0 0 0-9.28 19.264V378.88a20.096 20.096 0 0 1-20.48 19.456h-40.96a20.096 20.096 0 0 1-20.608-19.456v-23.36a28.352 28.352 0 0 0-19.584-25.216l-34.304-13.44a30.528 30.528 0 0 0-32.512 4.608l-17.536 16.512a21.312 21.312 0 0 1-28.992 0l-28.992-27.52a18.752 18.752 0 0 1 0-27.52l17.408-16.576c8-7.552 10.24-21.504 4.8-30.912l-14.08-32.64a29.568 29.568 0 0 0-26.624-18.56h-24.576a20.096 20.096 0 0 1-20.544-19.456v-38.912c0-10.688 9.216-19.456 20.48-19.456h24.64c11.328 0 23.232-8.384 26.56-18.56l6.208-14.336c-53.76-23.424-113.28-36.48-175.808-36.48-240.384 0-435.2 192.256-435.2 429.44C0 703.744 194.816 896 435.2 896s435.2-192.256 435.2-429.44c0-45.44-7.168-89.216-20.416-130.304z m-241.92 157.312a31.872 31.872 0 1 1 0 63.68H525.184l82.56 82.304a31.744 31.744 0 0 1 0 45.056 32.192 32.192 0 0 1-45.184 0L445.312 567.744 328 684.608a32.192 32.192 0 0 1-45.248 0 31.744 31.744 0 0 1 0-45.056l82.624-82.304H288.064a31.872 31.872 0 0 1 0-63.616H416v-63.744h-128a31.872 31.872 0 1 1 0-63.68h128v-74.24c0-17.664 14.272-31.872 32-31.872 17.664 0 32 14.208 32 31.872v74.24h128a31.872 31.872 0 0 1 0 63.744h-128v63.616h128zM999.872 164.15999999999997c8.576 0 15.616-6.656 15.616-14.784v-29.696c0-8.192-7.04-14.848-15.616-14.848h-18.752c-8.576 0-17.728-6.4-20.288-14.08l-10.752-24.896a20.48 20.48 0 0 1 3.648-23.552l13.312-12.608a14.336 14.336 0 0 0 0-20.992l-22.144-20.992a16.32 16.32 0 0 0-22.08 0l-13.248 12.608a23.36 23.36 0 0 1-24.832 3.456l-26.24-10.24a21.696 21.696 0 0 1-14.848-19.2v-17.728a15.36 15.36 0 0 0-15.616-14.848h-31.232a15.296 15.296 0 0 0-15.68 14.848v17.728a21.632 21.632 0 0 1-14.912 19.2l-26.24 10.24a23.232 23.232 0 0 1-24.768-3.456l-13.248-12.608a16.256 16.256 0 0 0-22.08 0l-22.144 20.992a14.4 14.4 0 0 0 0 20.992l13.248 12.608a20.48 20.48 0 0 1 3.712 23.552l-10.816 24.832a22.528 22.528 0 0 1-20.224 14.144h-18.752a15.36 15.36 0 0 0-15.616 14.848v29.696c0 8.128 7.04 14.784 15.616 14.784h18.752c8.64 0 17.728 6.4 20.288 14.144l10.752 24.896a20.352 20.352 0 0 1-3.712 23.552l-13.248 12.608a14.336 14.336 0 0 0 0 20.992l22.144 20.928c6.016 5.76 16 5.76 22.08 0l13.312-12.608c6.08-5.76 17.216-7.36 24.768-3.456l26.176 10.24a21.568 21.568 0 0 1 14.912 19.2v17.792a15.36 15.36 0 0 0 15.68 14.784h31.232a15.36 15.36 0 0 0 15.616-14.784v-17.792c0-8.192 6.72-16.832 14.912-19.2l26.112-10.24c7.616-3.84 18.752-2.304 24.832 3.456l13.312 12.608c6.08 5.76 16 5.76 22.08 0l22.144-20.928a14.336 14.336 0 0 0 0-21.056l-13.312-12.544a20.416 20.416 0 0 1-3.648-23.552l10.752-24.896c2.56-7.744 11.648-14.08 20.288-14.08h18.752z m-187.456-103.744c43.136 0 78.08 33.152 78.08 74.112 0 40.96-34.944 74.176-78.08 74.176-43.136 0-78.08-33.28-78.08-74.176 0-40.96 34.944-74.112 78.08-74.112z"  horiz-adv-x="1024" />

    
    <glyph glyph-name="bangong2" unicode="&#59117;" d="M332.672 557.141333a42.474667 42.474667 0 0 0 40.192-1.152l271.274667-156.629333 161.941333 147.946667a40.384 40.384 0 0 0 58.816-3.989334c15.146667-18.048 13.482667-45.44-3.968-61.376l-177.344-162.026666a41.365333 41.365333 0 0 0-15.914667-9.130667 42.517333 42.517333 0 0 0-41.536 0.448L355.968 467.2l-117.866667-131.114667a39.850667 39.850667 0 0 0-58.602666-1.450666c-16.64 16.661333-17.408 44.373333-1.749334 61.802666l133.013334 147.946667a40.512 40.512 0 0 0 21.909333 12.757333zM470.613333 64H469.333333v42.666667H64.064A63.914667 63.914667 0 0 0 0 170.688V746.666667A63.893333 63.893333 0 0 0 64.064 810.666667H469.333333V853.376C469.333333 876.928 488.277333 896 512 896c23.573333 0 42.666667-19.157333 42.666667-42.624V810.666667h405.269333A63.914667 63.914667 0 0 0 1024 746.6453329999999V170.66666699999996A63.893333 63.893333 0 0 0 959.936 106.66666699999996H554.666667v-36.650667c1.472-0.981333 2.901333-2.069333 4.266666-3.264l182.144-118.464c17.856-15.509333 19.754667-42.496 4.309334-60.266667-15.573333-17.92-42.453333-19.626667-60.288-4.138666l-168.192 109.376-173.077334-108.437334a42.624 42.624 0 0 0-60.202666 5.184 42.709333 42.709333 0 0 0 5.333333 60.181334L470.656 64zM85.333333 682.581333v-447.829333C85.333333 210.986667 104.405333 192 127.936 192h768.128A42.645333 42.645333 0 0 1 938.666667 234.75199999999995V682.581333A42.581333 42.581333 0 0 1 896.064 725.333333H127.936A42.645333 42.645333 0 0 1 85.333333 682.581333z"  horiz-adv-x="1024" />

    
    <glyph glyph-name="bangong3" unicode="&#58989;" d="M923.52 830.592H100.544c-37.888 0-68.544-30.72-68.544-68.608v-584.64c0-37.888 30.656-68.48 68.544-68.48h342.848v-102.848H272a34.24 34.24 0 0 1-34.24-34.24v-34.24h548.48v34.24a34.176 34.176 0 0 1-34.24 34.24h-171.456V108.79999999999995h342.784c37.888 0 68.608 30.656 68.608 68.48V761.92a68.48 68.48 0 0 1-68.416 68.672zM512 143.03999999999996a34.24 34.24 0 1 0 0 68.48 34.24 34.24 0 0 0 0-68.48z m384 102.272H128V737.344h768v-492.032z"  horiz-adv-x="1024" />

    
    <glyph glyph-name="wendang1" unicode="&#58936;" d="M601.569 831.845H243.293c-49.263 0-89.121-40.306-89.121-89.569l-0.448-716.552c0-49.263 39.858-89.569 89.121-89.569h537.862c49.263 0 89.569 40.306 89.569 89.569V563.1379999999999L601.569 831.845z m89.569-716.552H332.862v89.569h358.276v-89.569z m0 179.138H332.862V384h358.276v-89.569zM556.784 518.3530000000001V764.668l246.315-246.315H556.784z"  horiz-adv-x="1024" />

    
    <glyph glyph-name="tool31" unicode="&#58940;" d="M960 704H537.6c-17.066667 0-34.133333 6.4-44.8 19.2l-68.266667 68.266667c-12.8 12.8-27.733333 19.2-44.8 19.2H64C27.733333 810.666667 0 782.933333 0 746.666667v-725.333334c0-36.266667 27.733333-64 64-64h896c36.266667 0 64 27.733333 64 64V640c0 36.266667-27.733333 64-64 64zM718.933333 313.6l-179.2-192c-8.533333-8.533333-19.2-12.8-32-12.8-10.666667 0-23.466667 4.266667-32 12.8l-179.2 192c-25.6 27.733333-6.4 70.4 32 70.4H426.666667v128c0 23.466667 19.2 42.666667 42.666666 42.666667h85.333334c23.466667 0 42.666667-19.2 42.666666-42.666667v-128h89.6c38.4 0 57.6-44.8 32-70.4z"  horiz-adv-x="1024" />

    
    <glyph glyph-name="tool30" unicode="&#58942;" d="M960-42.66666699999996H64c-36.266667 0-64 27.733333-64 64V746.666667c0 36.266667 27.733333 64 64 64h315.733333c17.066667 0 34.133333-6.4 44.8-19.2l68.266667-68.266667c12.8-12.8 27.733333-19.2 44.8-19.2H960c36.266667 0 64-27.733333 64-64v-618.666667c0-36.266667-27.733333-64-64-64zM539.733333 541.866667c-8.533333 8.533333-19.2 12.8-32 12.8-10.666667 0-23.466667-4.266667-32-12.8l-179.2-192c-25.6-27.733333-6.4-70.4 32-70.4H426.666667v-128c0-23.466667 19.2-42.666667 42.666666-42.666667h85.333334c23.466667 0 42.666667 19.2 42.666666 42.666667v128h89.6c36.266667 0 55.466667 44.8 32 70.4l-179.2 192z"  horiz-adv-x="1024" />

    
    <glyph glyph-name="kehu1" unicode="&#58991;" d="M593.92 265.671111s-34.133333 9.102222-43.235556 13.653333c-18.204444 11.377778-29.582222 34.133333-29.582222 56.888889 0 25.031111 20.48 45.511111 34.133334 61.44 34.133333 40.96 52.337778 95.573333 52.337777 157.013334 0 127.431111-91.022222 229.831111-202.524444 229.831111S202.524444 679.822222 202.524444 552.391111c0-61.44 20.48-116.053333 52.337778-157.013333 20.48-11.377778 34.133333-36.408889 34.133334-61.44 0-22.755556-11.377778-43.235556-29.582223-56.888889v-2.275556c-2.275556 0-4.551111-2.275556-4.551111-2.275555-11.377778-6.826667-22.755556-11.377778-36.408889-11.377778-86.471111-29.582222-159.288889-75.093333-202.524444-131.982222h2.275555c-11.377778-15.928889-15.928889-34.133333-15.928888-52.337778 0-54.613333 45.511111-100.124444 102.4-100.124444H705.422222c59.164444 0 104.675556 43.235556 104.675556 100.124444 0 22.755556-9.102222 43.235556-20.48 61.44-43.235556 56.888889-111.502222 100.124444-195.697778 127.431111zM1001.244444 165.546667c-38.684444 47.786667-97.848889 88.746667-172.942222 111.502222 0 0-29.582222 6.826667-38.684444 11.377778-15.928889 11.377778-25.031111 29.582222-25.031111 50.062222 0 22.755556 18.204444 40.96 29.582222 52.337778 29.582222 36.408889 47.786667 84.195556 47.786667 138.808889 0 111.502222-79.644444 204.8-179.768889 204.8-15.928889 0-31.857778-2.275556-45.511111-6.826667 34.133333-50.062222 52.337778-109.226667 52.337777-175.217778 0-70.542222-25.031111-138.808889-68.266666-195.697778l-4.551111-4.551111v-2.275555c-4.551111-4.551111-11.377778-11.377778-13.653334-18.204445 0-2.275556 0-2.275556 2.275556-2.275555 4.551111-2.275556 11.377778-4.551111 18.204444-4.551111h2.275556l9.102222-4.551112c93.297778-29.582222 172.942222-81.92 225.28-147.911111 22.755556-29.582222 36.408889-63.715556 36.408889-100.124444 0-20.48-4.551111-36.408889-11.377778-54.613333h65.991111c52.337778 0 93.297778 38.684444 93.297778 88.746666-2.275556 25.031111-9.102222 43.235556-22.755556 59.164445z m0 0"  horiz-adv-x="1024" />

    
    <glyph glyph-name="xitong4" unicode="&#58880;" d="M514.4 832.6c-1.2 0.1-2.4 0.2-3.6 0.2-1.3 0-2.5-0.1-3.7-0.2C262.2 830.1 64.4 631.2 63.5 386v-1.6c0-247.5 200.7-448.2 448.2-448.2s448.2 200.7 448.2 448.2c0 246.6-199.2 446.7-445.5 448.2z m28-320.3c48.3 2.1 95.1 9.9 139.8 22.6 10.6-37.7 17.2-77.1 19.5-117.7H542.4v95.1z m0 64.3V767.3c2-0.2 4.1-0.3 6.1-0.5 47.6-49 86.1-106.9 112.6-171-38-10.6-77.8-17.2-118.7-19.2z m-63.2 190.5V577c-39.7 2.6-78.3 9.4-115.2 20 27.3 63.8 66.3 121.4 114.5 170 0.2 0.1 0.5 0.1 0.7 0.1z m0-254.4v-95.5H321.4c2.5 41.2 9.6 81.2 20.8 119.4 43.9-13 89.7-21.1 137-23.9z m-222.1-95.5H129c5.8 68.3 29.5 131.6 66.3 185.1 27.4-16.9 56.2-31.7 86.3-44.2-13.4-45.1-21.8-92.2-24.5-140.9z m-0.2-63.2c2.4-50 10.8-98.3 24.5-144.4-29.8-12.4-58.3-27-85.5-43.8-37.7 54.2-61.7 118.6-67.1 188.2h128.1z m64.3 0h158v-99c-47.4-2.7-93.4-10.9-137.2-23.9-11.5 39.3-18.6 80.5-20.8 122.9z m158-163.4v-189c-1 0.1-2.1 0.2-3.1 0.3-47.3 48.3-85.7 105.4-112.6 168.5 37.1 10.8 75.8 17.6 115.7 20.2z m63.2-189.1V191.10000000000002c40-2 78.9-8.3 116.2-18.4-27.6-64.4-67.2-122.4-116.2-171.2 0.1 0 0 0 0 0z m0 253.9V354h159.1c-2.5-41.7-9.7-82.1-21-120.7-44.2 12.4-90.4 20-138.1 22.1zM765.7 354h128.9c-5.4-68.4-28.6-131.7-65.1-185.3-28 16.9-57.6 31.7-88.3 44 13.5 45.1 21.9 92.4 24.5 141.3z m0.2 63.2c-2.3 47.8-10.1 94.3-22.9 138.6 30.3 12.2 59.4 26.8 87 43.6 35.7-52.8 58.7-115 64.4-182.1H765.9z m23.4 232.7c-21.5-12.6-44-23.7-67.3-33.3-18.1 44.6-41.4 86.5-69.1 125.1 52-20.6 98.4-52.2 136.4-91.8z m-415.7 93c-28-38.3-51.7-80-70.3-124.3-23.1 9.8-45.4 21.1-66.7 33.8 38.2 39.3 84.9 70.4 137 90.5zM237.2 115.70000000000005c21 12.5 43 23.6 65.7 33.2 18.2-43.5 41.2-84.5 68.5-122.3-50.9 20.1-96.5 50.7-134.2 89.1z m409.9-90.8c29 39.1 53.4 81.8 72.4 127.3 23.9-9.7 47-21 69.1-33.9-39.2-40.9-87.5-73.1-141.5-93.4z"  horiz-adv-x="1024" />

    
    </font>
</defs>
</svg>
