<?xml version="1.0" standalone="no"?>
<!DOCTYPE svg PUBLIC "-//W3C//DTD SVG 1.1//EN" "http://www.w3.org/Graphics/SVG/1.1/DTD/svg11.dtd" >
<!--
2013-9-30: Created.
-->
<svg>
<metadata>
Created by iconfont
</metadata>
<defs>

<font id="iconfont" horiz-adv-x="1024" >
  <font-face
    font-family="iconfont"
    font-weight="500"
    font-stretch="normal"
    units-per-em="1024"
    ascent="896"
    descent="-128"
  />
    <missing-glyph />
    
    <glyph glyph-name="x" unicode="x" horiz-adv-x="1001"
d="M281 543q-27 -1 -53 -1h-83q-18 0 -36.5 -6t-32.5 -18.5t-23 -32t-9 -45.5v-76h912v41q0 16 -0.5 30t-0.5 18q0 13 -5 29t-17 29.5t-31.5 22.5t-49.5 9h-133v-97h-438v97zM955 310v-52q0 -23 0.5 -52t0.5 -58t-10.5 -47.5t-26 -30t-33 -16t-31.5 -4.5q-14 -1 -29.5 -0.5
t-29.5 0.5h-32l-45 128h-439l-44 -128h-29h-34q-20 0 -45 1q-25 0 -41 9.5t-25.5 23t-13.5 29.5t-4 30v167h911zM163 247q-12 0 -21 -8.5t-9 -21.5t9 -21.5t21 -8.5q13 0 22 8.5t9 21.5t-9 21.5t-22 8.5zM316 123q-8 -26 -14 -48q-5 -19 -10.5 -37t-7.5 -25t-3 -15t1 -14.5
t9.5 -10.5t21.5 -4h37h67h81h80h64h36q23 0 34 12t2 38q-5 13 -9.5 30.5t-9.5 34.5q-5 19 -11 39h-368zM336 498v228q0 11 2.5 23t10 21.5t20.5 15.5t34 6h188q31 0 51.5 -14.5t20.5 -52.5v-227h-327z" />
    

    
    <glyph glyph-name="select-d" unicode="&#58930;" d="M801.115578 682.064536L222.883398 682.064536c-16.955872 0-30.700474-13.744026-30.700474-30.699186L192.182924 114.088664c0-16.95516 13.744602-30.699186 30.700474-30.699186l578.23218 0c16.955872 0 30.700474 13.744026 30.700474 30.699186L831.816053 651.36535C831.816053 668.319487 818.071451 682.064536 801.115578 682.064536zM756.281629 188.23231399999997c0-16.187681-13.123429-29.310559-29.31179-29.310559L297.029137 158.92175499999996c-16.18836 0-29.31179 13.122879-29.31179 29.310559L267.717348 577.2217c0 16.187681 13.123429 29.311583 29.31179 29.311583L726.969839 606.533282c16.18836 0 29.31179-13.122879 29.31179-29.311583L756.281629 188.23231399999997z"  horiz-adv-x="1024" />

    
    <glyph glyph-name="phone4" unicode="&#58897;" d="M786.496 892.8L251.008 892.8c-25.088 0-45.44-20.352-45.44-45.504l0-55.424 0-21.76 0-715.136 0-50.624 0-83.648c0-25.152 20.352-45.504 45.44-45.504l78.016 0L496.64-124.79999999999995l44.288 0 167.552 0 78.016 0c25.152 0 45.504 20.352 45.504 45.504l0 107.008 0 27.264L832 770.112 832 815.296l0 32C832 872.448 811.648 892.8 786.496 892.8zM579.776 837.632c8.128 7.936 22.144 7.936 30.336 0C614.016 833.472 616.192 828.16 616.192 822.528c0-5.568-2.176-11.008-6.208-14.912C606.016 803.5840000000001 600.512 801.28 595.008 801.28c-5.696 0-11.328 2.304-15.232 6.144-3.84 4.032-6.144 9.536-6.144 15.104C573.632 828.16 575.936 833.664 579.776 837.632zM456.576 843.776l59.008 0c11.776 0 21.312-9.472 21.312-21.312 0-11.712-9.536-21.312-21.312-21.312L456.576 801.152c-11.712 0-21.248 9.6-21.248 21.312C435.328 834.304 444.864 843.776 456.576 843.776zM518.72-82.048c-27.2 0-49.216 22.08-49.216 49.344s22.016 49.344 49.216 49.344c27.264 0 49.28-22.08 49.28-49.344S545.984-82.048 518.72-82.048zM786.688 54.847999999999956L250.88 54.847999999999956 250.88 753.088l535.808 0L786.688 54.847999999999956z"  horiz-adv-x="1024" />

    
    <glyph glyph-name="app6" unicode="&#58895;" d="M898.771142 643.384976L517.114999 484.544557 134.589611 643.384976 516.24011 794.198989 898.771142 643.384976zM103.147777 577.349446L483.927901 414.93835l0-439.939587c-30.274563 13.681014-61.717526 27.963726-94.319859 42.836847-27.94905 12.493422-59.536511 26.469076-94.762384 41.938251-35.222486 15.468046-70.590599 30.936092-106.109983 46.405267-12.809511 5.950377-24.452879 13.831156-34.934619 23.643465-10.478354 9.819082-19.502698 20.525472-27.073032 32.131586-7.566947 11.593697-13.388631 23.94375-17.46731 37.032096-4.076421 13.087218-6.112937 25.880924-6.112937 38.367573L103.147777 577.349446 103.147777 577.349446zM922.346873 577.349446l0-338.207438c0-15.469175-2.912535-30.487923-8.730833-45.063017-5.825071-14.580739-13.249778-28.262881-22.269606-41.049814-9.024344-12.793706-19.069204-24.100665-30.131194-33.911845-11.068763-9.812309-21.837241-17.400705-32.318982-22.756158-30.855941-13.088347-63.168149-26.76936-96.936626-41.049814-33.768476-14.281583-64.919057-27.363156-93.449485-39.262782-33.187098-14.275939-65.793947-27.962597-97.813773-41.049814L540.696375 414.93835 922.346873 577.349446zM922.346873 577.349446"  horiz-adv-x="1024" />

    
    <glyph glyph-name="helper1" unicode="&#58907;" d="M511.950881 779.520125c-215.950354 0-391.596769-175.645392-391.596769-391.594723 0-215.919654 175.646416-391.596769 391.596769-391.596769 215.917608 0 391.594723 175.677115 391.594723 391.596769C903.545604 603.874733 727.868489 779.520125 511.950881 779.520125zM559.717791 172.25338799999997c0-11.133571-4.805446-21.23872-14.275121-30.009478-9.344832-8.676613-21.862937-13.06148-37.20946-13.06148-15.814174 0-28.844955 4.353145-38.703487 12.967336-10.091846 8.769734-15.192004 18.907629-15.192004 30.103622l0 19.250436c0 11.19497 5.131881 21.334911 15.192004 30.103622 9.857509 8.583492 22.88829 12.936637 38.703487 12.936637 15.346523 0 27.864628-4.415566 37.20946-13.06148 9.453303-8.768711 14.275121-18.875906 14.275121-29.978778L559.717791 172.25338799999997zM665.795758 460.664054c-6.188956-12.128225-14.104229-22.795169-23.526833-31.751145-9.250688-8.738012-19.342534-16.623609-30.0412-23.449062-10.232039-6.500041-19.871583-13.557784-28.625968-20.945031-8.583492-7.230682-15.768125-15.315824-21.38096-24.053835-5.348821-8.335852-8.069793-18.754133-8.069793-30.943756l0-12.097526c0-8.023744-3.934612-16.418948-11.709693-25.03314-7.867178-8.677637-18.394952-13.341866-31.222095-13.869892l-2.659573-0.062422c-13.030781 0-23.635303 3.730974-31.534204 11.117199-8.473999 7.915273-12.750395 16.809851-12.750395 26.418696 0 22.452361 3.125177 41.578977 9.298783 56.878428 6.126534 15.161305 13.700023 28.331255 22.546505 39.153742 8.816806 10.79281 18.753109 20.215414 29.512151 28.052916 10.278087 7.43125 19.779486 14.802124 28.239158 21.830191 8.163937 6.812149 15.192004 14.087856 20.88261 21.567201 5.223978 6.919597 7.79043 15.31787 7.79043 25.610284 0 16.97972-4.602831 29.139667-14.120602 37.163411-9.625218 8.147564-22.965038 12.283768-39.603996 12.283768-11.086499 0-20.602224-0.684592-28.28316-2.052752-7.494695-1.321088-14.414291-3.545756-20.60427-6.639211-6.111185-3.032056-11.864212-7.260357-17.119913-12.517081-5.504364-5.504364-11.30344-12.471033-17.260106-20.711717-5.348821-7.526417-13.293771-13.217023-23.571858-16.901948-10.5421-3.809769-22.251793-2.783393-34.45779 3.063779-10.977006 5.472642-17.678638 12.624529-19.965727 21.301142-2.145873 7.961322-2.145873 16.32685-0.030699 24.786523 1.554402 7.214309 5.876847 16.108886 13.216 26.993794 7.184633 10.666944 17.415648 21.038152 30.445406 30.865985 12.969383 9.779737 29.404704 18.331507 48.794309 25.359574 19.530822 7.059789 42.916439 10.636245 69.536726 10.636245 26.246781 0 49.01125-3.964288 67.639516-11.818163 18.721387-7.898901 34.021861-18.425651 45.434795-31.31624 11.383258-12.875239 19.779486-27.678386 24.972764-43.973514 5.131881-16.140609 7.743358-32.996508 7.743358-50.100048C675.311483 488.124476 672.109558 473.010243 665.795758 460.664054z"  horiz-adv-x="1024" />

    
    <glyph glyph-name="bangongxitong" unicode="&#59082;" d="M894.125559 697.551388 129.313669 697.551388c-35.19764 0-63.73458-28.505217-63.73458-63.733557l0-509.843894c0-35.19764 28.535917-63.733557 63.73458-63.733557l318.671876 0 0-95.602382L288.648584-35.362001c-17.582447 0-31.868825-14.283308-31.868825-31.866778l0-31.864732 509.875616 0L766.655376-67.227756c0 17.58347-14.284331 31.866778-31.867802 31.866778L575.451636-35.360977l0 95.602382 318.671876 0c35.19764 0 63.735603 28.535917 63.735603 63.733557L957.859116 633.817832c0 35.228339-28.537963 63.733557-63.735603 63.733557L894.125559 697.551388zM479.852324 123.973938c0 17.58347 14.283308 31.866778 31.866778 31.866778 17.582447 0 31.866778-14.283308 31.866778-31.866778 0-17.615193-14.284331-31.900547-31.866778-31.900547C494.137679 92.075437 479.852324 106.358745 479.852324 123.973938zM129.312646 187.708518 129.312646 633.817832l764.810866 0L894.123512 187.708518 129.312646 187.708518 129.312646 187.708518z"  horiz-adv-x="1024" />

    
    <glyph glyph-name="loading-b" unicode="&#58941;" d="M864.64 153.76c0-3.217 2.607-5.824 5.824-5.824s5.824 2.607 5.824 5.824c0 0 0 0 0 0 0 3.217-2.607 5.824-5.824 5.824-3.217 0-5.824-2.607-5.824-5.824 0 0 0 0 0 0zM736.064 21.087999999999965c0 0 0 0 0 0 0-6.398 5.186-11.584 11.584-11.584 6.398 0 11.584 5.186 11.584 11.584 0 0 0 0 0 0 0 0 0 0 0 0 0 6.398-5.186 11.584-11.584 11.584-6.398 0-11.584-5.186-11.584-11.584 0 0 0 0 0 0zM562.752-47.200000000000045c0-9.614 7.794-17.408 17.408-17.408s17.408 7.794 17.408 17.408c0 9.614-7.794 17.408-17.408 17.408-9.614 0-17.408-7.794-17.408-17.408zM376.192-38.048c0 0 0 0 0 0 0-12.795 10.373-23.168 23.168-23.168 12.795 0 23.168 10.373 23.168 23.168 0 0 0 0 0 0 0 0 0 0 0 0 0 12.795-10.373 23.168-23.168 23.168-12.795 0-23.168-10.373-23.168-23.168 0 0 0 0 0 0zM210.688 46.879999999999995c0-16.012 12.98-28.992 28.992-28.992s28.992 12.98 28.992 28.992c0 0 0 0 0 0 0 16.012-12.98 28.992-28.992 28.992-16.012 0-28.992-12.98-28.992-28.992 0 0 0 0 0 0zM96.064 191.264c0-19.228 15.588-34.816 34.816-34.816s34.816 15.588 34.816 34.816c0 19.228-15.588 34.816-34.816 34.816-19.228 0-34.816-15.588-34.816-34.816zM53.056 368.544c0-22.41 18.166-40.576 40.576-40.576s40.576 18.166 40.576 40.576c0 22.41-18.166 40.576-40.576 40.576-22.41 0-40.576-18.166-40.576-40.576zM88.448 544.672c0-25.626 20.774-46.4 46.4-46.4s46.4 20.774 46.4 46.4c0 25.626-20.774 46.4-46.4 46.4-25.626 0-46.4-20.774-46.4-46.4zM194.624 686.688c0-28.843 23.381-52.224 52.224-52.224s52.224 23.381 52.224 52.224c0 0 0 0 0 0 0 28.843-23.381 52.224-52.224 52.224-28.843 0-52.224-23.381-52.224-52.224 0 0 0 0 0 0zM350.528 768.032c0-32.024 25.96-57.984 57.984-57.984s57.984 25.96 57.984 57.984c0 32.024-25.96 57.984-57.984 57.984-32.024 0-57.984-25.96-57.984-57.984zM525.632 773.088c0-35.24 28.568-63.808 63.808-63.808s63.808 28.568 63.808 63.808c0 0 0 0 0 0 0 35.24-28.568 63.808-63.808 63.808-35.24 0-63.808-28.568-63.808-63.808 0 0 0 0 0 0zM685.952 700.96c0-38.421 31.147-69.568 69.568-69.568s69.568 31.147 69.568 69.568c0 38.421-31.147 69.568-69.568 69.568-38.421 0-69.568-31.147-69.568-69.568zM799.872 565.472c0-41.638 33.754-75.392 75.392-75.392s75.392 33.754 75.392 75.392c0 41.638-33.754 75.392-75.392 75.392-41.638 0-75.392-33.754-75.392-75.392zM845.184 389.984c0-44.854 36.362-81.216 81.216-81.216s81.216 36.362 81.216 81.216c0 44.854-36.362 81.216-81.216 81.216-44.854 0-81.216-36.362-81.216-81.216z"  horiz-adv-x="1024" />

    
    <glyph glyph-name="setting1" unicode="&#59286;" d="M918.24 91.2l-213.472 213.472c-12.448 12.416-32.576 12.512-45.12 0.16l-79.136-78.144c-6.048-6.016-9.472-14.144-9.504-22.688s3.328-16.672 9.376-22.72l213.952-213.952c6.24-6.24 14.432-9.376 22.624-9.376s16.384 3.136 22.624 9.376l78.656 78.624c6.016 6.016 9.376 14.112 9.376 22.624s-3.36 16.608-9.376 22.624zM573.92 807.296c-0.48 0.224-0.928 0.416-1.408 0.608-114.336 47.136-244.544 21.184-332-66.272l-166.496-165.888c-6.016-6.016-9.408-14.144-9.408-22.656s3.36-16.64 9.376-22.656l98.304-98.304c12.512-12.512 32.736-12.512 45.248 0l56.032 56 68.224-68.192c6.016-6.016 14.144-9.376 22.624-9.376 0.032 0 0.096 0 0.16 0 8.544 0.032 16.704 3.488 22.656 9.568l77.92 79.36c12.32 12.544 12.224 32.64-0.192 45.056l-67.648 67.68c-2.048 5.344-1.92 11.616 1.056 18.4l4.64 8.832c8.704 15.008 33.472 44.704 40.672 53.216 31.296 31.264 72.608 50.112 116.64 53.28 12.928-0.896 24.896 7.008 30.208 19.392 6.848 16.096-0.608 34.816-16.608 41.952zM942.304 688.8c-4.448 9.44-13.184 16.096-23.424 17.92-10.464 1.824-20.768-1.536-28.128-8.896l-89.376-89.344-33.024 33.056 88.8 88.8c7.424 7.424 10.752 18.048 8.832 28.384-1.888 10.336-8.736 19.104-18.304 23.392-24.832 11.2-52.384 17.12-79.648 17.12-51.232 0-99.328-19.904-135.456-56.064-50.688-50.656-68.32-126.24-47.040-193.952l-238.688-238.688c-67.936 21.376-143.872 3.072-193.952-47.040-56.032-56.032-71.68-142.464-38.944-215.136 4.32-9.6 13.088-16.448 23.424-18.304 10.272-2.016 20.96 1.408 28.384 8.832l87.52 87.52 33.056-33.056-88.064-88.064c-7.36-7.36-10.688-17.888-8.896-28.128 1.792-10.272 8.48-19.040 17.92-23.456 25.664-12.064 54.24-18.432 82.624-18.432 51.168 0 99.2 19.872 135.296 55.968 51.52 51.488 68.768 128.064 46.048 196.544l237.12 237.12c19.68-6.528 40.512-9.952 61.216-9.952 51.168 0 99.2 19.904 135.296 56 56.896 56.96 71.968 144.512 37.408 217.856z"  horiz-adv-x="1024" />

    
    <glyph glyph-name="android1" unicode="&#59305;" d="M617.458 630.024h-35.153v35.153h35.153M441.695 630.024h-35.152v35.153h35.153M636.089 729.858l46.050 46.050c6.679 6.679 6.679 17.928 0 24.958-7.030 6.679-18.279 6.679-24.958 0l-52.026-52.026c-28.122 13.709-59.759 21.795-93.155 21.795-33.746 0-65.384-8.085-93.506-22.146l-52.377 52.377c-6.679 6.679-17.928 6.679-24.608 0-7.030-7.030-7.030-18.279 0-24.958l46.050-46.050c-52.377-38.667-86.476-99.833-86.476-170.138h421.831c0 70.305-35.153 131.822-86.827 170.138M810.797 524.567c-29.177 0-52.728-23.553-52.728-52.728v-246.068c0-29.177 23.553-52.728 52.728-52.728 29.177 0 52.728 23.553 52.728 52.728v246.068c0 29.177-23.553 52.728-52.728 52.728M213.203 524.567c-29.177 0-52.728-23.553-52.728-52.728v-246.068c0-29.177 23.553-52.728 52.728-52.728s52.728 23.553 52.728 52.728v246.068c0 29.177-23.553 52.728-52.728 52.728M301.084 173.041c0-19.334 15.818-35.153 35.153-35.153h35.153v-123.035c0-29.177 23.553-52.728 52.728-52.728s52.728 23.553 52.728 52.728v123.035h70.305v-123.035c0-29.177 23.552-52.728 52.728-52.728 29.177 0 52.728 23.553 52.728 52.728v123.035h35.153c19.334 0 35.153 15.818 35.153 35.153v351.526h-421.831v-351.526z"  horiz-adv-x="1024" />

    
    <glyph glyph-name="right2" unicode="&#60202;" d="M809.984 768q34.005 0 59.989-25.984t25.984-59.989v-596.011q0-34.005-25.984-59.989t-59.989-25.984h-596.011q-36.011 0-61.013 25.984t-25.003 59.989v169.984h86.016v-169.984h596.011v596.011h-596.011v-169.984h-86.016v169.984q0 34.005 25.003 59.989t61.013 25.984h596.011zM429.995 230.016l109.995 112h-411.989v84.011h411.989l-109.995 112 59.989 59.989 214.016-214.016-214.016-214.016z"  horiz-adv-x="1024" />

    
    <glyph glyph-name="home1" unicode="&#60354;" d="M425.984 41.984h-212.011v342.016h-128l425.984 384 425.984-384h-128v-342.016h-212.011v256h-171.989v-256z"  horiz-adv-x="1024" />

    
    <glyph glyph-name="bottom1" unicode="&#60361;" d="M315.989 562.005l196.011-196.011 196.011 196.011 59.989-59.989-256-256-256 256z"  horiz-adv-x="1024" />

    
    <glyph glyph-name="left1" unicode="&#60389;" d="M658.005 210.005l-59.989-59.989-256 256 256 256 59.989-59.989-196.011-196.011z"  horiz-adv-x="1024" />

    
    <glyph glyph-name="right1" unicode="&#60390;" d="M365.995 198.016l196.011 196.011-196.011 196.011 59.989 59.989 256-256-256-256z"  horiz-adv-x="1024" />

    
    <glyph glyph-name="top1" unicode="&#60391;" d="M315.989 237.995l-59.989 59.989 256 256 256-256-59.989-59.989-196.011 196.011z"  horiz-adv-x="1024" />

    
    <glyph glyph-name="app5" unicode="&#58902;" d="M849.92 111.61599999999999c-4.096-12.288-8.192-24.576-14.336-34.816 0-2.048 32.768-40.96 14.336-61.44L839.68 5.1200000000000045c-14.336-14.336-53.248 8.192-61.44 14.336-12.288-6.144-24.576-12.288-36.864-14.336l2.048 0c0 0-6.144-53.248-34.816-53.248l-10.24 0c-22.528 0-34.816 45.056-36.864 55.296-12.288 4.096-24.576 8.192-36.864 16.384l2.048-2.048c0 0-43.008-32.768-63.488-12.288l-8.192 8.192c-16.384 16.384 10.24 55.296 14.336 63.488-6.144 10.24-10.24 22.528-14.336 32.768-8.192 2.048-55.296 14.336-55.296 36.864l0 10.24c0 24.576 43.008 32.768 53.248 34.816 4.096 12.288 8.192 22.528 14.336 34.816-4.096 6.144-30.72 47.104-14.336 63.488l10.24 8.192c18.432 18.432 53.248-8.192 63.488-14.336 10.24 6.144 22.528 10.24 34.816 14.336 2.048 10.24 14.336 53.248 36.864 53.248l10.24 0c24.576 0 32.768-40.96 34.816-53.248 12.288-4.096 24.576-8.192 34.816-14.336 10.24 6.144 47.104 28.672 61.44 14.336l8.192-10.24c18.432-18.432-6.144-53.248-14.336-61.44 6.144-10.24 10.24-22.528 14.336-34.816 4.096 0 53.248-8.192 53.248-34.816l0-10.24C903.168 125.952 862.208 113.66399999999999 849.92 111.61599999999999zM702.464 263.168c-61.44 0-112.64-51.2-112.64-112.64s51.2-112.64 112.64-112.64c61.44 0 112.64 51.2 112.64 112.64S765.952 263.168 702.464 263.168zM702.464 74.75199999999995c-40.96 0-75.776 32.768-75.776 75.776 0 40.96 32.768 75.776 75.776 75.776 40.96 0 75.776-32.768 75.776-75.776C778.24 109.56799999999998 743.424 74.75199999999995 702.464 74.75199999999995zM702.464 189.44000000000005c-20.48 0-36.864-16.384-36.864-36.864 0-20.48 16.384-36.864 36.864-36.864 20.48 0 36.864 16.384 36.864 36.864C741.376 171.00800000000004 722.944 189.44000000000005 702.464 189.44000000000005zM659.456 338.94399999999996c-16.384-4.096-30.72-10.24-45.056-18.432-10.24 8.192-40.96 22.528-63.488 0l-12.288-10.24c-20.48-20.48-4.096-55.296 2.048-65.536-8.192-12.288-12.288-26.624-16.384-40.96l-6.144-4.096c-14.336-2.048-38.912-12.288-45.056-32.768l-40.96-28.672L432.128 449.536l274.432 176.128 0-235.52C677.888 386.048 663.552 351.23199999999997 659.456 338.94399999999996zM135.168 664.576L409.6 820.224l274.432-155.648L409.6 488.448 135.168 664.576zM389.12 136.192L116.736 330.75199999999995 116.736 625.664 389.12 449.536 389.12 136.192z"  horiz-adv-x="1024" />

    
    <glyph glyph-name="loading-a" unicode="&#58909;" d="M388 736c0 70.688 57.312 128 128 128s128-57.312 128-128c0-70.688-57.312-128-128-128s-128 57.312-128 128zM659.52 623.52c0 70.688 57.312 128 128 128s128-57.312 128-128c0-70.688-57.312-128-128-128s-128 57.312-128 128zM836 352c0 35.36 28.64 64 64 64s64-28.64 64-64c0-35.36-28.64-64-64-64s-64 28.64-64 64zM723.52 80.48000000000002c0 35.36 28.64 64 64 64s64-28.64 64-64c0-35.36-28.64-64-64-64s-64 28.64-64 64zM452-32c0 0 0 0 0 0 0 35.36 28.64 64 64 64s64-28.64 64-64c0 0 0 0 0 0 0-35.36-28.64-64-64-64s-64 28.64-64 64zM180.48 80.48000000000002c0 0 0 0 0 0 0 35.36 28.64 64 64 64s64-28.64 64-64c0 0 0 0 0 0 0-35.36-28.64-64-64-64s-64 28.64-64 64zM148.48 623.52c0 0 0 0 0 0 0 53.024 42.976 96 96 96s96-42.976 96-96c0 0 0 0 0 0 0-53.024-42.976-96-96-96s-96 42.976-96 96zM60 352c0 39.776 32.224 72 72 72s72-32.224 72-72c0-39.776-32.224-72-72-72s-72 32.224-72 72z"  horiz-adv-x="1024" />

    
    <glyph glyph-name="contact1" unicode="&#58974;" d="M422.4 243.2c0 25.6 12.8 51.2 25.6 76.8l-6.4 38.4c-6.4 0-6.4 0-12.8 0-6.4 0-6.4 0-12.8 0l-19.2-166.4 32-32 32 32h-12.8c-12.8 0-32 32-25.6 51.2zM640 448l-12.8-160 25.6-12.8 25.6 12.8-12.8 160zM646.4 448l-19.2-160 32-12.8 25.6 12.8-19.2 160zM704 460.8c38.4 19.2 57.6 51.2 57.6 96 0 57.6-44.8 102.4-102.4 102.4s-108.8-44.8-108.8-102.4c0-44.8 25.6-83.2 64-96-25.6-6.4-51.2-19.2-76.8-32-12.8-25.6-32-51.2-57.6-57.6 89.6-19.2 160-89.6 192-179.2h179.2c19.2 0 32 32 32 51.2-6.4 102.4-83.2 198.4-179.2 217.6zM659.2 275.2l-32 12.8 19.2 160h19.2l19.2-160-25.6-12.8zM416 320v38.4c-6.4 0-6.4 0-12.8 0-6.4 0-6.4 0-12.8 0l-19.2-172.8 32-32 32 32-19.2 134.4zM646.4 192c-38.4 89.6-108.8 160-198.4 179.2 25.6 12.8 44.8 32 57.6 57.6 6.4 12.8 12.8 32 12.8 44.8 0 64-51.2 121.6-121.6 121.6s-115.2-51.2-115.2-121.6c0-44.8 25.6-89.6 70.4-108.8-108.8-25.6-198.4-128-211.2-249.6 0-19.2 12.8-57.6 32-57.6h454.4c19.2 0 38.4 38.4 32 57.6 0 32-6.4 51.2-12.8 76.8zM396.8 153.6l-32 32 19.2 172.8c6.4 0 6.4 0 12.8 0 6.4 0 6.4 0 12.8 0l6.4-38.4 12.8-128-32-38.4z"  horiz-adv-x="1024" />

    
    <glyph glyph-name="statistics2" unicode="&#58994;" d="M787.2 70.4l-115.2-64c-6.4-6.4-19.2 0-19.2 12.8v153.6c0 6.4 0 6.4 6.4 12.8l115.2 64c6.4 6.4 19.2 0 19.2-12.8v-153.6c0-6.4 0-12.8-6.4-12.8zM787.2 275.2l-115.2-64c-6.4-6.4-19.2 0-19.2 12.8v153.6c0 6.4 0 6.4 6.4 12.8l115.2 64c6.4 6.4 19.2 0 19.2-12.8v-153.6c0-6.4 0-12.8-6.4-12.8zM640 544l-134.4-57.6c-6.4 0-6.4-12.8 0-12.8l134.4-76.8c0 0 6.4 0 6.4 0l134.4 76.8c6.4 0 6.4 12.8 0 12.8l-140.8 57.6c0 0 0 0 0 0zM620.8 384l-108.8 64c-12.8 6.4-19.2 0-19.2-6.4v0l-76.8-44.8c-6.4 0-6.4-6.4-6.4-12.8v-153.6c0-6.4 12.8-12.8 19.2-12.8l83.2 51.2 102.4-57.6c6.4-6.4 19.2 0 19.2 6.4v160c-6.4 0-6.4 6.4-12.8 6.4zM620.8 179.2l-115.2 64c-6.4 6.4-19.2 0-19.2-6.4l-76.8-44.8c-6.4 0-6.4-6.4-6.4-12.8v-153.6c0-6.4 12.8-12.8 19.2-12.8l83.2 51.2 102.4-57.6c6.4-6.4 19.2 0 19.2 6.4v153.6c0 6.4 0 12.8-6.4 12.8zM243.2 89.6l115.2-64c6.4-6.4 19.2 0 19.2 6.4v153.6c0 6.4 0 6.4-6.4 6.4l-115.2 70.4c-6.4 6.4-19.2 0-19.2-6.4v-153.6c0-12.8 6.4-12.8 6.4-12.8zM243.2 288l115.2-64c6.4-6.4 19.2 0 19.2 6.4l0 160c0 6.4 0 6.4-6.4 6.4l-115.2 70.4c-6.4 6.4-19.2 0-19.2-6.4v-153.6c6.4-12.8 6.4-12.8 6.4-19.2zM243.2 499.2l115.2-64c6.4-6.4 19.2 0 19.2 6.4l0 153.6c0 6.4 0 6.4-6.4 6.4l-115.2 70.4c-6.4 6.4-19.2 0-19.2-6.4v-153.6c6.4-6.4 6.4-12.8 6.4-12.8zM390.4 768l-134.4-57.6c-6.4 0-6.4-12.8 0-12.8l134.4-76.8c0 0 6.4 0 6.4 0l134.4 76.8c6.4 0 6.4 12.8 0 12.8l-140.8 57.6c0 0 0 0 0 0zM537.6 499.2l-115.2-64c-6.4-6.4-19.2 0-19.2 12.8l-0 147.2c0 6.4 0 6.4 6.4 12.8l115.2 64c6.4 6.4 19.2 0 19.2-12.8v-153.6c0 0 0-6.4-6.4-6.4z"  horiz-adv-x="1024" />

    
    <glyph glyph-name="self4" unicode="&#59022;" d="M966.199 738.339h-907.641c-32.342 0-58.558-26.216-58.558-58.558v-591.547c0-32.342 26.216-58.558 58.558-58.558h907.642c32.342 0 58.558 26.216 58.558 58.558v591.547c-0.001 32.342-26.217 58.558-58.559 58.558zM585.575 495.296h204.952v-29.279l-204.952 0v29.279zM585.575 407.46h263.509v-29.279h-263.509v29.279zM116.198 203.422c0 65.44 47.71 130.822 110.239 143.33-31.418 24.080-51.682 61.984-51.682 104.626 0 72.766 58.991 131.755 131.758 131.755s131.752-58.988 131.752-131.755c0-42.642-20.262-80.545-51.678-104.626 62.529-12.509 110.236-77.89 110.236-143.329l-380.624 0zM907.642 290.345h-322.067v29.279h322.066v-29.279z"  horiz-adv-x="1041" />

    
    <glyph glyph-name="account2" unicode="&#59103;" d="M362.241 291.933c-119.075 0-357.224-61.636-357.224-184.909v-123.273h714.448l0 123.273c0 123.274-238.149 184.909-357.224 184.909zM755.188 279.606c47.63-43.146 83.352-104.781 83.352-172.582v-123.273h178.612v123.272c-0.001 92.455-142.89 154.091-261.964 172.583zM362.241 415.206c101.213 0 178.612 80.127 178.612 184.908 0 104.782-77.398 184.909-178.612 184.909-101.213 0-178.612-80.127-178.612-184.909 0-104.78 77.399-184.908 178.612-184.908zM659.927 415.206c101.213 0 178.612 80.127 178.612 184.908 0 104.782-77.399 184.909-178.612 184.909-17.861 0-35.723-6.163-53.583-6.163 35.723-55.473 53.583-110.946 53.583-178.746 0-67.8-17.861-123.273-53.583-178.745 17.862 0 35.723-6.163 53.583-6.163z"  horiz-adv-x="1033" />

    
    <glyph glyph-name="select-d-checked" unicode="&#58975;" d="M847.606717 48.393283L176.393283 48.393283 176.393283 719.606717l671.213433 0L847.606717 48.393283zM216.850459 88.86490800000001l590.284634 0L807.135092 679.135092 216.850459 679.135092 216.850459 88.86490800000001zM470.04013 230.869592L319.077071 381.48587599999996 356.442162 418.937661 469.996783 305.65756999999996 702.91452 537.115959 740.322958 499.72197Z"  horiz-adv-x="1024" />

    
    <glyph glyph-name="user3" unicode="&#59350;" d="M513.024-126.591c-163.464 0-326.924 0.047-490.388-0.16-7.304-0.009-10.198 1.541-11.842 9.31-7.858 37.066-10.047 73.949 0.855 110.738 17.845 60.219 55.794 103.029 112.349 130.010 28.766 13.725 59.965 19.371 90.103 28.484 48.692 14.726 97.614 28.714 146.648 42.261 14.082 3.889 27.225 7.952 37.010 19.738 22.88 27.554 17.478 72.375-11.386 92.634-64.831 45.507-107.44 106.919-129.249 182.728-16.713 58.091-22.401 117.774-11.259 177.025 21.077 112.053 88.398 185.311 197.886 216.393 151.81 43.102 312.78-58.791 336.981-214.519 16.37-105.326-2.025-205.082-67.734-292.206-13.862-18.376-31.617-33.905-48.241-50.063-8.089-7.858-17.643-14.228-26.647-21.128-31.152-23.862-30.715-77.040 1.066-100.080 4.476-3.246 9.709-5.956 15.003-7.478 35.812-10.315 71.774-20.118 107.619-30.325 41.035-11.687 82.376-22.49 122.875-35.817 32.148-10.578 60.341-28.963 83.348-54.206 46.86-51.416 63.3-111.588 50.618-179.853-1.113-5.994-2.687-11.936-3.344-17.976-0.512-4.707-2.762-5.956-6.952-5.538-1.86 0.183-3.753 0.028-5.632 0.028h-489.683z"  horiz-adv-x="1024" />

    
    <glyph glyph-name="user2" unicode="&#59372;" d="M513.135-35.579h-389.68c-21.217 0-28.642 7.426-28.642 28.997-0.353 115.985 60.467 204.035 172.209 248.943 49.152 19.803 100.426 29.704 152.761 35.715 55.87 6.011 111.742 7.073 167.966 1.768 68.601-6.365 135.787-18.035 197.669-49.859 64.004-32.886 109.973-81.331 132.605-150.639 10.254-31.118 12.73-63.297 11.669-95.476-0.353-10.254-8.134-18.035-18.741-19.095-3.183-0.353-6.365 0-9.901 0-129.068-0.353-258.49-0.353-387.912-0.353v0zM679.688 607.642c1.415-45.263-3.89-89.464-22.278-131.19-12.376-27.935-29.35-53.042-52.334-73.198-60.467-53.042-141.092-47.737-197.316 12.022-27.936 29.704-45.263 65.064-54.103 104.67-11.316 49.859-12.376 100.779-3.89 150.993 13.791 82.746 96.89 142.859 179.634 132.605 88.757-10.961 148.871-78.502 150.286-168.673 0.353-8.84 0-18.035 0-27.229v0z"  horiz-adv-x="1024" />

    
    <glyph glyph-name="company2" unicode="&#58882;" d="M973.3 255.8h-153.6v153.6h-256v102.4h153.6c28.3 0 51.2 22.9 51.2 51.2l-0 256c0 28.3-22.9 51.2-51.2 51.2h-409.6c-28.3 0-51.2-22.9-51.2-51.2v-256c0-28.3 22.9-51.2 51.2-51.2h153.6v-102.4h-256v-153.6h-153.6c-28.3 0-51.2-22.9-51.2-51.2v-256c0-28.3 22.9-51.2 51.2-51.2h358.4c28.3 0 51.2 22.9 51.2 51.2v256c0 28.3-22.9 51.2-51.2 51.2h-153.6v102.4h512v-102.4l-153.6-0c-28.3 0-51.2-22.9-51.2-51.2v-256c0-28.3 22.9-51.2 51.2-51.2h358.4c28.3 0 51.2 22.9 51.2 51.2v256c0 28.3-22.9 51.2-51.2 51.2z"  horiz-adv-x="1025" />

    
    <glyph glyph-name="app4" unicode="&#59786;" d="M384 384L0 384 0 768l384 0L384 384zM320 704L64 704l0-256L320 448 320 704zM384 256l0-384L0-128 0 256 384 256zM320 192L64 192l0-256L320-64 320 192zM896 256l0-384-384 0L512 256 896 256zM832 192l-256 0 0-256 256 0L832 192zM1023.995238 604.8L732.809524 896 441.533333 604.8l291.271429-291.2L1023.995238 604.8z"  horiz-adv-x="1024" />

    
    <glyph glyph-name="flow4" unicode="&#58892;" d="M680.928 689.8779999999999c-67.86 19.125-137.985-17.182-163.115-90.167l0 0c-9.985-33.07-5.737-69.762 11.595-101.017 2.46-5.057 6.2-10.575 10.35-14.807l-72.675-162.115c-32.705 7.055-65.535 1.445-92.152-14.71l-101.36 113.675c4.283 8.367 8.565 16.735 11.595 25.535 23.827 69.197-12.362 143.552-81.45 167.342-69.082 23.787-143.85-13.792-167.235-81.71-25.072-68.737 11.12-143.092 80.205-166.877 33.915-11.68 70.09-8.655 99.217 6.635l105.5-117.935c-3.855-7.115-8.135-15.48-10.725-23l0 0c-10.005-33.12-5.765-69.745 11.585-101.045 17.32-31.285 44.81-53.395 79.587-62.57 67.842-19.155 137.982 17.185 160.932 83.845l2.17 6.295c9.975 33.13 5.74 69.755-11.555 101.035-6.2 10.575-11.58 19.47-19.87 27.96l69.625 153.257c2.505-0.863 3.725-1.283 6.295-2.168 25.52-7.385 52.41-6.802 76.035 0.57l86.375-95.865c-1.305-3.79-2.595-7.545-3.895-11.305-23.815-69.17 12.405-143.53 81.49-167.32 69.085-23.79 143.84 13.76 167.225 81.675 23.83 69.205-12.39 143.567-81.47 167.355-38.93 13.405-80.615 6.605-112.745-13.262l-73.115 81.46c9.395 10.812 17.1 25.045 22.305 40.165l2.17 6.292c9.95 33.077 5.735 69.757-11.57 101.005C743.203 658.621 715.273 679.448 680.928 689.8779999999999L680.928 689.8779999999999zM106.837 507.741c9.962 28.932 42.015 44.585 70.917 34.632 28.905-9.952 44.542-42.057 34.59-70.962-9.952-28.905-42.072-44.567-70.947-34.625S96.885 478.836 106.837 507.741L106.837 507.741zM487.061 220.67200000000003c6.58-13.54 8.52-28.255 5.035-42.54l-0.863-2.505c-9.962-28.93-40.365-43.785-68.45-35.515-14.242 3.505-26.33 13.27-32.91 26.81-6.58 13.545-8.52 28.26-4.145 45.035 9.522 27.655 40.367 43.785 68.412 35.5C467.964 242.72699999999998 478.794 233.39200000000005 487.061 220.67200000000003L487.061 220.67200000000003zM943.838 270.177c-9.965-28.93-42.055-44.605-70.925-34.665-28.935 9.965-44.575 42.07-34.61 71.005 9.96 28.93 42.045 44.58 70.975 34.615C938.163 331.217 953.798 299.10699999999997 943.838 270.177L943.838 270.177zM694.178 589.626c6.625-13.527 8.505-28.22 5.035-42.47l-0.865-2.513c-9.975-28.955-39.115-44.215-68.41-35.495-14.275 3.512-26.36 13.28-32.955 26.792-6.585 13.517-8.525 28.23-4.14 45.032 9.52 27.657 40.365 43.795 68.385 35.51C675.528 612.966 686.373 603.658 694.178 589.626L694.178 589.626z"  horiz-adv-x="1024" />

    
    <glyph glyph-name="notification3" unicode="&#58900;" d="M778.24 89.643c138.772 20.864 245.76 144.043 245.76 294.357s-106.988 273.493-245.76 294.357v-588.715zM0 554.667v-341.333c0-47.104 36.7-85.333 81.92-85.333h122.88v512h-122.88c-45.22 0-81.92-38.229-81.92-85.333v0zM573.44 896l-286.72-199.125v-625.749l286.72-199.125c45.22 0 81.92 38.229 81.92 85.333v853.333c0 47.104-36.7 85.333-81.92 85.333v0z"  horiz-adv-x="1024" />

    
    <glyph glyph-name="self3" unicode="&#58885;" d="M552.224 527.656c0 122.312-91 221.472-203.256 221.472s-203.248-99.152-203.248-221.472c0-88.904 48.192-165.368 117.568-200.616v-48.448h171.376v48.448c69.368 35.256 117.56 111.712 117.56 200.616zM638.104 9.24c1.456 11.224 2.296 22.624 2.296 34.224 0 153.024-130.48 277.080-291.424 277.080s-291.432-124.056-291.432-277.080c0-11.592 0.84-23 2.296-34.224h578.264zM877.016 782.248h-357.080v-39.744h357.080c29.288 0 49.704-15.992 49.704-30.344v-632.832c0-14.36-20.416-30.352-49.704-30.352h-201.432v-39.744h201.432c50.152 0 89.44 30.792 89.44 70.088l0 632.848c0 39.296-39.288 70.080-89.44 70.080zM873.184 585.92c0-7.944-5.928-14.376-13.248-14.376l-273.216-0c-7.312 0-13.248 6.44-13.248 14.376v41.336c0 7.944 5.928 14.376 13.248 14.376h273.216c7.312 0 13.248-6.44 13.248-14.376l-0-41.336zM873.184 442.416c0-7.944-5.928-14.376-13.248-14.376h-273.216c-7.312 0-13.248 6.44-13.248 14.376v41.336c0 7.944 5.928 14.376 13.248 14.376h273.216c7.312 0 13.248-6.44 13.248-14.376l-0-41.336zM873.184 298.352c0-7.944-4.584-14.376-10.248-14.376h-211.328c-5.656 0-10.248 6.44-10.248 14.376v41.336c0 7.944 4.584 14.376 10.248 14.376h211.328c5.656 0 10.248-6.44 10.248-14.376v-41.336z"  horiz-adv-x="1024" />

    
    <glyph glyph-name="select-a-checked" unicode="&#58957;" d="M149.961673 746.038327C-49.987225 546.089428-49.987225 221.910074 149.961673 21.961175000000026 349.910572-177.986396 674.089926-177.986396 874.038825 21.961175000000026 1073.986396 221.910074 1073.987721 546.0907520000001 874.038825 746.038327 674.089926 945.987225 349.910572 945.987225 149.961673 746.038327L149.961673 746.038327ZM846.107542 549.1239969999999L422.524215 125.54199000000006C406.581466 109.59791800000005 380.492131 109.59791800000005 364.548058 125.54199000000006L137.374178 352.71454400000005C121.431431 368.65861600000005 121.431431 394.746627 137.374178 410.6907 153.31825 426.634772 179.407587 426.634772 195.350334 410.6907L393.535471 212.506887 788.130062 607.101478C804.074134 623.044225 830.16347 623.044225 846.106218 607.101478 862.05029 591.156081 862.05029 565.0680689999999 846.107542 549.1239969999999L846.107542 549.1239969999999Z"  horiz-adv-x="1024" />

    
    <glyph glyph-name="phone3" unicode="&#59007;" d="M359.082667 877.037037C359.082667 877.037037 211.437037 870.058667 137.291852 668.672 137.291852 668.672 55.371852 112.48829599999999 579.925333-91.13599999999997 579.925333-91.13599999999997 783.397926-184.62340700000004 891.221333 56.206222000000025 891.221333 56.206222000000025 874.230519 202.18311100000005 713.879704 231.15851899999996 713.879704 231.15851899999996 607.990519 210.602667 536.462222 147.79733299999998 536.462222 147.79733299999998 281.751704 242.536296 336.896 501.987556 336.896 501.987556 477.297778 549.925926 492.126815 606.170074 508.852148 669.620148 511.506963 842.069333 359.082667 877.037037Z"  horiz-adv-x="1024" />

    
    <glyph glyph-name="self2" unicode="&#58886;" d="M876.846-38.682h-766.735c-24.008 0-43.551 19.528-43.551 43.551v107.894l5.135 5.115c44.365 44.211 147.031 78.28 188.974 99.072 47.729 23.665 88.192 38.011 112.63 44.339 0.471 2.33 0.957 5.1 1.352 8.202-17.659 20.884-49.608 64.323-64.261 119.603-15.171 9.81-27.515 26.301-35.246 47.34-10.537 28.605-14.346 72.243 7.465 105.165-4.332 41.58-11.756 137.339 47.258 202.993 36.992 41.201 92.052 62.090 163.635 62.090 71.603 0 126.684-20.9 163.686-62.116 58.916-65.638 51.543-161.254 47.196-202.952 21.806-32.876 18.002-76.498 7.475-105.108-7.716-21.053-20.065-37.565-35.272-47.38-14.664-55.327-46.612-98.749-64.261-119.613 0.404-3.118 0.87-5.893 1.341-8.202 24.008-6.231 63.693-20.25 110.582-43.32 41.196-20.27 146.191-53.524 190.838-96.778l5.304-5.135v-111.212c0.005-24.008-19.528-43.546-43.546-43.546v0 0M957.44 586.025c0-4.905-2.872-8.878-6.4-8.878h-197.586c-3.538 0-6.4 3.973-6.4 8.878v20.296c0 4.905 2.862 8.878 6.4 8.878h197.586c3.528 0 6.4-3.973 6.4-8.878v-20.296M957.44 342.851c0-4.905-1.997-8.878-4.46-8.878h-137.441c-2.463 0-4.46 3.973-4.46 8.878v20.296c0 4.905 1.997 8.888 4.46 8.888h137.441c2.463 0 4.46-3.978 4.46-8.888v-20.296M957.44 459.141c0-4.9-2.54-8.868-5.678-8.868h-175.252c-3.128 0-5.673 3.973-5.673 8.868v20.306c0 4.905 2.545 8.883 5.673 8.883h175.252c3.139 0 5.678-3.978 5.678-8.883v-20.306M957.44 459.141z"  horiz-adv-x="1024" />

    
    <glyph glyph-name="app3" unicode="&#59010;" d="M515.662413 833.610044c-199.686948 0-366.155331-162.365948-366.155331-361.947496 0-131.531686 70.699202-253.450433 183.062316-316.758294l9.363252-161.632237 40.766472-36.418444 257.967306 0 41.884946 43.317575L682.551374 153.34166600000003c112.363114 62.821791 191.94052 185.65742 191.94052 318.321906C874.492918 671.24512 715.349361 833.610044 515.662413 833.610044zM663.076834 46.707021000000054L365.31315 46.707021000000054c-10.380418 0-18.807345 13.159718-18.807345 22.463618s8.426927 22.463618 18.807345 22.463618l297.763684 0c10.380418 0 18.807345-13.159718 18.807345-22.463618S673.457252 46.707021000000054 663.076834 46.707021000000054zM673.881924 196.70631300000002c-12.421914 0-24.583908-9.435906-24.583908-21.841447l-2.198062-83.231633 15.888875 0c10.380418 0 18.895349-13.159718 18.895349-22.463618s-8.514931-22.463618-18.895349-22.463618l-15.888875 0 0.088004-38.686091c0-25.27157-21.243837-28.704762-35.882232-28.704762L421.297208-20.684855999999968c-15.844873 0-53.363372 6.423293-53.363372 29.401634l0 37.988196-2.620687 0c-10.380418 0-18.807345 13.159718-18.807345 22.463618s8.075933 22.463618 18.456351 22.463618l12.201903 0 0.350994 83.231633c0 12.405541-14.842033 22.152533-27.262924 22.152533s-27.262924-10.369162-27.262924-22.774703L322.989205 8.718825000000038c0-42.86425 45.703925-74.328869 98.309026-74.328869l190.008518 0c59.750849 0 93.718475 34.528398 93.718475 78.775134L705.025225 178.68998399999998C705.025225 191.09552499999995 686.302815 196.70631300000002 673.881924 196.70631300000002z"  horiz-adv-x="1024" />

    
    <glyph glyph-name="user1" unicode="&#59362;" d="M640.256 448h-256.512c-140.8 0-255.744-114.624-255.744-256v-256h128v256.576c0 17.344 14.848 31.424 32 31.424 17.664 0 32-14.592 32-31.424v-256.576h384v256.576c0 17.344 14.848 31.424 32 31.424 17.664 0 32-14.592 32-31.424v-256.576h128v256c0 141.12-114.496 256-255.744 256zM704 640c0 49.408-19.2 93.952-49.856 128-35.136 38.976-85.504 64-142.144 64s-107.008-25.024-142.144-64c-30.656-34.048-49.856-78.592-49.856-128 0-106.048 86.016-192 192-192s192 85.952 192 192z"  horiz-adv-x="1024" />

    
    <glyph glyph-name="notification2" unicode="&#59363;" d="M384.13 58.182h-186.312c-38.557 0-69.818 36.471-69.818 81.455 0 44.983 31.261 81.455 69.818 81.455h17.455v224c0 148.268 90.589 271.793 210.694 299.529 6.074 49.341 42.083 87.38 86.033 87.38 43.951 0 79.959-38.039 86.033-87.38 120.122-27.735 210.694-151.261 210.694-299.529v-224h17.455c38.557 0 69.818-36.471 69.818-81.455 0-44.983-31.261-81.455-69.818-81.455h-186.312c-3.040-68.005-59.113-122.182-127.87-122.182-68.732 0-124.828 54.176-127.87 122.182z"  horiz-adv-x="1024" />

    
    <glyph glyph-name="company1" unicode="&#58943;" d="M1025.025 101.147v90.022s-60.356 10.23-60.356 15.345-5.115 10.23-5.115 15.345c5.115 15.345 39.896 39.896 39.896 39.896l-70.585 90.022s-45.011-34.781-55.241-39.896c-5.115 0-10.23 5.115-15.345 5.115s-20.46 60.356-20.46 60.356h-90.022s-10.23-55.241-25.574-60.356c-5.115 0-10.23-5.115-15.345-5.115-10.23 5.115-55.241 39.896-55.241 39.896l-70.585-90.022s34.781-34.781 34.781-45.011c0-5.115-5.115-5.115-5.115-10.23-15.345-5.115-55.241-15.345-55.241-15.345v-90.022s50.126-10.23 60.356-20.46c0-5.115 5.115-10.23 5.115-15.345-10.23-15.345-39.896-34.781-39.896-34.781l70.585-90.022s55.241 34.781 65.471 39.896c5.115 0 10.23-5.115 15.345-5.115 10.23-5.115 15.345-55.241 15.345-55.241h90.022s5.115 50.126 10.23 55.241 15.345 5.115 20.46 5.115c10.23-5.115 45.011-39.896 45.011-39.896l90.022 90.022s-34.781 25.574-45.011 34.781c5.115 5.115 5.115 10.23 5.115 15.345 6.138 10.23 61.379 20.46 61.379 20.46zM793.832 35.676c-65.471 0-115.596 50.126-115.596 115.596s50.126 115.596 115.596 115.596 115.596-50.126 115.596-115.596-55.241-115.596-115.596-115.596zM502.284 172.755c0 145.263 120.711 265.974 265.974 265.974 15.345 0 34.781 0 50.126-5.115v231.193c0 25.574-20.46 39.896-39.896 39.896h-165.722v125.826c0 34.781-5.115 65.471-39.896 65.471h-421.467c-34.781 0-65.471-29.666-65.471-65.471v-672.096h-65.471c-10.23 0-20.46-10.23-20.46-20.46v-84.907c0-10.23 10.23-20.46 20.46-20.46h521.718c-24.551 38.873-39.896 84.907-39.896 140.148zM652.661 513.407c0 10.23 10.23 20.46 20.46 20.46h39.896c10.23 0 20.46-10.23 20.46-20.46v-39.896c0-10.23-10.23-20.46-20.46-20.46h-39.896c-10.23 0-20.46 10.23-20.46 20.46v39.896zM376.458 704.703c0 25.574 20.46 39.896 39.896 39.896h39.896c25.574 0 39.896-20.46 39.896-39.896v-39.896c0-25.574-20.46-39.896-39.896-39.896h-39.896c-25.574 0-39.896 20.46-39.896 39.896v39.896zM376.458 493.97c0 25.574 20.46 39.896 39.896 39.896h39.896c25.574 0 39.896-20.46 39.896-39.896v-39.896c0-25.574-20.46-39.896-39.896-39.896h-39.896c-25.574 0-39.896 20.46-39.896 39.896v39.896zM317.125 242.318c0-25.574-20.46-39.896-39.896-39.896h-39.896c-25.574 0-39.896 20.46-39.896 39.896v39.896c0 25.574 20.46 39.896 39.896 39.896h39.896c25.574 0 39.896-20.46 39.896-39.896v-39.896zM317.125 447.936c0-25.574-20.46-39.896-39.896-39.896h-39.896c-25.574 0-39.896 20.46-39.896 39.896v39.896c0 25.574 20.46 39.896 39.896 39.896h39.896c25.574 0 39.896-20.46 39.896-39.896v-39.896zM317.125 658.669c0-25.574-20.46-39.896-39.896-39.896h-39.896c-25.574 0-39.896 20.46-39.896 39.896v39.896c0 25.574 20.46 39.896 39.896 39.896h39.896c25.574 0 39.896-20.46 39.896-39.896v-39.896zM462.388 197.307h-39.896c-25.574 0-39.896 20.46-39.896 39.896v39.896c0 25.574 20.46 39.896 39.896 39.896h39.896c25.574 0 39.896-20.46 39.896-39.896v-39.896c0-19.437-15.345-39.896-39.896-39.896z"  horiz-adv-x="1026" />

    
    <glyph glyph-name="email2" unicode="&#59093;" d="M511.570211 831.239044c-246.706845 0-446.708971-200.042035-446.708971-446.790836 0-246.746754 200.002127-446.783673 446.708971-446.783673S958.279183 137.70043099999998 958.279183 384.447185c0 246.749824-200.002127 446.791859-446.708972 446.791859z m230.625588-581.354578c0-24.658609-20.75265-44.838208-46.121433-44.838207H327.064011c-25.368784 0-46.119387 20.179598-46.119387 44.838207l0.208754 221.576491 224.889957-119.277593a11.833513 11.833513 0 0 1 11.053753 0l225.097688 119.39118v-221.690078zM511.679705 394.299577L281.181007 519.424342c0.223081 24.475438 20.660552 44.431955 45.886074 44.431955h369.007285c25.182542 0 45.823652-19.881816 46.121433-44.312228L511.679705 394.299577z"  horiz-adv-x="1024" />

    
    <glyph glyph-name="flow3" unicode="&#58881;" d="M1005.2 402.7l-128-128C864.7 262.29999999999995 848.3 256 832 256s-32.7 6.2-45.2 18.7l-128 128c-18.3 18.3-23.7 45.8-13.9 69.7 9.9 23.9 33.2 39.5 59.1 39.5h64v64c0 35.3-28.6 64-64 64H320c-17.9 0-34-7.4-45.6-19.3-25.5 12.2-53.3 19.3-82.4 19.3-19 0-37.3-3.6-55-8.9 23.8 79 96.2 136.9 183 136.9h384c106.1 0 192-85.9 192-192v-64h64c25.9 0 49.2-15.6 59.1-39.5 9.9-23.9 4.4-51.3-13.9-69.7zM192 512c16.4 0 32.7-6.2 45.2-18.7l128-128c18.3-18.3 23.8-45.8 13.9-69.7-9.9-23.9-33.2-39.5-59.1-39.5h-64v-64c0-35.4 28.7-64 64-64h384c17.9 0 34 7.4 45.6 19.2 25.5-12.2 53.3-19.2 82.4-19.2 19 0 37.3 3.6 55 8.9-23.7-79-96.2-136.9-183-136.9H320c-106 0-192 85.9-192 191.9v64H64c-25.9 0-49.2 15.6-59.1 39.5-9.9 23.9-4.4 51.4 13.9 69.7l128 128c12.5 12.5 28.8 18.8 45.2 18.8z"  horiz-adv-x="1024" />

    
    <glyph glyph-name="company3" unicode="&#59052;" d="M976.213 213.333v143.36c0 13.653-13.653 27.307-27.307 27.307h-805.547c-13.653 0-27.307-13.653-27.307-27.307v-143.36c-68.267-13.653-116.053-68.267-116.053-136.533 0-75.093 61.44-143.36 143.36-143.36 81.92 0 143.36 61.44 143.36 143.36 0 68.267-47.787 122.88-116.053 136.533v116.053h348.16v-116.053c-68.267-13.653-116.053-68.267-116.053-136.533 0-75.093 61.44-143.36 143.36-143.36s143.36 61.44 143.36 143.36c0 68.267-47.787 122.88-116.053 136.533v116.053h348.16v-116.053c-68.267-13.653-116.053-68.267-116.053-136.533 0-75.093 61.44-143.36 143.36-143.36 81.92 0 143.36 61.44 143.36 143.36 0 61.44-47.787 122.88-116.053 136.533zM348.16 698.027c0-109.338 88.636-197.973 197.973-197.973s197.973 88.636 197.973 197.973c0 109.338-88.636 197.973-197.973 197.973-109.338 0-197.973-88.636-197.973-197.973z"  horiz-adv-x="1092" />

    
    <glyph glyph-name="flow2" unicode="&#58944;" d="M149.291 810.594H63.96v-682.672h255.998v-42.666h-42.666v-42.666h-42.666v-42.67h-42.67v-42.666h640.006V-0.08000000000004093h-42.67v42.67h-42.666v42.666H703.96v42.666h256V810.595H149.291z m725.337-597.336H149.291V725.259h725.337v-512.001zM234.626 511.926h85.332v-170.667H575.96v-42.67h213.333V426.591h-42.666V597.258h-0.004v0.008H490.625v-42.674h213.332v-128.001H575.96v-42.649H362.628V511.926h85.331V639.932H234.622v-128.001h0.004z"  horiz-adv-x="1024" />

    
    <glyph glyph-name="account1" unicode="&#58906;" d="M466.954 358.958h-231.311c-57.882 0-144.635-29.363-173.573-117.248-28.872-87.967-28.872-87.967-57.815-175.918-14.536-44.262 197.34-66.673 408.013-65.966 69.939 0.138 22.339 56.115 22.339 127.114 0.005 161.725 141.66 232.018 32.348 232.018zM726.415 278.61c-47.201 0-85.519-37.212-85.519-83.236 0-45.967 38.257-83.236 85.519-83.236 47.14 0 85.453 37.207 85.453 83.236 0 46.024-38.246 83.236-85.453 83.236zM726.415 164.828c-17.393 0-31.468 13.701-31.468 30.607 0 16.963 14.070 30.73 31.468 30.73 17.347 0 31.468-13.757 31.468-30.73-0.005-16.906-14.131-30.607-31.468-30.607zM1004.349 221h-48.527c-8.304 28.583-21.971 53.336-39.964 74.263l55.503 3.336c6.313 6.093 6.313 16.026 0 22.2l-55.255 53.842c-2.918 2.807-6.891 4.537-11.268 4.537-0.029 0-0.059-0-0.088-0-4.179 0-8.223-1.48-11.347-4.536l-34.263-33.336c-23.901 13.321-52.005 22.228-81.913 24.847l36.519 40.684c0 8.515-7.301 15.601-16.108 15.601h-78.162c-8.796 0-16.108-7.091-16.108-15.601v-47.242c-16.031-4.388-31.278-10.496-45.399-18.294l-34.253 33.26c-2.919 2.85-6.914 4.608-11.321 4.608-0.011 0-0.021-0-0.032-0-4.043 0-8.226-1.556-11.349-4.608l-55.255-53.837c-2.859-2.831-4.63-6.758-4.63-11.098s1.77-8.266 4.628-11.096l34.254-33.409c-13.508-23.020-22.597-50.199-25.377-79.22l-41.858 35.024c-8.791 0-16.102-7.096-16.102-15.677v-76.186c0-8.576 7.306-15.672 16.102-15.672h48.517c8.325-28.582 22.011-53.33 40.021-74.25l-55.556-3.283c-6.175-6.246-6.175-16.174 0-22.277l55.255-53.903c2.949-2.772 6.93-4.475 11.309-4.475 0.015 0 0.030 0 0.044 0 4.109-0 8.22 1.495 11.349 4.475l34.253 33.403c23.65-13.194 51.466-22.006 81.069-24.574l-35.67-40.905c0-8.653 7.306-15.749 16.108-15.749h78.162c8.796 0 16.108 7.096 16.108 15.749v47.242c29.501 8.15 55.16 21.645 77.123 39.508l2.534-54.673c2.93-2.771 6.895-4.475 11.258-4.475 0.033 0 0.065 0 0.098 0 4.106-0 8.218 1.495 11.346 4.475l55.255 53.903c6.313 6.098 6.313 16.031 0 22.277l-34.263 33.341c13.498 22.98 22.58 50.116 25.357 79.092l41.894-34.901c8.796 0 16.102 7.096 16.102 15.672v76.186c-0.005 8.658-7.306 15.754-16.102 15.754zM758.492 17.628c-84.833 0-153.569 66.954-153.569 149.596 0 82.57 68.736 149.53 153.569 149.53 84.772 0 153.498-66.959 153.498-149.53 0-82.637-68.731-149.596-153.498-149.596zM641.951 640.21c0-119.306-99.241-215.921-221.665-215.921-122.435 0-221.665 96.614-221.665 215.921s99.236 215.921 221.665 215.921c122.424 0.005 221.665-96.609 221.665-215.921z"  horiz-adv-x="1024" />

    
    <glyph glyph-name="email1" unicode="&#58888;" d="M869.94688 562.974207L511.998465 339.25696000000005 154.051073 562.974207v89.487104l357.947392-223.717247L869.94688 652.4623349999999v-89.488128z m0 178.974208H154.051073c-49.243541 0-89.48608-40.243563-89.48608-89.487104v-536.922622c0-49.197492 40.24254-89.487104 89.48608-89.487104H869.94688c49.244564 0 89.487104 40.289612 89.487104 89.487104V652.4623349999999c0 49.243541-40.24254 89.48608-89.487104 89.48608z"  horiz-adv-x="1024" />

    
    <glyph glyph-name="beta1" unicode="&#58908;" d="M917.463 605.349h-816.097c-25.859 0-46.545-19.308-46.545-43.442v-224.108c0-24.135 21.032-43.442 46.545-43.442h816.097c25.859 0 46.545 19.308 46.545 43.442v224.108c0.345 24.135-20.687 43.442-46.545 43.442zM301.684 373.657c-6.206-14.481-15.17-25.169-26.203-32.409s-23.445-10.688-37.236-10.688c-11.723 0-22.411 2.413-32.065 7.585-7.24 3.793-15.17 11.378-23.79 22.066v-25.514h-61.716v238.933h66.888v-82.747c6.551 6.896 14.136 12.067 22.411 15.515s17.584 5.172 27.927 5.172c21.032 0 38.615-7.585 52.407-22.756 13.791-15.17 20.687-36.892 20.687-65.164 0-18.963-3.103-35.512-9.309-49.993zM535.1 404.687h-133.086c1.034-10.688 4.137-18.618 8.62-23.79 6.551-7.585 14.826-11.378 25.169-11.378 6.551 0 12.757 1.724 18.618 4.827 3.448 2.069 7.585 5.861 11.723 11.033l65.508-5.861c-9.999-17.239-22.066-29.996-36.202-37.236-14.136-7.585-34.478-11.378-60.681-11.378-22.756 0-41.029 3.103-54.131 9.654s-24.135 16.894-32.754 30.686c-8.62 14.136-13.102 30.686-13.102 49.648 0 26.893 8.62 48.959 25.859 65.508 17.239 16.894 41.374 25.169 71.714 25.169 24.824 0 44.477-3.793 58.613-11.378s25.169-18.273 32.754-32.754c7.585-14.136 11.378-32.754 11.378-55.51v-7.24zM638.535 330.559c-16.549 0-28.617 2.069-36.547 6.206-7.93 4.137-13.446 10.688-17.239 19.308-3.793 8.62-5.516 22.756-5.516 42.063v61.026h-24.479v48.614h24.479v31.72l66.543 34.133v-65.853h36.547v-48.614h-36.547v-61.371c0-7.24 0.69-12.412 2.069-14.481 2.069-3.793 5.861-5.516 11.378-5.516 4.827 0 11.723 1.379 20.687 4.137l4.827-45.856c-16.549-3.448-32.065-5.516-46.201-5.516zM842.645 334.696c-2.413 4.482-4.137 7.93-4.827 10.343-0.69 2.413-1.379 5.861-2.413 11.033-8.62-8.275-17.239-14.481-25.859-17.929-11.723-4.827-25.514-7.24-41.029-7.24-20.687 0-36.202 4.827-46.89 14.481-10.688 9.654-16.205 21.376-16.205 35.512 0 13.102 3.793 23.79 11.723 32.409 7.585 8.62 22.066 14.826 42.753 18.963 24.824 4.827 41.029 8.62 48.269 10.343 7.24 2.069 15.17 4.482 23.445 7.93 0 8.275-1.724 13.791-5.172 17.239-3.448 3.103-9.309 4.827-17.929 4.827-11.033 0-18.963-1.724-24.479-5.172-4.137-2.758-7.585-7.93-10.343-15.17l-63.44 6.551c2.413 11.033 5.861 19.653 10.343 26.203 4.482 6.206 11.033 11.723 19.308 16.549 6.206 3.448 14.481 5.861 25.169 7.93 10.688 1.724 22.066 2.758 34.478 2.758 19.997 0 35.857-1.034 47.925-3.448 12.067-2.069 22.066-6.896 29.996-13.791 5.516-4.827 9.999-11.723 13.446-20.687 3.103-8.964 4.827-17.584 4.827-25.514v-76.541c0-8.275 0.345-14.481 1.379-19.308 1.034-4.482 3.448-10.343 6.896-17.584h-61.371zM217.557 461.921c-8.964 0-16.549-3.448-22.066-9.999s-8.62-16.894-8.62-30.341c0-14.826 2.758-25.514 8.275-32.409s12.757-9.999 21.376-9.999c7.93 0 14.481 3.448 19.997 9.999 5.516 6.551 7.93 17.584 7.93 33.099 0 13.791-2.758 23.79-7.93 29.996-4.827 6.551-11.378 9.654-18.963 9.654zM435.114 472.264c-10.688 0-18.963-4.137-25.169-12.412-4.137-5.172-6.551-13.102-7.585-23.445h65.508c-1.379 12.757-4.827 22.066-10.343 27.582-5.861 5.516-13.446 8.275-22.411 8.275zM777.481 397.446c-3.793-3.448-5.516-7.585-5.516-12.067 0-5.172 1.724-9.309 5.516-12.757s8.964-4.827 16.205-4.827 14.136 1.724 20.687 5.516c6.206 3.448 11.033 7.93 13.446 13.102 2.758 5.172 4.137 11.723 4.137 19.997v10.343c-8.964-3.103-18.618-6.206-28.617-8.62-13.791-3.448-22.066-7.24-25.859-10.688z"  horiz-adv-x="1024" />

    
    <glyph glyph-name="setting3" unicode="&#59117;" d="M1016.832 289.792q2.048-12.288-1.024-29.696t-10.24-35.328-17.408-32.256-22.528-20.48-21.504-6.144-20.48 4.096q-10.24 3.072-25.6 5.632t-31.232 1.024-31.744-6.656-27.136-17.408q-24.576-25.6-28.672-58.368t9.216-62.464q10.24-20.48-3.072-40.96-6.144-8.192-19.456-16.896t-29.184-15.872-33.28-11.264-30.72-4.096q-9.216 0-17.408 7.168t-11.264 15.36h-1.024q-11.264 31.744-38.4 54.784t-62.976 23.040q-34.816 0-62.976-23.040t-39.424-53.76q-5.12-12.288-15.36-17.92t-22.528-5.632q-14.336 0-32.256 5.12t-35.84 12.8-32.256 17.92-21.504 20.48q-5.12 7.168-5.632 16.896t7.68 27.136q11.264 23.552 8.704 53.76t-26.112 55.808q-14.336 15.36-34.816 19.968t-38.912 3.584q-21.504-1.024-44.032-8.192-14.336-4.096-28.672 2.048-11.264 4.096-20.992 18.944t-17.408 32.768-11.776 36.864-2.048 31.232q3.072 22.528 20.48 28.672 30.72 12.288 55.296 40.448t24.576 62.976q0 35.84-24.576 62.464t-55.296 38.912q-9.216 3.072-15.36 14.848t-6.144 24.064q0 13.312 4.096 29.696t10.752 31.744 15.36 28.16 18.944 18.944q8.192 5.12 15.872 4.096t16.896-4.096q30.72-12.288 64-7.68t58.88 29.184q12.288 12.288 17.92 30.208t7.168 35.328 0 31.744-2.56 20.48q-2.048 6.144-3.584 14.336t1.536 14.336q6.144 14.336 22.016 25.088t34.304 17.92 35.84 10.752 27.648 3.584q13.312 0 20.992-8.704t10.752-17.92q11.264-27.648 36.864-48.64t60.416-20.992q35.84 0 63.488 19.968t38.912 50.688q4.096 8.192 12.8 16.896t17.92 8.704q14.336 0 31.232-4.096t33.28-11.264 30.208-18.432 22.016-24.576q5.12-8.192 3.072-17.92t-4.096-13.824q-13.312-29.696-8.192-62.464t29.696-57.344 60.416-27.136 66.56 11.776q8.192 5.12 19.968 4.096t19.968-9.216q15.36-14.336 27.136-43.52t15.872-58.88q2.048-17.408-5.632-27.136t-15.872-12.8q-31.744-11.264-54.272-39.424t-22.528-64q0-34.816 18.944-60.928t49.664-37.376q7.168-4.096 12.288-8.192 11.264-9.216 15.36-23.552zM540.672 197.632q46.080 0 87.040 17.408t71.168 48.128 47.616 71.168 17.408 86.528-17.408 86.528-47.616 70.656-71.168 47.616-87.040 17.408-86.528-17.408-70.656-47.616-47.616-70.656-17.408-86.528 17.408-86.528 47.616-71.168 70.656-48.128 86.528-17.408z"  horiz-adv-x="1024" />

    
    <glyph glyph-name="company4" unicode="&#58880;" d="M1094.643 175.788h-83.401v200.618c0.001 0.059 0.001 0.127 0.001 0.196 0 11.308-9.093 20.492-20.367 20.637h-0.598l-355.932 0.519v89.373h182.9c18.803 0.256 33.946 15.558 33.946 34.396 0 0.115-0.001 0.231-0.002 0.345v249.278c0.001 0.098 0.002 0.213 0.002 0.327 0 18.838-15.143 34.14-33.923 34.396h-416.577c-18.802-0.256-33.946-15.558-33.946-34.396 0-0.115 0.001-0.231 0.002-0.345v-249.278c-0.001-0.097-0.002-0.213-0.002-0.327 0-18.838 15.143-34.14 33.922-34.396h182.923v-89.307l-355.868 0.455c-11.279-0.11-20.381-9.278-20.381-20.573 0-0.068 0-0.138 0.001-0.205v-10.245c-0.014-0.211-0.022-0.457-0.022-0.705 0-0.645 0.055-1.278 0.162-1.892l-0.008-188.87h-83.401c-18.803-0.256-33.946-15.558-33.946-34.396 0-0.092 0-0.185 0.001-0.277v-144.267c-0.001-0.098-0.002-0.213-0.002-0.327 0-18.838 15.143-34.14 33.922-34.396h217.582c18.803 0.256 33.946 15.558 33.946 34.396 0 0.115-0.001 0.231-0.002 0.345v144.199c0.001 0.097 0.002 0.213 0.002 0.327 0 18.838-15.143 34.14-33.922 34.396h-83.426v170.568l325.363-0.455v-170.113h-83.401c-18.802-0.256-33.946-15.558-33.946-34.396 0-0.115 0.001-0.231 0.002-0.345v-144.199c-0.001-0.097-0.002-0.213-0.002-0.327 0-18.838 15.143-34.14 33.922-34.396h217.582c18.803 0.256 33.946 15.558 33.946 34.396 0 0.115-0.001 0.231-0.002 0.345v144.199c0.001 0.097 0.002 0.213 0.002 0.327 0 18.838-15.143 34.14-33.923 34.396h-83.426v170.048l326.142-0.455v-169.594h-83.401c-18.802-0.256-33.946-15.558-33.946-34.396 0-0.115 0.001-0.231 0.002-0.345v-144.199c-0.001-0.097-0.002-0.213-0.002-0.327 0-18.838 15.143-34.14 33.923-34.396h217.582c18.803 0.256 33.946 15.558 33.946 34.396 0 0.115-0.001 0.231-0.002 0.345v144.199c0.001 0.097 0.002 0.213 0.002 0.327 0 18.838-15.143 34.14-33.923 34.396z"  horiz-adv-x="1260" />

    
    <glyph glyph-name="order7" unicode="&#58996;" d="M615.7 463H323.5c-9.6 0-17.4-7.8-17.4-17.4V347c0-9.6 7.8-17.4 17.4-17.4h292.2c9.6 0 17.4 7.8 17.4 17.4v98.5c0 9.7-7.8 17.5-17.4 17.5z m-7.1-108.5H328.4v31.9h280.2v-31.9z m0 56.5H328.4v21.9h280.2V411zM495 809.2c-247.4 0-448-200.6-448-448s200.6-448 448-448 448 200.6 448 448-200.6 448-448 448z m174.6-660.4c0-13.8-11.2-24.9-24.9-24.9H284.5c-13.8 0-24.9 11.2-24.9 24.9V494.6c0 13.8 11.2 24.9 24.9 24.9h360.1c13.8 0 24.9-11.2 24.9-24.9v-345.8z m60.8 79c0-13.8-11.2-24.9-24.9-24.9h-2V544.3c0 13.8-11.2 24.9-24.9 24.9H320.4v4.2c0 13.8 11.2 24.9 24.9 24.9h360.1c13.8 0 24.9-11.2 24.9-24.9v-345.6z"  horiz-adv-x="1024" />

    
    <glyph glyph-name="list1" unicode="&#58926;" d="M302.308943 171.44715399999995H130.861789c-12.747967 0-23.154472-10.406504-23.154472-23.154471v-171.447155c0-12.747967 10.406504-23.154472 23.154472-23.154471h171.447154c12.747967 0 23.154472 10.406504 23.154472 23.154471v171.447155c0 12.747967-10.406504 23.154472-23.154472 23.154471z m6.764228-178.211382c0-12.747967-10.406504-23.154472-23.154472-23.154471H147.252033c-12.747967 0-23.154472 10.406504-23.154472 23.154471v138.666667c0 12.747967 10.406504 23.154472 23.154472 23.154472h138.666666c12.747967 0 23.154472-10.406504 23.154472-23.154472V-6.764228000000003zM302.308943 509.138211H130.861789c-12.747967 0-23.154472-10.406504-23.154472-23.154471v-171.447155c0-12.747967 10.406504-23.154472 23.154472-23.154471h171.447154c12.747967 0 23.154472 10.406504 23.154472 23.154471v171.447155c0 12.747967-10.406504 23.154472-23.154472 23.154471z m6.764228-178.211382c0-12.747967-10.406504-23.154472-23.154472-23.154471H147.252033c-12.747967 0-23.154472 10.406504-23.154472 23.154471v138.666667c0 12.747967 10.406504 23.154472 23.154472 23.154471h138.666666c12.747967 0 23.154472-10.406504 23.154472-23.154471v-138.666667zM447.739837 46.308943h516.94309v-29.398374H447.739837zM447.739837 379.31707300000005h516.94309v-29.398374H447.739837zM447.739837 712.0650410000001h516.94309V682.666667H447.739837zM138.146341 728.195122L169.105691 697.7560980000001c11.707317-9.886179 29.398374-8.585366 39.284553 3.121951l98.081301 113.430894 21.593496-9.365854L210.731707 667.056911c-9.886179-11.707317-27.577236-13.00813-39.284553-3.121952L119.934959 707.902439l18.211382 20.292683z"  horiz-adv-x="1037" />

    
    <glyph glyph-name="zhanghao" unicode="&#59173;" d="M855.127871 498.581642H601.751117s23.322172 56.307424 0 99.036597h256.757758s80.017428-52.085262-3.381004-99.036597z m5.066389-175.899173H537.552979l50.02023 99.041714 272.621051 0.864694c73.308633-54.636365 0-99.906407 0-99.906408zM570.06751 242.471636s88.37477-19.691481 115.879194-58.929134v-87.101777H127.421065v77.727269s14.782681 48.099485 127.555117 68.303642c71.152527 12.703323 85.512582 44.439118 80.8197 87.898933-1.364067 12.847609-80.8197 81.948407-66.642816 240.735853 0 0 13.279445 97.369631 110.846574 101.629655h64.999387s89.220021-10.258645 108.407012-103.291504c0 0 4.980431-157.125597-71.709205-238.228753 0.001023 0.001023-4.167926-63.150272 88.370676-88.744184z m287.644209 5.105275c84.98865-58.030671 1.599428-100.746542 1.599428-100.746542h-125.82573v36.712133c4.174066 39.237653-21.683858 62.353117-21.683858 62.353117l145.91016 1.681292z"  horiz-adv-x="1024" />

    
    <glyph glyph-name="app2" unicode="&#58894;" d="M944.6 563.5L753.7 372.6c-17.6-17.6-46.1-17.6-63.6 0L499.2 563.5c-17.6 17.6-17.6 46.1 0 63.6L690.1 818c17.6 17.6 46.1 17.6 63.6 0l190.9-190.9c17.6-17.5 17.6-46 0-63.6zM722.3 783.3L533.9 595l188.4-188.4L910.6 595 722.3 783.3zM387.1-63H113.9c-27.4 0-49.7 22.2-49.7 49.7V259.79999999999995c0 27.4 22.2 49.7 49.7 49.7H387c27.4 0 49.7-22.2 49.7-49.7v-273.1c0-27.5-22.2-49.7-49.6-49.7zM387.1 259.79999999999995H113.9v-273.2h273.2V259.79999999999995zM387.1 383.9H113.9c-27.4 0-49.7 22.2-49.7 49.7V706.7c0 27.4 22.2 49.7 49.7 49.7H387c27.4 0 49.7-22.2 49.7-49.7v-273.1c0-27.5-22.2-49.7-49.6-49.7zM387.1 706.7H113.9v-273.1h273.2V706.7zM560.9 309.4H834c27.4 0 49.7-22.2 49.7-49.7v-273.1c0-27.4-22.2-49.7-49.7-49.7H560.9c-27.4 0-49.7 22.2-49.7 49.7V259.79999999999995c0 27.4 22.2 49.6 49.7 49.6zM560.9-13.399999999999977H834V259.79999999999995H560.9v-273.2z"  horiz-adv-x="1024" />

    
    <glyph glyph-name="order6" unicode="&#59056;" d="M930.052655 771.2768h-120.478255c-13.1072 0-23.700945-10.630982-23.700945-23.7568 0-13.125818 10.612364-23.7568 23.700945-23.7568h120.478255v-798.813091H93.947345V723.7632H216.343273c13.1072 0 23.700945 10.630982 23.700945 23.7568 0 13.125818-10.593745 23.7568-23.700945 23.7568H93.947345A47.5136 47.5136 0 0 1 46.545455 723.7632v-798.813091a47.5136 47.5136 0 0 1 47.40189-47.5136h836.10531A47.5136 47.5136 0 0 1 977.454545-75.049891V723.7632a47.5136 47.5136 0 0 1-47.40189 47.5136zM323.900509 722.273745h376.198982c13.1072 0 23.700945 10.6496 23.700945 23.7568 0 13.125818-10.593745 23.7568-23.700945 23.7568H627.432727c0.353745 3.202327 0.837818 6.367418 0.837818 9.662837C628.270545 843.682909 576.1024 896 512 896s-116.270545-52.298473-116.270545-116.549818c0-3.295418 0.484073-6.460509 0.837818-9.662837h-72.666764c-13.1072 0-23.700945-10.630982-23.700945-23.7568 0-13.1072 10.593745-23.7568 23.700945-23.7568zM443.112727 779.450182A69.036218 69.036218 0 0 0 512 848.523636c37.981091 0 68.887273-30.980655 68.887273-69.073454 0-3.332655-0.781964-6.441891-1.303273-9.644218H444.416c-0.502691 3.202327-1.266036 6.330182-1.266036 9.662836z m-169.3696-289.512727h476.476509c13.088582 0 23.700945 10.612364 23.700946 23.738181s-10.612364 23.7568-23.700946 23.7568H273.761745c-13.088582 0-23.700945-10.612364-23.700945-23.7568 0-13.1072 10.612364-23.7568 23.700945-23.7568z m0-204.166982h476.476509c13.088582 0 23.700945 10.612364 23.700946 23.7568 0 13.125818-10.612364 23.7568-23.700946 23.7568H273.761745c-13.088582 0-23.700945-10.612364-23.700945-23.7568 0-13.125818 10.612364-23.7568 23.700945-23.7568z m0-204.166982h476.476509c13.088582 0 23.700945 10.612364 23.700946 23.7568 0 13.125818-10.612364 23.7568-23.700946 23.7568H273.761745c-13.088582 0-23.700945-10.612364-23.700945-23.7568 0-13.125818 10.612364-23.7568 23.700945-23.7568z"  horiz-adv-x="1024" />

    
    <glyph glyph-name="order5" unicode="&#58938;" d="M517.996 287.198c-18.936 0-37.089 4.718-51.114 13.293l-319.767 195.51c-28.153 17.225-32.357 44.685-32.353 59.523 0 14.844 4.205 42.303 32.353 59.498L466.841 810.37c28.03 17.142 74.12 17.119 102.154-0.026l319.773-195.508c28.152-17.226 32.346-44.685 32.346-59.537 0-14.832-4.202-42.29-32.346-59.485l-319.731-195.35c-14.009-8.555-32.137-13.267-51.04-13.267z m-341.33 268.307l307.39-187.936c17.119-10.475 50.713-10.488 67.817-0.026l307.343 187.784-307.397 187.94c-17.104 10.457-50.698 10.468-67.811 0.025L176.665 555.505z m677.292-188.262l-302.084-184.57c-17.105-10.46-50.699-10.456-67.817 0.026L182.213 367.24300000000005H114.84c0.66-15.352 6.16-40.132 32.276-56.112l319.767-195.508c14.025-8.576 32.178-13.293 51.114-13.293 18.904 0 37.031 4.705 51.04 13.266l319.732 195.35c26.24 16.03 31.669 40.968 32.285 56.297h-67.095z m4.97-158.902l0.288-0.176-307.342-187.79c-17.105-10.457-50.699-10.448-67.817 0.032L176.667 208.34000000000003h-61.904c0.004-14.847 4.215-42.292 32.353-59.502l319.767-195.51c14.025-8.574 32.178-13.3 51.114-13.3 18.904 0 37.031 4.713 51.04 13.275L888.77 148.64800000000002c28.144 17.2 32.346 44.653 32.346 59.49l-0.002 0.203H858.93z"  horiz-adv-x="1024" />

    
    <glyph glyph-name="system2" unicode="&#58887;" d="M218.453 670.72l92.16-81.92c54.613 61.44 133.12 98.987 221.867 98.987 68.267 0 129.707-23.893 180.907-61.44l54.613 54.613 23.893-30.72-47.787-51.2c54.613-54.613 85.333-126.293 85.333-208.213 0-78.507-30.72-150.187-78.507-201.387l81.92-75.093-27.307-27.307-88.747 75.093c-51.2-40.96-116.053-64.853-187.733-64.853-78.507 0-150.187 30.72-201.387 78.507l-40.96-40.96-23.893 30.72 37.547 40.96c-40.96 51.2-68.267 116.053-68.267 187.733 0 61.44 20.48 119.467 51.2 167.253l-88.747 78.507 23.893 30.72zM382.293 233.813h307.2s6.827 40.96 0 64.853-71.68 98.987-81.92 102.4c-3.413 0-23.893 3.413-47.787 0 34.133 13.653 54.613 54.613 54.613 92.16 0 47.787-34.133 85.333-78.507 85.333-44.373 0-78.507-37.547-78.507-85.333 0-37.547 23.893-81.92 58.027-92.16h-47.787s-78.507-58.027-81.92-109.227c-10.24-51.2-3.413-58.027-3.413-58.027zM34.133 66.56c0-75.405 61.128-136.533 136.533-136.533s136.533 61.128 136.533 136.533c0 75.405-61.128 136.533-136.533 136.533-75.405 0-136.533-61.128-136.533-136.533zM730.453 46.080c-0-81.061 65.713-146.773 146.773-146.773s146.773 65.713 146.773 146.773c0 0 0 0 0 0 0 81.061-65.713 146.773-146.773 146.773-81.061 0-146.773-65.713-146.773-146.773 0-0 0-0 0-0zM0 715.093c0-79.176 64.184-143.36 143.36-143.36s143.36 64.184 143.36 143.36c0 79.176-64.184 143.36-143.36 143.36-79.176 0-143.36-64.184-143.36-143.36zM699.733 738.987c0-0 0-0 0-0 0-71.635 58.072-129.707 129.707-129.707 71.635 0 129.707 58.072 129.707 129.707 0 0 0 0 0 0-0 71.635-58.072 129.707-129.707 129.707-71.635 0-129.707-58.072-129.707-129.707z"  horiz-adv-x="1024" />

    
    <glyph glyph-name="phone2" unicode="&#58918;" d="M511.995907 163.44374500000004c-10.56973 0-19.145036-8.569166-19.145036-19.145036 0-10.5728 8.575306-19.145036 19.145036-19.145035 10.57587 0 19.145036 8.572236 19.145035 19.145035 0 10.576893-8.569166 19.145036-19.145035 19.145036zM618.84954 613.007741c-70.907956 0.155543-141.822053 0.184195-212.728986-0.02763-18.876929-0.056282-29.003568 4.122901-29.015847-34.621518-0.030699-112.611777-0.036839-250.744811 0.00614-363.353518 0.01228-39.030945 9.920954-34.391275 28.979008-34.58161 35.310204-0.345877 70.614268-0.099261 105.919355-0.099261v-0.158612c35.602869 0 71.206762-0.342808 106.809631 0.140193 17.755386 0.239454 28.019147-3.362584 28.037566 32.992415 0.050142 113.824395 0.056282 253.178233 0 367.002628-0.025583 36.863582-10.208503 32.670074-28.006867 32.706913zM512 830.709995C265.289062 830.709995 65.291029 630.7109379999999 65.291029 384.001023S265.290085-62.70794799999999 512-62.70794799999999 958.708971 137.28906199999994 958.708971 384 758.710938 830.709995 512 830.709995zM669.12355 159.97269100000005c0.036839-34.069957-20.297278-50.609655-49.37657-50.665937-71.805396-0.137123-143.609769-0.143263-215.415165 0.00307-29.689183 0.062422-49.519834 11.906168-49.494251 50.662867 0.062422 115.055432 0.024559 332.960301 0 448.01471-0.00614 43.646056 20.048615 50.575886 49.806359 50.719148 35.902698 0.174985 71.805396 0.044002 107.708094 0.044002 35.610032 0.00307 71.212902 0.059352 106.822934-0.01228 29.751604-0.062422 49.986461-3.115967 49.955762-50.417273 0.035816-115.665323 0.048095-332.685032-0.007163-448.348307z"  horiz-adv-x="1024" />

    
    <glyph glyph-name="setting2" unicode="&#59136;" d="M519.2 291.6l42.1-41-27-27s-19.7-20.8 6-47.2l211.6-210.3s20.2-18.2 42.6-2.6l105.9 102.8s18.7 24.9-6.2 47.8l-209.9 207.6s-22.8 22.3-48.3 3.1l-27.5-28-44.1 43.6-45.2-48.8zM490.2 412.6l-226.9 223.7v69l-133.9 79.4-66.3-64.4 80.8-128.7 71.1-0.5 223.8-220.1 51.4 41.6zM124.2 36.2s0 34.3 35.8 34.3c0 0 32.2-1 33.2-34.3 0 0-1-31.1-34.5-33.2l-29.9-29.6s43.6-40.5 92.9 0l404.4 433.5s44.1-29.6 110.6-29.1c0 0 81.2-3.1 144.8 52.3 0 0 124.3 97.4 60.6 249.9l-144.6-139.9-122.5 121.2 144.6 138.4s-92.1 54-216.7-24.2c0 0-64.4-45-83.8-126 0 0-29.1-96.2 36-182.7l-454.6-373.1s-28.4-27.7-14.5-68.5l38.2 11zM124.2 36.2s2.8-32.5 34.5-33.2l-29.9-29.6s-39.3 33.7-42.9 51.7l38.3 11.1z"  horiz-adv-x="1024" />

    
    <glyph glyph-name="statistics1" unicode="&#58925;" d="M295.39 65.884c0-11.282-9.134-20.4-20.408-20.4h-136.918c-11.272 0-20.371 9.118-20.371 20.4v294.956c0 11.262 9.099 20.404 20.37 20.404h136.919c11.274 0 20.408-9.142 20.408-20.404v-294.957zM501.516 65.884c0-11.282-9.133-20.4-20.424-20.4h-136.882c-11.272 0-20.39 9.118-20.39 20.4v415.783c0 11.257 9.118 20.406 20.39 20.406h136.882c11.29 0 20.424-9.152 20.424-20.406v-415.783zM707.626 65.884c0-11.282-9.113-20.4-20.404-20.4h-136.904c-11.272 0-20.371 9.118-20.371 20.4v497.54c0 11.256 9.099 20.398 20.37 20.398h136.905c11.29 0 20.404-9.143 20.404-20.398v-497.54zM913.752 65.884c0-11.282-9.118-20.4-20.404-20.4h-136.904c-11.253 0-20.39 9.118-20.39 20.4v714.322c0 11.262 9.137 20.397 20.39 20.397h136.904c11.285 0 20.404-9.135 20.404-20.397v-714.322zM921.492-6.606c0-11.252-9.131-20.407-20.408-20.407h-784.804c-11.272 0-20.393 9.154-20.393 20.408v5.226c0 11.253 9.12 20.39 20.393 20.39h784.804c11.277 0 20.409-9.137 20.409-20.39v-5.226z"  horiz-adv-x="1024" />

    
    <glyph glyph-name="phone1" unicode="&#58889;" d="M218.343383 101.51821600000005h583.793804V807.731668H218.343383v-706.213452z m54.99559 52.960999h473.807762V754.760392H273.338973V154.47921499999995z m285.525963-140.165796c0-23.932124-20.150664-43.31211-44.992188-43.312109-24.836386 0-44.98705 19.374848-44.98705 43.312109 0 23.921848 20.150664 43.342937 44.98705 43.342937 24.841524 0 44.992188-19.421088 44.992188-43.342937zM800.302973-128H220.177597C168.619232-128 126.673791-87.58050200000002 126.673791-37.94883200000004V805.959108C126.673791 855.606192 168.619232 896 220.177597 896h580.125376c51.54809 0 93.503806-40.398946 93.503806-90.040892v-843.90794c0.005138-49.63167-41.950578-90.051168-93.503806-90.051168zM220.177597 843.033863c-21.239889 0-38.508216-16.626096-38.508216-37.069617v-843.90794c0-20.448659 17.273465-37.08503 38.508216-37.085031h580.125376c21.239889 0 38.503078 16.631234 38.503078 37.085031V805.959108c0 20.443521-17.26319 37.074755-38.503078 37.074755H220.177597z"  horiz-adv-x="1024" />

    
    <glyph glyph-name="select-c-checked" unicode="&#58916;" d="M512 0c-211.2 0-384 172.8-384 384s172.8 384 384 384 384-172.8 384-384-172.8-384-384-384zM512 704C332.8 704 192 563.2 192 384s147.2-320 320-320 320 147.2 320 320-140.8 320-320 320zM512 384m-140.8 0a140.8 140.8 0 1 1 281.6 0 140.8 140.8 0 1 1-281.6 0Z"  horiz-adv-x="1024" />

    
    <glyph glyph-name="select-c" unicode="&#58917;" d="M512 0c-211.2 0-384 172.8-384 384s172.8 384 384 384 384-172.8 384-384-172.8-384-384-384zM512 704C332.8 704 192 563.2 192 384s147.2-320 320-320 320 147.2 320 320-140.8 320-320 320z"  horiz-adv-x="1024" />

    
    <glyph glyph-name="order4" unicode="&#58901;" d="M224 351.93600000000004m-32 0a32 32 0 1 1 64 0 32 32 0 1 1-64 0ZM768 319.93600000000004h64a32 32 0 0 1 0 64h-64a32 32 0 0 1 0-64zM224 255.93600000000004a32 32 0 0 1 0-64h256a32 32 0 0 1 0 64h-256zM928 575.9359999999999h-163.264c1.216-10.624 3.264-21.056 3.264-32s-2.048-21.376-3.264-32H928v-448h-832v448h99.2c-1.152 10.624-3.2 21.056-3.2 32s2.048 21.376 3.2 32H96a64 64 0 0 1-64-64v-448a64 64 0 0 1 64-64h832a64 64 0 0 1 64 64v448a64 64 0 0 1-64 64zM592 350.08000000000004a224 224 0 1 1-223.936 387.968A224 224 0 0 1 592 350.08000000000004z m-192 332.544a160 160 0 1 0 160-277.312 160 160 0 0 0-160 277.312zM592 347.96799999999996a30.848 30.848 0 0 1-11.776-42.624l96-161.92a32.64 32.64 0 0 1 43.776-11.392 30.784 30.784 0 0 1 11.776 42.56l-96 161.92a32.64 32.64 0 0 1-43.776 11.456z"  horiz-adv-x="1024" />

    
    <glyph glyph-name="order3" unicode="&#58910;" d="M320 356.41600000000005a32 32 0 0 1-32 32h-64a32 32 0 0 1 0-64h64a32 32 0 0 1 32 32zM768 356.41600000000005a32 32 0 0 1 32-32h32a32 32 0 0 1 0 64h-32a32 32 0 0 1-32-32zM832 260.41600000000005h-192a32 32 0 0 1 0-64h192a32 32 0 0 1 0 64zM96 68.41600000000005v448h232.384l36.928 64H96a64 64 0 0 1-64-64v-448a64 64 0 0 1 64-64h46.528l-17.088 9.92 31.232 54.144H96zM928 580.4159999999999h-8.384l-36.928-64h45.312v-448H526.208l-36.928-64H928a64 64 0 0 1 64 64v448a64 64 0 0 1-64 64zM790.272 486.464a190.464 190.464 0 0 1 20.864 135.744l-12.224 7.04-80-138.56-3.968 2.304c-39.936-40.64-103.296-51.2-154.944-21.44a127.68 127.68 0 0 0-58.944 144.896l-3.904 2.24 16 27.712 64 110.784-12.288 7.168A190.528 190.528 0 0 1 457.728 678.4a191.36 191.36 0 0 1 0.448-191.232l-205.312-355.648a63.936 63.936 0 0 1 23.424-87.36l55.424-32a64 64 0 0 1 87.424 23.36l205.312 355.648a191.232 191.232 0 0 1 165.824 95.296z m-426.56-418.88l-55.424 32 193.6 335.36c8.192-6.784 16.64-13.312 26.112-18.816 9.472-5.504 19.392-9.536 29.376-13.248l-193.664-335.296z"  horiz-adv-x="1024" />

    
    <glyph glyph-name="order2" unicode="&#58893;" d="M958.417 304.79999999999995c0 0.45 0 0.45 0 0 1.35 6.75-0.45 13.5-5.4 18.45l-91.35 89.1c-0.45 0.45-0.9 0.9-1.35 0.9-0.45 0.45-0.9 0.9-1.8 1.35-0.45 0.45-1.35 0.45-1.8 0.9s-0.9 0.45-1.8 0.9c-0.45 0.45-1.35 0.45-1.8 0.45s-0.9 0.45-1.8 0.45h-7.2c-0.45 0-1.35-0.45-1.8-0.45s-0.9-0.45-1.8-0.45c-0.45-0.45-1.35-0.45-1.8-0.9s-0.9-0.45-1.35-0.9-0.9-0.9-1.8-1.35c-0.45-0.45-0.9-0.45-1.35-0.9l-296.55-297c-2.7-2.7-4.05-5.85-4.95-9 0-0.45-0.45-0.9-0.45-1.35-3.15-13.05-13.95-64.35 1.35-94.5l1.35-2.7 2.25-2.25c11.25-11.25 28.8-14.4 48.15-14.4 17.1 0 35.55 2.7 53.1 4.95 35.662 4.066 67.031 9.668 97.711 17.045s-81.061-12.545-79.261-10.295l295.65 291.6c2.25 2.25 3.6 4.5 4.5 6.75 0.9 1.8 1.35 2.7 1.35 3.6zM502.567 106.79999999999995v0.45c1.8 7.65 5.85 14.85 11.7 20.25l302.4 302.85c1.35 1.35 2.25 2.25 3.15 2.7 1.35 0.9 2.25 1.8 3.6 2.7s2.25 1.35 3.6 2.25 2.7 1.35 4.05 2.25l4.05 1.35c1.35 0.45 2.7 0.9 4.5 1.35 1.35 0.45 2.7 0.45 4.05 0.45 1.35 0 2.7 0.45 3.6 0.45v247.5c0 65.7-53.55 119.25-119.25 119.25h-545.4c-65.7 0-119.25-53.55-119.25-119.25v-614.25c0-65.7 53.55-119.25 119.25-119.25h545.85c65.7 0 119.25 53.55 119.25 119.25v75.15l-176.4-173.7c-3.6-3.6-9-7.2-11.7-9l-4.5-3.15-5.4-0.9c-3.6-0.45-7.2-0.9-11.25-1.35-18-2.7-38.25-5.4-57.6-5.4-29.7 0-51.3 7.2-66.6 22.05l-4.95 4.95-3.15 6.3c-18.9 36.45-9 90.9-3.6 112.95v1.8zM311.767 620.25h404.1c10.8 0 19.8-9 19.8-19.8s-9-19.8-19.8-19.8h-404.1c-10.8 0-19.8 9-19.8 19.8s9 19.8 19.8 19.8zM311.767 487.5h404.1c10.8 0 19.8-9 19.8-19.8s-9-19.8-19.8-19.8h-404.1c-10.8 0-19.8 9-19.8 19.8s9 19.8 19.8 19.8zM311.767 354.29999999999995h283.5c10.8 0 19.8-9 19.8-19.8s-9-19.8-19.8-19.8h-283.5c-10.8 0-19.8 9-19.8 19.8s9 19.8 19.8 19.8zM223.117 181.5h-25.65c-10.8 0-19.8 9-19.8 19.8s9 19.8 19.8 19.8h25.65c10.8 0 19.8-9 19.8-19.8s-8.55-19.8-19.8-19.8zM223.117 304.79999999999995h-25.65c-10.8 0-19.8 9-19.8 19.8s9 19.8 19.8 19.8h25.65c10.8 0 19.8-9 19.8-19.8s-8.55-19.8-19.8-19.8zM223.117 447.9h-25.65c-10.8 0-19.8 9-19.8 19.8s9 19.8 19.8 19.8h25.65c10.8 0 19.8-9 19.8-19.8s-8.55-19.8-19.8-19.8zM223.117 578.85h-25.65c-10.8 0-19.8 9-19.8 19.8s9 19.8 19.8 19.8h25.65c10.8 0 19.8-9 19.8-19.8s-8.55-19.8-19.8-19.8zM311.767 181.5c-10.8 0-19.8 9-19.8 19.8s9 19.8 19.8 19.8h211.05c10.8 0 19.8-9 19.8-19.8s-9-19.8-19.8-19.8h-211.05z"  horiz-adv-x="1024" />

    
    <glyph glyph-name="order1" unicode="&#58977;" d="M225.18 635.75h480.926v-53.289H225.18v53.29zM892.1 121.37900000000002c3.104 3.559 5.974 8.014 8.61 13.196 2.635 5.153 1.825 9.856-2.295 13.984l-7.452 7.8c-3.901 4.131-6.429 6.414-7.46 7.002-5.287 3.548-10.215 4.124-14.911 1.487-4.711-2.518-9.413-6.191-14.108-10.894a5209.618 5209.618 0 0 0-35.678-34.985 5116.922 5116.922 0 0 1-33.262-32.585c-3.667-3.665-7.801-5.85-12.156-6.645-4.475-0.681-8.035 0.682-10.67 4.363l-7.347 7.679a680.44 680.44 0 0 0-10.663 11.694l-10.55 12.055c-3.446 3.901-5.847 6.66-7.468 8.134-3.09 2.643-6.648 4.256-10.543 5.053-3.9 0.81-8.034-0.57-12.154-4.25l-3.902-3.548c-2.18-1.715-4.241-3.782-6.315-6.199-2.06-2.294-4.12-4.354-6.301-6.187l-3.9-3.438c-7.801-8.383-6.771-17.9 3.211-28.786 3.09-3.682 7.225-8.165 12.496-13.662a1240.431 1240.431 0 0 0 16.395-17.434c5.848-6.188 11.586-12.273 17.328-18.244 5.725-5.952 10.671-10.772 14.912-14.337 4.128-4.233 9.868-6.074 17.206-5.846 7.339 0.224 12.852 2.409 16.404 6.544 7.33 6.766 15.722 14.907 25.128 24.544 9.391 9.52 19.266 19.274 29.355 29.135a1856.547 1856.547 0 0 1 29.823 29.135c9.642 9.519 18.473 18.012 26.266 25.235zM785.534 277.485c23.523 0 45.66-4.467 66.539-13.533 20.986-9.066 39.23-21.441 54.951-36.933 15.586-15.491 28.09-33.73 37.156-54.372 9.187-20.757 13.76-42.777 13.76-66.068 0-23.86-4.574-46.118-13.76-66.767-9.065-20.747-21.569-38.872-37.156-54.482-15.722-15.48-33.965-27.627-54.951-36.47-20.879-8.846-43.016-13.196-66.539-13.196-24.081 0-46.567 4.35-67.44 13.197-20.87 8.842-39.23 20.99-54.821 36.47-15.722 15.609-28.098 33.734-37.284 54.481-9.188 20.65-13.769 42.907-13.769 66.767 0 23.292 4.582 45.31 13.769 66.068 9.186 20.641 21.56 38.88 37.284 54.372 15.592 15.492 33.95 27.866 54.821 36.933 20.873 9.066 43.358 13.533 67.44 13.533zM225.18 528.73h480.926v-53.281H225.18v53.281z m-53.725 160.746h588.378v-267.761H171.455V689.475zM64.438 43.462999999999965c0-27.286 24.696-49.393 53.725-49.393h492.391c-20.939 32.426-33.109 71.045-33.109 112.505 0 114.655 92.978 207.636 207.629 207.636 29.043 0 56.68-5.976 81.776-16.74V421.714h-53.732V796.068H118.163v-374.353H64.438v-378.252z"  horiz-adv-x="1024" />

    
    <glyph glyph-name="app1" unicode="&#58883;" d="M164.385 731.615h304.163v-304.163h-304.163zM555.451 731.615h304.163v-304.163h-304.163zM555.451 340.549h304.163v-304.163h-304.163zM164.385 340.549h304.163v-304.163h-304.163z"  horiz-adv-x="1024" />

    
    <glyph glyph-name="self1" unicode="&#58948;" d="M883.5 644.3h-739.3c-15.7 0-28.4-12.7-28.4-28.4v-557.1c0-15.7 12.7-28.4 28.4-28.4h98.2c0 29.9 24.3 54.2 54.3 54.2s54.3-24.3 54.3-54.2h108.6c0 29.9 24.3 54.2 54.3 54.2 30 0 54.3-24.3 54.3-54.2h108.6c0 29.9 24.3 54.2 54.3 54.2s54.3-24.3 54.3-54.2h98.2c15.7 0 28.4 12.7 28.4 28.4v557.1c-0.1 15.7-12.8 28.4-28.5 28.4zM224.3 210.9c0 69.8 56.7 126.4 126.6 126.4-40 0-72.3 32.4-72.3 72.2 0 39.9 32.4 72.2 72.4 72.2s72.4-32.3 72.4-72.2c0-39.9-32.4-72.2-72.3-72.2s126.6-56.6 126.6-126.4h-253.4zM568.1 431.5c0 7.9 6.4 14.2 14.2 14.2h170.6c7.9 0 14.2-6.4 14.2-14.2v-7.7c0-7.9-6.4-14.2-14.2-14.2h-170.6c-7.9 0-14.2 6.4-14.2 14.2v7.7zM767.1 243.2c0-7.9-6.4-14.2-14.2-14.2h-170.6c-7.9 0-14.2 6.4-14.2 14.2v7.7c0 7.9 6.4 14.2 14.2 14.2h170.6c7.9 0 14.2-6.4 14.2-14.2v-7.7zM785.2 333.5c0-7.9-6.4-14.2-14.2-14.2h-188.7c-7.9 0-14.2 6.4-14.2 14.2v7.7c0 7.9 6.4 14.2 14.2 14.2h188.7c7.9 0 14.2-6.4 14.2-14.2v-7.7z"  horiz-adv-x="1024" />

    
    <glyph glyph-name="select-b-checked" unicode="&#58970;" d="M698.9 680.5H325.2c-68.7 0-124.6-55.9-124.6-124.6v-373.7c0-68.7 55.9-124.6 124.6-124.6h373.7c68.7 0 124.6 55.9 124.6 124.6V555.9c-0.1 68.7-55.6 124.6-124.6 124.6z m33.9-204.1L475 221.5c-5.7-5.4-12.8-8.3-20.2-8.3s-14.5 2.9-20.2 8.3L291.5 363.20000000000005c-11.1 11.1-11.1 29.1 0 39.9 11.1 11.1 29.4 11.1 40.5 0l122.9-121.4 237.5 234.9c11.1 11.1 29.4 11.1 40.5 0 11.1-11.1 11.1-29.1-0.1-40.2z"  horiz-adv-x="1024" />

    
    <glyph glyph-name="select-b" unicode="&#58971;" d="M289.4 685.8h373.7c68.7 0 124.6-55.9 124.6-124.6v-373.7c0-68.7-55.9-124.6-124.6-124.6H289.4c-68.7 0-124.6 55.9-124.6 124.6V561.2c0 68.7 55.9 124.6 124.6 124.6zM663.1 47.299999999999955H289.4c-77.3 0-140.2 62.9-140.2 140.2V561.2c0 77.3 62.9 140.2 140.2 140.2h373.7c77.3 0 140.2-62.9 140.2-140.2v-373.7c0-77.3-62.9-140.2-140.2-140.2zM289.4 670.2c-60.1 0-109-48.9-109-109v-373.7c0-60.1 48.9-109 109-109h373.7c60.1 0 109 48.9 109 109V561.2c0 60.1-48.9 109-109 109H289.4z"  horiz-adv-x="1024" />

    
    <glyph glyph-name="system1" unicode="&#59399;" d="M916.931 760.238h-804.168c-28.508 0-51.323-17.224-51.323-45.947v-516.977c0-22.979 22.815-45.957 45.629-45.957h322.365l-8.694-91.904h-62.73c-22.815 0-39.936-28.713-39.936-51.692h382.136c5.693 17.224-11.407 51.692-34.222 51.692h-62.751l-8.684 91.904h322.365c22.815 0 45.629 22.979 45.629 45.957v516.977c0 28.713-22.815 45.947-45.629 45.947zM911.227 283.474h-792.75v425.062h792.75v-425.062zM335.196 559.206c14.232 0.080 27.091 5.892 36.398 15.243 9.173 9.341 14.905 22.282 14.935 36.562-0 13.434-5.53 26.879-15.033 36.454-9.334 9.32-22.209 15.096-36.433 15.135-14.096-0.084-26.952-5.893-36.261-15.238-9.172-9.338-14.908-22.282-14.94-36.566 0-13.425 5.53-26.881 15.043-36.445 9.331-9.324 22.205-15.104 36.429-15.146zM757.238 490.271h-216.719v-149.35h216.719v149.34zM757.238 639.621h-216.719v-17.224h216.719v17.224zM757.238 605.164h-216.719v-17.234h216.719v17.234zM489.185 490.271h-216.719v-17.224h216.719v17.224zM489.185 455.813h-216.719v-17.234h216.719v17.234zM489.185 427.090h-216.719v-17.234h216.719v17.234zM489.185 392.622h-216.719v-17.234h216.719v17.234zM489.185 358.164h-216.719v-17.234h216.719v17.234z"  horiz-adv-x="1024" />

    
    <glyph glyph-name="select-a" unicode="&#58922;" d="M512-76.79999999999995c-254.4896 0-460.8 206.3104-460.8 460.8S257.5104 844.8 512 844.8s460.8-206.3104 460.8-460.8-206.3104-460.8-460.8-460.8z m0 870.4C285.7728 793.6 102.4 610.2272 102.4 384s183.3728-409.6 409.6-409.6 409.6 183.3728 409.6 409.6S738.2272 793.6 512 793.6z"  horiz-adv-x="1024" />

    
    <glyph glyph-name="flow1" unicode="&#58911;" d="M895.382 302.37699999999995c-103.884 0-192.928-84.097-192.928-192.928 0-103.884 84.097-187.98 187.98-192.927h4.948c103.884 0 192.927 84.096 192.927 192.927 0 103.884-84.096 192.928-192.927 192.928m0-316.6c-69.256 0-123.672 54.416-123.672 123.672s54.416 123.672 123.672 123.672 123.671-54.416 123.671-123.672-54.415-123.671-123.671-123.671M192.928 302.37699999999995C89.043 302.37699999999995 0 218.27999999999997 0 109.44899999999996c0-103.884 84.097-187.98 187.98-192.927h4.948c103.884 0 192.927 84.096 192.927 192.927-4.947 103.884-89.043 192.928-192.927 192.928m0-316.6c-69.257 0-123.672 54.416-123.672 123.672s54.415 123.672 123.672 123.672 123.671-54.416 123.671-123.672c-4.947-69.256-59.362-123.671-123.671-123.671m366.067 524.367c108.831 0 197.875 84.097 197.875 192.927C756.87 806.957 672.773 896 563.942 896c-108.83-4.947-192.928-89.043-192.928-197.874 0-103.884 84.097-187.981 187.981-187.981m0 311.652c69.256 0 123.672-54.415 123.672-123.671S628.25 574.454 558.995 574.454 435.324 628.87 435.324 698.126c4.947 69.256 59.362 123.671 123.671 123.671M197.875 346.9c14.84 98.937 74.202 183.033 148.405 237.449-4.947 14.84-14.84 34.628-19.787 54.415-103.884-64.309-173.14-173.14-187.98-296.811 19.787 4.947 34.627 4.947 54.415 4.947h4.946m707.401 0c19.788 0 39.575-4.947 59.363-9.894-14.84 123.671-79.15 227.555-178.087 291.865-4.947-19.788-14.84-39.575-24.735-54.416C836.02 520.04 885.488 440.89 905.276 346.9M707.4-34.00999999999999c-49.469-24.734-98.937-34.628-158.3-34.628-59.362 0-113.777 14.84-163.246 39.575-9.894-14.84-24.734-29.681-39.575-44.522C405.643-108.21299999999997 479.845-128 554.048-128s138.512 19.787 197.875 49.469c-19.788 14.84-29.681 29.68-44.522 44.521m0 0"  horiz-adv-x="1093" />

    
    <glyph glyph-name="notification1" unicode="&#60355;" d="M526.432-28.064c-20.96 0-44.16 12.576-68.96 37.344l-182.72 182.72h-82.752c-52.928 0-96 43.072-96 96v192c0 52.928 43.072 96 96 96h82.752l182.624 182.624c24.576 24.576 47.744 37.024 68.864 37.024 22.944 0 49.76-15.648 49.76-59.648v-704c0-44.352-26.72-60.064-49.568-60.064zM687.584 165.632c-6.464 0-12.992 1.952-18.656 6.016-14.336 10.304-17.632 30.304-7.328 44.672l12.672 17.344c33.12 44.896 61.728 83.712 61.728 150.336 0 69.024-25.344 102.528-57.44 144.928-5.664 7.456-11.328 15.008-16.928 22.784-10.304 14.336-7.040 34.336 7.328 44.672 14.368 10.368 34.336 7.040 44.672-7.328 5.248-7.328 10.656-14.464 15.968-21.504 34.624-45.76 70.4-93.056 70.4-183.552 0-87.648-39.392-141.12-74.144-188.32l-12.224-16.736c-6.272-8.704-16.064-13.312-26.048-13.312zM796.448 56.992c-7.488 0-15.040 2.624-21.088 7.936-13.28 11.648-14.624 31.872-2.976 45.152 64.224 73.248 123.616 157.056 123.616 273.92 0 116.864-59.392 200.704-123.616 273.888-11.648 13.312-10.304 33.504 2.976 45.184 13.216 11.648 33.44 10.336 45.152-2.944 68.96-78.688 139.488-177.728 139.488-316.128s-70.528-237.472-139.488-316.096c-6.368-7.232-15.2-10.912-24.064-10.912z"  horiz-adv-x="1024" />

    


  </font>
</defs>
</svg>
